<svg xmlns="http://www.w3.org/2000/svg" xmlns:xlink="http://www.w3.org/1999/xlink" width="113" height="113" viewBox="0 0 113 113">
  <defs>
    <filter id="Trazado_982547" x="0" y="0" width="113" height="113" filterUnits="userSpaceOnUse">
      <feOffset dy="3" input="SourceAlpha"/>
      <feGaussianBlur stdDeviation="3" result="blur"/>
      <feFlood flood-opacity="0.161"/>
      <feComposite operator="in" in2="blur"/>
      <feComposite in="SourceGraphic"/>
    </filter>
  </defs>
  <g id="Grupo_1207658" data-name="Grupo 1207658" transform="translate(-586.06 -3323.418)">
    <g id="Grupo_1207352" data-name="Grupo 1207352" transform="translate(0 -7501.408)">
      <g id="Grupo_1204126" data-name="Grupo 1204126" transform="translate(0 6984.49)">
        <g id="Grupo_1203959" data-name="Grupo 1203959" transform="translate(0 1899.461)">
          <g id="Grupo_1203497" data-name="Grupo 1203497" transform="translate(595.061 1946.875)">
            <g id="Grupo_1172010" data-name="Grupo 1172010" transform="translate(0)">
              <g id="Grupo_1171046" data-name="Grupo 1171046">
                <g id="Grupo_1148525" data-name="Grupo 1148525">
                  <g transform="matrix(1, 0, 0, 1, -9, -6)" filter="url(#Trazado_982547)">
                    <g id="Trazado_982547-2" data-name="Trazado 982547" transform="translate(9 6)" fill="#edf3fc">
                      <path d="M 47.5 93.5 C 41.28937149047852 93.5 35.26533508300781 92.28397369384766 29.59518623352051 89.88570404052734 C 24.11771965026855 87.56893157958984 19.19813346862793 84.25196075439453 14.97309303283691 80.02691650390625 C 10.74804019927979 75.80186462402344 7.431066513061523 70.88229370117188 5.114293098449707 65.40481567382812 C 2.716026782989502 59.73468017578125 1.5 53.71062850952148 1.5 47.5 C 1.5 41.28937149047852 2.716026782989502 35.26533508300781 5.114293098449707 29.59518623352051 C 7.431066513061523 24.11771965026855 10.74804019927979 19.19813346862793 14.97309303283691 14.97309303283691 C 19.19813346862793 10.74804019927979 24.11771965026855 7.431066513061523 29.59518623352051 5.114293098449707 C 35.26533508300781 2.716026782989502 41.28937149047852 1.5 47.5 1.5 C 53.71062850952148 1.5 59.73468017578125 2.716026782989502 65.40481567382812 5.114293098449707 C 70.88229370117188 7.431066513061523 75.80186462402344 10.74804019927979 80.02691650390625 14.97309303283691 C 84.25196075439453 19.19813346862793 87.56893157958984 24.11771965026855 89.88570404052734 29.59518623352051 C 92.28397369384766 35.26533508300781 93.5 41.28937149047852 93.5 47.5 C 93.5 53.71062850952148 92.28397369384766 59.73468017578125 89.88570404052734 65.40481567382812 C 87.56893157958984 70.88229370117188 84.25196075439453 75.80186462402344 80.02691650390625 80.02691650390625 C 75.80186462402344 84.25196075439453 70.88229370117188 87.56893157958984 65.40481567382812 89.88570404052734 C 59.73468017578125 92.28397369384766 53.71062850952148 93.5 47.5 93.5 Z" stroke="none"/>
                      <path d="M 47.5 3 C 41.49121475219727 3 35.66376876831055 4.176155090332031 30.17950439453125 6.495796203613281 C 24.88084411621094 8.736953735351562 20.12152099609375 11.94598388671875 16.03375244140625 16.03375244140625 C 11.94598388671875 20.12152099609375 8.736953735351562 24.88084411621094 6.495796203613281 30.17950439453125 C 4.176155090332031 35.66376876831055 3 41.49121475219727 3 47.5 C 3 53.50878524780273 4.176155090332031 59.33623123168945 6.495796203613281 64.82049560546875 C 8.736953735351562 70.11915588378906 11.94598388671875 74.87847900390625 16.03375244140625 78.96624755859375 C 20.12152099609375 83.05401611328125 24.88084411621094 86.26304626464844 30.17950439453125 88.50419616699219 C 35.66376876831055 90.82384490966797 41.49121475219727 92 47.5 92 C 53.50878524780273 92 59.33623123168945 90.82384490966797 64.82049560546875 88.50419616699219 C 70.11915588378906 86.26304626464844 74.87847900390625 83.05401611328125 78.96624755859375 78.96624755859375 C 83.05401611328125 74.87847900390625 86.26304626464844 70.11915588378906 88.50419616699219 64.82049560546875 C 90.82384490966797 59.33623123168945 92 53.50878524780273 92 47.5 C 92 41.49121475219727 90.82384490966797 35.66376876831055 88.50419616699219 30.17950439453125 C 86.26304626464844 24.88084411621094 83.05401611328125 20.12152099609375 78.96624755859375 16.03375244140625 C 74.87847900390625 11.94598388671875 70.11915588378906 8.736953735351562 64.82049560546875 6.495796203613281 C 59.33623123168945 4.176155090332031 53.50878524780273 3 47.5 3 M 47.5 0 C 73.7335205078125 0 95 21.2664794921875 95 47.5 C 95 73.7335205078125 73.7335205078125 95 47.5 95 C 21.2664794921875 95 0 73.7335205078125 0 47.5 C 0 21.2664794921875 21.2664794921875 0 47.5 0 Z" stroke="none" fill="#5692e8"/>
                    </g>
                  </g>
                </g>
              </g>
            </g>
          </g>
        </g>
      </g>
    </g>
    <g id="positive-thinking_8050334_1_" data-name="positive-thinking_8050334 (1)" transform="translate(602.703 3337.878)">
      <g id="Grupo_1207638" data-name="Grupo 1207638" transform="translate(22.125 49.036)">
        <circle id="Elipse_13414" data-name="Elipse 13414" cx="6.021" cy="6.021" r="6.021" transform="translate(21.789)" fill="#7a6d79"/>
        <circle id="Elipse_13415" data-name="Elipse 13415" cx="6.021" cy="6.021" r="6.021" fill="#7a6d79"/>
      </g>
      <path id="Trazado_1051362" data-name="Trazado 1051362" d="M145.939,323.432c0,2.316-1.416,4.193-3.163,4.193s-2.762-2.156-2.762-4.472,1.015-3.914,2.762-3.914S145.939,321.116,145.939,323.432Z" transform="translate(-115.695 -272.173)" fill="#ffb09e"/>
      <path id="Trazado_1051363" data-name="Trazado 1051363" d="M325.3,323.432c0,2.316,1.416,4.193,3.163,4.193s2.762-2.156,2.762-4.472-1.015-3.914-2.762-3.914S325.3,321.116,325.3,323.432Z" transform="translate(-277.468 -272.173)" fill="#ffb09e"/>
      <path id="Trazado_1051364" data-name="Trazado 1051364" d="M120.519,448.119a.519.519,0,0,1-.413-.834c1.578-2.085,6.612-7.363,17.155-7.363s15.577,5.277,17.155,7.363a.519.519,0,0,1-.413.834Z" transform="translate(-98.221 -377.539)" fill="#ade194"/>
      <path id="Trazado_1051365" data-name="Trazado 1051365" d="M260.051,447.283c-1.334-1.768-5.151-5.83-12.694-7.025a28.12,28.12,0,0,0-4.431-.338c-.655,0-1.288.021-1.9.06q1.33.084,2.53.277c7.544,1.2,11.36,5.257,12.695,7.025a.519.519,0,0,1-.412.834h3.8A.519.519,0,0,0,260.051,447.283Z" transform="translate(-203.886 -377.536)" fill="#97da7b"/>
      <path id="Trazado_1051366" data-name="Trazado 1051366" d="M229.78,440.7a4.46,4.46,0,1,1-8.92,0c0-.147.008-.293.022-.438a29.344,29.344,0,0,1,8.877,0C229.772,440.4,229.78,440.548,229.78,440.7Z" transform="translate(-186.28 -377.536)" fill="#ffb09e"/>
      <path id="Trazado_1051367" data-name="Trazado 1051367" d="M175.564,253.086v-6.947a10.209,10.209,0,0,1,10.209-10.209h0a10.209,10.209,0,0,1,10.209,10.209v6.908a10.228,10.228,0,0,1-10.228,10.228h0A10.19,10.19,0,0,1,175.564,253.086Z" transform="translate(-146.733 -199.437)" fill="#ffcebf"/>
      <path id="Trazado_1051368" data-name="Trazado 1051368" d="M242.783,235.93h0a10.249,10.249,0,0,0-1.9.18,10.21,10.21,0,0,1,8.305,10.029v6.908a10.229,10.229,0,0,1-8.323,10.048,10.23,10.23,0,0,0,1.9.18h0a10.228,10.228,0,0,0,10.228-10.228v-6.908A10.209,10.209,0,0,0,242.783,235.93Z" transform="translate(-203.743 -199.437)" fill="#ffb09e"/>
      <path id="Trazado_1051369" data-name="Trazado 1051369" d="M187.681,230.312s-.912.347-1.737-.911-.32-5.527-3.289-5.472c-3.189-1.057-7.122,1.216-10.367,0s-2.464,4.213-3.289,5.472-1.737.911-1.737.911-6.384-15.346,10.209-15.346S187.681,230.312,187.681,230.312Z" transform="translate(-138.431 -181.134)" fill="#918291"/>
      <g id="Grupo_1207639" data-name="Grupo 1207639" transform="translate(37.136 33.832)">
        <path id="Trazado_1051370" data-name="Trazado 1051370" d="M242.9,214.966q-1.008,0-1.9.074c8.873.716,9.895,6.515,9.416,10.756.454,1.3.5,2.909.961,3.605.824,1.258,1.737.911,1.737.911S259.5,214.966,242.9,214.966Z" transform="translate(-241 -214.966)" fill="#7a6d79"/>
      </g>
      <path id="Trazado_1051371" data-name="Trazado 1051371" d="M179.629,248.5s.31-6.55-5.819-5.209c-8.211,1.8-11.1,11.56-11.221,12.874,0,0,4.762.133,6.931-2.8A11.527,11.527,0,0,1,179.629,248.5Z" transform="translate(-135.405 -205.709)" fill="#7a6d79"/>
      <path id="Trazado_1051372" data-name="Trazado 1051372" d="M135.123,13.193V28.368a5.692,5.692,0,0,1-5.69,5.693H118.651a2.317,2.317,0,0,0-2.005,1.157l-1.336,2.31a.865.865,0,0,1-1.5,0l-1.337-2.311a2.317,2.317,0,0,0-2-1.157H99.69A5.691,5.691,0,0,1,94,28.368V13.193A5.692,5.692,0,0,1,99.69,7.5h29.743A5.692,5.692,0,0,1,135.123,13.193Z" transform="translate(-75.521)" fill="#f9f3f1"/>
      <g id="Grupo_1207640" data-name="Grupo 1207640" transform="translate(50.104 7.5)">
        <path id="Trazado_1051373" data-name="Trazado 1051373" d="M346.977,7.5h-3.808a5.692,5.692,0,0,1,5.69,5.693V28.368a5.692,5.692,0,0,1-5.69,5.693h3.808a5.692,5.692,0,0,0,5.69-5.693V13.193A5.692,5.692,0,0,0,346.977,7.5Z" transform="translate(-343.169 -7.5)" fill="#f3eae6"/>
      </g>
      <path id="Trazado_1051374" data-name="Trazado 1051374" d="M228.272,53.232,223.982,48a.371.371,0,0,0-.572,0l-4.291,5.237a.525.525,0,0,0,.41.856l1.692.009a.545.545,0,0,1,.545.542V62.05a.531.531,0,0,0,.534.528h2.791a.531.531,0,0,0,.534-.528V54.638a.545.545,0,0,1,.545-.542l1.691-.008A.525.525,0,0,0,228.272,53.232Z" transform="translate(-184.655 -35.238)" fill="#ade194"/>
      <circle id="Elipse_13416" data-name="Elipse 13416" cx="7.869" cy="7.869" r="7.869" transform="translate(7.5 26.928)" fill="#ffe177"/>
      <path id="Trazado_1051375" data-name="Trazado 1051375" d="M56.4,160.572a7.882,7.882,0,0,0-1.9.233,7.87,7.87,0,0,1,0,15.272,7.869,7.869,0,1,0,1.9-15.505Z" transform="translate(-41.035 -133.644)" fill="#ffd15b"/>
      <circle id="Elipse_13417" data-name="Elipse 13417" cx="7.869" cy="7.869" r="7.869" transform="translate(54.842 50.259)" fill="#ffe177"/>
      <path id="Trazado_1051376" data-name="Trazado 1051376" d="M429.4,344.39a7.883,7.883,0,0,0-1.9.233,7.87,7.87,0,0,1,0,15.272,7.869,7.869,0,1,0,1.9-15.505Z" transform="translate(-366.693 -294.131)" fill="#ffd15b"/>
      <g id="Grupo_1207657" data-name="Grupo 1207657" transform="translate(7.5 7.5)">
        <g id="Grupo_1207641" data-name="Grupo 1207641" transform="translate(14.625 43.041)">
          <path id="Trazado_1051377" data-name="Trazado 1051377" d="M327.488,410.834a6.025,6.025,0,0,1-7.584,1.705" transform="translate(-294.878 -402.683)" fill="none" stroke="#000" stroke-linecap="round" stroke-linejoin="round" stroke-miterlimit="10" stroke-width="1"/>
          <path id="Trazado_1051378" data-name="Trazado 1051378" d="M373.213,346.615a6.013,6.013,0,0,1,1.948,3.467" transform="translate(-341.421 -346.615)" fill="none" stroke="#000" stroke-linecap="round" stroke-linejoin="round" stroke-miterlimit="10" stroke-width="1"/>
          <path id="Trazado_1051379" data-name="Trazado 1051379" d="M131.532,357.253a6.022,6.022,0,0,1-6.892-9.742" transform="translate(-122.727 -347.397)" fill="none" stroke="#000" stroke-linecap="round" stroke-linejoin="round" stroke-miterlimit="10" stroke-width="1"/>
        </g>
        <path id="Trazado_1051380" data-name="Trazado 1051380" d="M144.329,327.085a2.576,2.576,0,0,1-1.553.539c-1.747,0-2.762-2.156-2.762-4.472s1.015-3.914,2.762-3.914a2.429,2.429,0,0,1,.638.085" transform="translate(-123.195 -279.672)" fill="none" stroke="#000" stroke-linecap="round" stroke-linejoin="round" stroke-miterlimit="10" stroke-width="1"/>
        <path id="Trazado_1051381" data-name="Trazado 1051381" d="M338.065,327.093a2.574,2.574,0,0,0,1.543.532c1.747,0,2.762-2.156,2.762-4.472s-1.015-3.914-2.762-3.914a2.457,2.457,0,0,0-.941.188" transform="translate(-296.109 -279.673)" fill="none" stroke="#000" stroke-linecap="round" stroke-linejoin="round" stroke-miterlimit="10" stroke-width="1"/>
        <path id="Trazado_1051382" data-name="Trazado 1051382" d="M229.78,446.03a4.46,4.46,0,1,1-8.92,0" transform="translate(-193.78 -390.371)" fill="none" stroke="#000" stroke-linecap="round" stroke-linejoin="round" stroke-miterlimit="10" stroke-width="1"/>
        <path id="Trazado_1051383" data-name="Trazado 1051383" d="M195.979,335.88v4.432a10.21,10.21,0,1,1-20.419.038v-2.994" transform="translate(-154.23 -294.201)" fill="none" stroke="#000" stroke-linecap="round" stroke-linejoin="round" stroke-miterlimit="10" stroke-width="1"/>
        <g id="Grupo_1207651" data-name="Grupo 1207651" transform="translate(26.237 40.632)">
          <g id="Grupo_1207642" data-name="Grupo 1207642" transform="translate(4.668 7.618)">
            <path id="Trazado_1051384" data-name="Trazado 1051384" d="M251,387.655a2.11,2.11,0,0,0,1.27,0" transform="translate(-250.996 -387.655)" fill="none" stroke="#000" stroke-linecap="round" stroke-linejoin="round" stroke-miterlimit="10" stroke-width="1"/>
          </g>
          <g id="Grupo_1207645" data-name="Grupo 1207645">
            <g id="Grupo_1207643" data-name="Grupo 1207643">
              <path id="Trazado_1051385" data-name="Trazado 1051385" d="M216.947,327.847a4.541,4.541,0,0,0-2.732,0" transform="translate(-214.215 -327.637)" fill="none" stroke="#000" stroke-linecap="round" stroke-linejoin="round" stroke-miterlimit="10" stroke-width="1"/>
            </g>
            <g id="Grupo_1207644" data-name="Grupo 1207644" transform="translate(7.875)">
              <path id="Trazado_1051386" data-name="Trazado 1051386" d="M276.259,327.847a4.541,4.541,0,0,1,2.732,0" transform="translate(-276.259 -327.637)" fill="none" stroke="#000" stroke-linecap="round" stroke-linejoin="round" stroke-miterlimit="10" stroke-width="1"/>
            </g>
          </g>
          <g id="Grupo_1207648" data-name="Grupo 1207648" transform="translate(0.225 3.862)">
            <g id="Grupo_1207646" data-name="Grupo 1207646">
              <path id="Trazado_1051387" data-name="Trazado 1051387" d="M218.6,358.066a4.347,4.347,0,0,1-2.616,0" transform="translate(-215.985 -358.066)" fill="none" stroke="#000" stroke-linecap="round" stroke-linejoin="round" stroke-miterlimit="10" stroke-width="1"/>
            </g>
            <g id="Grupo_1207647" data-name="Grupo 1207647" transform="translate(7.541)">
              <path id="Trazado_1051388" data-name="Trazado 1051388" d="M275.4,358.066a4.347,4.347,0,0,0,2.616,0" transform="translate(-275.401 -358.066)" fill="none" stroke="#000" stroke-linecap="round" stroke-linejoin="round" stroke-miterlimit="10" stroke-width="1"/>
            </g>
          </g>
          <g id="Grupo_1207650" data-name="Grupo 1207650" transform="translate(3.308 10.56)">
            <g id="Grupo_1207649" data-name="Grupo 1207649">
              <path id="Trazado_1051389" data-name="Trazado 1051389" d="M244.271,410.834a4.143,4.143,0,0,1-3.99,0" transform="translate(-240.281 -410.834)" fill="none" stroke="#000" stroke-linecap="round" stroke-linejoin="round" stroke-miterlimit="10" stroke-width="1"/>
            </g>
          </g>
        </g>
        <path id="Trazado_1051390" data-name="Trazado 1051390" d="M166.537,230.015c-.913-3.826-1.435-11.139,7.27-12.7" transform="translate(-145.932 -190.684)" fill="none" stroke="#000" stroke-linecap="round" stroke-linejoin="round" stroke-miterlimit="10" stroke-width="1"/>
        <path id="Trazado_1051391" data-name="Trazado 1051391" d="M284.771,217.3c11.932,2.13,6.558,15.05,6.558,15.05s-.912.347-1.737-.911-.32-5.527-3.289-5.472" transform="translate(-249.579 -190.668)" fill="none" stroke="#000" stroke-linecap="round" stroke-linejoin="round" stroke-miterlimit="10" stroke-width="1"/>
        <path id="Trazado_1051392" data-name="Trazado 1051392" d="M173.591,243.372c-8.044,1.92-10.885,11.521-11,12.824,0,0,4.762.133,6.931-2.8a11.526,11.526,0,0,1,10.109-4.866s.247-5.223-4.065-5.386" transform="translate(-142.906 -213.237)" fill="none" stroke="#000" stroke-linecap="round" stroke-linejoin="round" stroke-miterlimit="10" stroke-width="1"/>
        <path id="Trazado_1051393" data-name="Trazado 1051393" d="M94,16.4V13.193A5.692,5.692,0,0,1,99.69,7.5h29.743a5.692,5.692,0,0,1,5.69,5.693V28.368a5.692,5.692,0,0,1-5.69,5.693H118.651a2.317,2.317,0,0,0-2.005,1.157l-1.336,2.31a.865.865,0,0,1-1.5,0l-1.337-2.311a2.317,2.317,0,0,0-2-1.157H99.69a5.744,5.744,0,0,1-.794-.055" transform="translate(-83.021 -7.5)" fill="none" stroke="#000" stroke-linecap="round" stroke-linejoin="round" stroke-miterlimit="10" stroke-width="1"/>
        <line id="Línea_1251" data-name="Línea 1251" y1="6.457" transform="translate(10.979 13.351)" fill="none" stroke="#000" stroke-linecap="round" stroke-linejoin="round" stroke-miterlimit="10" stroke-width="1"/>
        <path id="Trazado_1051394" data-name="Trazado 1051394" d="M228.272,53.232,223.982,48a.371.371,0,0,0-.572,0l-4.291,5.237a.525.525,0,0,0,.41.856l1.692.009a.545.545,0,0,1,.545.542V62.05a.531.531,0,0,0,.534.528h2.791a.531.531,0,0,0,.534-.528V54.638a.545.545,0,0,1,.545-.542l1.691-.008A.525.525,0,0,0,228.272,53.232Z" transform="translate(-192.155 -42.738)" fill="none" stroke="#000" stroke-linecap="round" stroke-linejoin="round" stroke-miterlimit="10" stroke-width="1"/>
        <g id="Grupo_1207654" data-name="Grupo 1207654" transform="translate(17.046 11.194)">
          <g id="Grupo_1207652" data-name="Grupo 1207652" transform="translate(22.222)">
            <line id="Línea_1252" data-name="Línea 1252" y2="6.765" transform="translate(3.383)" fill="none" stroke="#000" stroke-linecap="round" stroke-linejoin="round" stroke-miterlimit="10" stroke-width="1"/>
            <line id="Línea_1253" data-name="Línea 1253" x1="6.765" transform="translate(0 3.383)" fill="none" stroke="#000" stroke-linecap="round" stroke-linejoin="round" stroke-miterlimit="10" stroke-width="1"/>
          </g>
          <g id="Grupo_1207653" data-name="Grupo 1207653">
            <line id="Línea_1254" data-name="Línea 1254" y2="6.765" transform="translate(3.383)" fill="none" stroke="#000" stroke-linecap="round" stroke-linejoin="round" stroke-miterlimit="10" stroke-width="1"/>
            <line id="Línea_1255" data-name="Línea 1255" x1="6.765" transform="translate(0 3.383)" fill="none" stroke="#000" stroke-linecap="round" stroke-linejoin="round" stroke-miterlimit="10" stroke-width="1"/>
          </g>
        </g>
        <circle id="Elipse_13418" data-name="Elipse 13418" cx="7.869" cy="7.869" r="7.869" transform="translate(0 19.428)" fill="none" stroke="#000" stroke-linecap="round" stroke-linejoin="round" stroke-miterlimit="10" stroke-width="1"/>
        <g id="Grupo_1207655" data-name="Grupo 1207655" transform="translate(4.696 24.124)">
          <line id="Línea_1256" data-name="Línea 1256" x2="6.346" transform="translate(0 3.173)" fill="none" stroke="#000" stroke-linecap="round" stroke-linejoin="round" stroke-miterlimit="10" stroke-width="1"/>
          <line id="Línea_1257" data-name="Línea 1257" y1="6.346" transform="translate(3.173)" fill="none" stroke="#000" stroke-linecap="round" stroke-linejoin="round" stroke-miterlimit="10" stroke-width="1"/>
        </g>
        <path id="Trazado_1051395" data-name="Trazado 1051395" d="M394.133,346.9a7.845,7.845,0,1,1-3.668-2.229" transform="translate(-333.158 -301.631)" fill="none" stroke="#000" stroke-linecap="round" stroke-linejoin="round" stroke-miterlimit="10" stroke-width="1"/>
        <g id="Grupo_1207656" data-name="Grupo 1207656" transform="translate(52.038 47.455)">
          <line id="Línea_1258" data-name="Línea 1258" x2="6.346" transform="translate(0 3.173)" fill="none" stroke="#000" stroke-linecap="round" stroke-linejoin="round" stroke-miterlimit="10" stroke-width="1"/>
          <line id="Línea_1259" data-name="Línea 1259" y1="6.346" transform="translate(3.173)" fill="none" stroke="#000" stroke-linecap="round" stroke-linejoin="round" stroke-miterlimit="10" stroke-width="1"/>
        </g>
        <path id="Trazado_1051396" data-name="Trazado 1051396" d="M142.542,443.278c7.115,1.318,10.751,5.2,12.047,6.914a.519.519,0,0,1-.412.834H120.75a.519.519,0,0,1-.412-.834c1.3-1.728,4.98-5.647,12.189-6.94" transform="translate(-105.923 -387.946)" fill="none" stroke="#000" stroke-linecap="round" stroke-linejoin="round" stroke-miterlimit="10" stroke-width="1"/>
      </g>
    </g>
  </g>
</svg>
