<svg xmlns="http://www.w3.org/2000/svg" xmlns:xlink="http://www.w3.org/1999/xlink" width="400" height="344.145" viewBox="0 0 400 344.145">
  <defs>
    <clipPath id="clip-path">
      <rect id="Rectángulo_418281" data-name="Rectángulo 418281" width="400" height="344.145" transform="translate(1020 5136.415)" fill="#27454a" stroke="#707070" stroke-width="1" opacity="0.38"/>
    </clipPath>
    <clipPath id="clip-path-2">
      <rect id="Rectángulo_418372" data-name="Rectángulo 418372" width="381.185" height="476.588" fill="none"/>
    </clipPath>
    <clipPath id="clip-path-3">
      <path id="Trazado_1051280" data-name="Trazado 1051280" d="M185.246,398.7l-.086,2.188.016.183a29.777,29.777,0,0,1-2.307,4.539c-5.26,1.75-10.342,4.654-15.3,7.153l-.248.214a8.5,8.5,0,0,0-6.583,1.305c-2.046,1.361-3.77,4.047-5.232,6.008a138.715,138.715,0,0,0-14.432,23.189,42.88,42.88,0,0,0-3.561,10.369l-.37,3.141c-.417,5.8.832,10.051,4.693,14.484,6.276,7.207,14.476,12.222,22.284,17.529l-.919,6.365-1.135,11.3a26.056,26.056,0,0,1,13.063,2.424l3.938,2.557c1.516,1.083,3.372,2.985,5.2,3.212C196.651,516.4,209.5,516.143,221.4,512a34.611,34.611,0,0,0,3.447-1.672l-3.062-14.939c-2.241-9.884-5.872-20.627-5.617-30.786a63.336,63.336,0,0,1,2.628-15.171l6.074,4.844c4.885,3.619,10.85,7.549,17.259,6.508a11.9,11.9,0,0,0,5.762-2.653,25.479,25.479,0,0,0,3.927-4.955l9.333-14.157,6.634-11.163a14.118,14.118,0,0,0,.309-2.331,3.309,3.309,0,0,0-1.364-1.878,17.914,17.914,0,0,1-3.306-2.207l-5.456-3.72a11.411,11.411,0,0,0-2.928-1.929,4.384,4.384,0,0,0-2.691,1.17,65.548,65.548,0,0,0-5.3,6.954l-7.483,10.261-17.929-16.524c-3.083-2.891-6.164-6.211-9.7-8.533a30.814,30.814,0,0,0-7.691-3.393,10.252,10.252,0,0,1-2.545-2.04l-1.917-1.917-1.146-.727a23.935,23.935,0,0,1-.665-4.391c-4.646.118-8.66-1.343-12.745-3.443Z" transform="translate(-137.073 -393.208)" fill="none"/>
    </clipPath>
    <linearGradient id="linear-gradient" x1="-0.361" y1="2.611" x2="-0.358" y2="2.611" gradientUnits="objectBoundingBox">
      <stop offset="0" stop-color="#fd9e04"/>
      <stop offset="1" stop-color="#fcb407"/>
    </linearGradient>
  </defs>
  <g id="Enmascarar_grupo_1098765" data-name="Enmascarar grupo 1098765" transform="translate(-1020 -5136.415)" clip-path="url(#clip-path)">
    <g id="Rectángulo_418277" data-name="Rectángulo 418277" transform="translate(1116 5138.037)" fill="#27454a" stroke="#707070" stroke-width="1" opacity="0.38">
      <rect width="304" height="342.522" stroke="none"/>
      <rect x="0.5" y="0.5" width="303" height="341.522" fill="none"/>
    </g>
    <g id="Grupo_1207603" data-name="Grupo 1207603" transform="translate(1029.407 5071)">
      <g id="Grupo_1207604" data-name="Grupo 1207604" transform="translate(0 0.005)">
        <g id="Grupo_1207603-2" data-name="Grupo 1207603" clip-path="url(#clip-path-2)">
          <path id="Trazado_1051191" data-name="Trazado 1051191" d="M0,1278.915Z" transform="translate(0 -802.839)" fill="#fefefe"/>
          <path id="Trazado_1051192" data-name="Trazado 1051192" d="M117.739,830.732l.748,2.858a6.3,6.3,0,0,0-1.278,5.032,11.427,11.427,0,0,0,1.93,4.86,10.344,10.344,0,0,1,1.667,2.75,8.534,8.534,0,0,1-3.778-2.8,11.276,11.276,0,0,1-2.4-7.846c.273-2.418,1.336-3.42,3.111-4.854" transform="translate(-71.926 -521.493)" fill="#f5af89"/>
          <path id="Trazado_1051193" data-name="Trazado 1051193" d="M892.957,827.607l.169.932c1.443.022,3.446-.157,4.513,1.023,1.211,1.34,1.28,3.47,1.13,5.171a11.243,11.243,0,0,1-3.666,7.283,7.062,7.062,0,0,1-5.088,1.844,5.856,5.856,0,0,1-.95-.178l.466-.589c.618-1.476,1.434-2.869,1.987-4.371a29.731,29.731,0,0,0,1.44-11.114" transform="translate(-558.109 -519.531)" fill="#ee9a80"/>
          <path id="Trazado_1051194" data-name="Trazado 1051194" d="M893.743,827.607l.169.932.255.97.173.073a4.1,4.1,0,0,1,2.047,2.64,7.178,7.178,0,0,1-.571,6.006,9.388,9.388,0,0,1-5.5,4.864c.618-1.476,1.434-2.869,1.988-4.371a29.734,29.734,0,0,0,1.44-11.114" transform="translate(-558.895 -519.531)" fill="#f09a6f"/>
          <path id="Trazado_1051195" data-name="Trazado 1051195" d="M67.182,1062.305c1.687,1.977,4.142,3.581,6.214,5.156a8.956,8.956,0,0,0,2.37,1.612,12.714,12.714,0,0,0,2.98,2.125l.629-.011,1.162,15.977a2.839,2.839,0,0,1-.459.283,9.2,9.2,0,0,1-4.789-.238c-1.31.774-5.632.525-7.181.16a8.786,8.786,0,0,1-5.5-4.2c-2.176-3.73-.021-8.167,1.365-11.793a84.132,84.132,0,0,0,3.208-9.076" transform="translate(-38.721 -666.862)" fill="#f5af89"/>
          <path id="Trazado_1051196" data-name="Trazado 1051196" d="M98.715,1080.485a12.711,12.711,0,0,0,2.98,2.125l.629-.011,1.162,15.977a2.847,2.847,0,0,1-.459.283,9.2,9.2,0,0,1-4.789-.238c.635-2.922,1.325-5.755,1.767-8.718a10.837,10.837,0,0,0,.173-3.976l-.076-.268c-.439-1.612-1.581-3.533-1.387-5.174" transform="translate(-61.669 -678.275)" fill="#f09a6f"/>
          <path id="Trazado_1051197" data-name="Trazado 1051197" d="M304.57,1073.123l.58.168a78.86,78.86,0,0,0,8.663-5.011,20.024,20.024,0,0,0,3.74-2.855l3.115,8.919c1.19,3.67,2.667,7.553.865,11.283a8.089,8.089,0,0,1-5.142,4.184l-.17.052a17.386,17.386,0,0,1-3.278-.108c-3.326-.011-6.865.4-10.157-.052.783-5.435.594-11.242,1.784-16.58" transform="translate(-190.074 -668.821)" fill="#f5af89"/>
          <path id="Trazado_1051198" data-name="Trazado 1051198" d="M367.872,1069.165c1.569,1.884,5.235,3.335,7.495,4.333a9.165,9.165,0,0,0,2.465.919,1.011,1.011,0,0,0,.389-.03c1.237,1.016,3.49,1.284,5.04,1.612l.769-.287a87.335,87.335,0,0,1,1.058,9.906,60.257,60.257,0,0,1,.577,6.317,1.952,1.952,0,0,1-.775.372,5.233,5.233,0,0,1-3.613-.443c-1.058.811-5.287.622-6.7.447l-.518-.1a13.588,13.588,0,0,1-7.991-4.59c-4.01-4.981,1.186-12.9,1.783-18.266Z" transform="translate(-228.855 -671.169)" fill="#f5af89"/>
          <path id="Trazado_1051199" data-name="Trazado 1051199" d="M401.25,1083.2c1.237,1.016,3.49,1.284,5.04,1.612l.769-.287a87.334,87.334,0,0,1,1.058,9.906,60.275,60.275,0,0,1,.577,6.317,1.956,1.956,0,0,1-.775.372,5.234,5.234,0,0,1-3.613-.443,8.389,8.389,0,0,0-.5-2.5l-.741-3.667-1.325-8.037c-.181-1.105-.21-2.181-.492-3.272" transform="translate(-251.884 -679.976)" fill="#f09a6f"/>
          <path id="Trazado_1051200" data-name="Trazado 1051200" d="M604.393,1130.245c.951.67,2.228.45,3.353.45,2.634,0,5.627-.316,8.216.082a1.008,1.008,0,0,0,.413.007,12.659,12.659,0,0,0,2.074,2.959,16.881,16.881,0,0,1,3.085,8.953c.588,4.612.183,9.734.184,14.406-3.057.011-18.127.558-19.779-.3.42-.491.4-2.528.471-3.246l.987-11.1Z" transform="translate(-377.866 -709.512)" fill="#0196ea"/>
          <path id="Trazado_1051201" data-name="Trazado 1051201" d="M606.85,1130.245c.951.67,2.228.45,3.353.45,2.634,0,5.626-.316,8.215.082a1.008,1.008,0,0,0,.413.007,12.659,12.659,0,0,0,2.074,2.959,16.883,16.883,0,0,1,3.085,8.953,2.746,2.746,0,0,1-.593.179,28.034,28.034,0,0,1-4.263.067l-8.471-.011a20.8,20.8,0,0,1-4.142-.007,3.692,3.692,0,0,1-.668-.465Z" transform="translate(-380.323 -709.512)" fill="#36b9e9"/>
          <path id="Trazado_1051202" data-name="Trazado 1051202" d="M899.782,1062.249a1.141,1.141,0,0,0,.513.13,11.357,11.357,0,0,0,2.769-.584c2.994-.8,6.822-2.2,9.008-4.46l.065.194,3.825,9.559c1.472,3.607,4.1,8.547,2.254,12.459A8.21,8.21,0,0,1,913.55,1084c-2.011.7-5.906,1.1-7.928.391l-.309.086a14.382,14.382,0,0,1-3.28.089c-1.813,0-5.854.469-7.3-.428a23.288,23.288,0,0,1,.4-4.05l1.014-8.528a19.259,19.259,0,0,0,.34-2.866l.737-6.042.155.06a3.241,3.241,0,0,0,2.4-.461" transform="translate(-561.656 -663.742)" fill="#f5af89"/>
          <path id="Trazado_1051203" data-name="Trazado 1051203" d="M899.643,1070.937l.155.06a3.242,3.242,0,0,0,2.4-.461l-.013.171c-.055,1.616,1.237,3.637,1.809,5.189a27.921,27.921,0,0,0-4.842,4.1l-.587-.149a19.24,19.24,0,0,0,.34-2.866Z" transform="translate(-564.073 -672.029)" fill="#f09a6f"/>
          <path id="Trazado_1051204" data-name="Trazado 1051204" d="M298.316,1130.645c3.292.45,6.832.041,10.157.052a17.356,17.356,0,0,0,3.278.108l.112.108c.94.856,2.156,1.3,3.144,2.092,2.727,2.2,4.874,6.689,5.287,10.133l.09,14.064-17.818,0a44.756,44.756,0,0,1-6.075.041,2.178,2.178,0,0,1-.826-.365l1.428-14.194Z" transform="translate(-185.604 -709.763)" fill="#f49f31"/>
          <path id="Trazado_1051205" data-name="Trazado 1051205" d="M300.724,1130.645c3.292.45,6.832.041,10.157.052a17.356,17.356,0,0,0,3.278.108l.112.108c.94.856,2.156,1.3,3.144,2.092,2.727,2.2,4.874,6.689,5.287,10.133a1.647,1.647,0,0,1-.533.156,32.777,32.777,0,0,1-4.007-.048l-10.157-.049-5.405-.026a12.814,12.814,0,0,1-2.421-.011,3.779,3.779,0,0,1-.678-.48Z" transform="translate(-188.012 -709.763)" fill="#f8cd2e"/>
          <path id="Trazado_1051206" data-name="Trazado 1051206" d="M730.7,723.525a51,51,0,0,1,6.44-3,30.292,30.292,0,0,1,19.235-.366,20.628,20.628,0,0,1,5.412,2.693c.222.146.155.1.469.155a18.435,18.435,0,0,1,13.8-4.352,19.158,19.158,0,0,1,12.775,7.281,11.592,11.592,0,0,1,1.217,1.771,22.481,22.481,0,0,1,2.209,17.519c-1.537,5.324-5.355,9.148-9.981,11.943v1.982a29.732,29.732,0,0,1-1.44,11.114c-.554,1.5-1.37,2.9-1.988,4.371l-.466.589c-3.974,7.574-11.686,14.549-19.933,17.112l-2.57.656a37.764,37.764,0,0,1-13.391.45,35.3,35.3,0,0,1-18.53-10.325c-2.249-2.109-4.133-5.113-5.875-7.65l-1.637-3.082a55.2,55.2,0,0,1-3.127-10.289l-.568-4.859.081-4.086c.929-11.365,6.4-20.584,14.966-27.838Z" transform="translate(-447.429 -451.07)" fill="#de6315"/>
          <path id="Trazado_1051207" data-name="Trazado 1051207" d="M839.088,774.73a18.261,18.261,0,0,1-5.24-2.339,18.761,18.761,0,0,1-8.025-11.689,21.766,21.766,0,0,1,3.117-16.739c-1.432,3.92-2.071,8.1-.8,12.165.814,2.6,2.051,4.779,4.542,6.07,3.454,1.791,7.389,1.488,11,.321a25.163,25.163,0,0,0,15.346-14.347c.665-1.556.828-3.422,1.591-4.867l.09-.166a22.482,22.482,0,0,1,2.209,17.519c-1.537,5.324-5.355,9.148-9.981,11.943-4.413,2.48-8.858,3.412-13.849,2.129" transform="translate(-518.087 -466.506)" fill="#be271c"/>
          <path id="Trazado_1051208" data-name="Trazado 1051208" d="M787.33,824.412c4.99,1.282,9.435.351,13.848-2.129v1.982a29.733,29.733,0,0,1-1.44,11.114c-.554,1.5-1.37,2.895-1.988,4.371l-.466.589c-3.974,7.574-11.686,14.549-19.933,17.112l-2.57.656a37.761,37.761,0,0,1-13.391.451,35.3,35.3,0,0,1-18.53-10.325c1.951-.179,4.257.5,6.227.7a38.27,38.27,0,0,0,18.257-2.818,34.994,34.994,0,0,0,16.372-14.06,57.959,57.959,0,0,0,3.614-7.647" transform="translate(-466.329 -516.189)" fill="#d84327"/>
          <path id="Trazado_1051209" data-name="Trazado 1051209" d="M387.215,1031.033a7.451,7.451,0,0,1,.756-2.732,6.432,6.432,0,0,1,3.865-3.168,13.522,13.522,0,0,1,3.361-.2l5.582,0,19.681.037h24.551c4.073-.007,8.24-.2,12.3,0a6.031,6.031,0,0,1,2.917.878,7.066,7.066,0,0,1,3.063,4.8l-1.1,11.484a31.547,31.547,0,0,0-.492,5.781l-1.347,16.185-1,12.214-.986,11.1c-.067.719-.051,2.755-.471,3.246a2.07,2.07,0,0,1-.783.309,48.539,48.539,0,0,1-6.333.011l-14.444-.041-51.643.008-8.319.007a15.016,15.016,0,0,1-2.921,0,3.777,3.777,0,0,1-.69-.5c-.527-.886-.186-12.162-.015-13.714a4.2,4.2,0,0,1,.022-.633c.436-3.436,2.237-8.547,5.057-10.725l1.2-.972.518.1c1.409.175,5.638.365,6.7-.447a5.234,5.234,0,0,0,3.613.443,1.956,1.956,0,0,0,.775-.373,60.257,60.257,0,0,0-.577-6.317,87.32,87.32,0,0,0-1.058-9.906,25.793,25.793,0,0,0-.512-5.182Z" transform="translate(-233.824 -643.371)" fill="#0359b2"/>
          <path id="Trazado_1051210" data-name="Trazado 1051210" d="M386.245,1130.145a5.232,5.232,0,0,0,3.613.443,1.949,1.949,0,0,0,.775-.372l.856,8.156a38.05,38.05,0,0,1,.31,4.389l1.544,14.119-14.075-.022c-1.757,0-5.054.5-6.507-.32-.527-.886-.186-12.161-.015-13.714a4.2,4.2,0,0,1,.022-.633c.436-3.436,2.237-8.547,5.057-10.724l1.2-.972.518.1c1.409.175,5.638.365,6.7-.447" transform="translate(-233.824 -709.449)" fill="#132a4e"/>
          <path id="Trazado_1051211" data-name="Trazado 1051211" d="M386.693,1130.145a5.232,5.232,0,0,0,3.613.443,1.949,1.949,0,0,0,.775-.372l.856,8.156a38.071,38.071,0,0,1,.31,4.389c-1.186.6-17.23.536-19.052.063a4.2,4.2,0,0,1,.022-.633c.436-3.436,2.237-8.547,5.057-10.724l1.2-.972.518.1c1.409.175,5.638.365,6.7-.447" transform="translate(-234.272 -709.449)" fill="#3fac36"/>
          <path id="Trazado_1051212" data-name="Trazado 1051212" d="M147.739,697.925a26.053,26.053,0,0,1,13.063,2.424l3.938,2.557c1.516,1.083,3.372,2.985,5.2,3.212,12.373,1.536,25.221,1.282,37.118-2.86l.013,3.6-6.286,96.69a2.162,2.162,0,0,1-1.085.45l-8.446.255L187,798.007a48.736,48.736,0,0,0-7.054-6.337c-1.994-1.031-4.484-1.8-6.307-2.991a54.578,54.578,0,0,0-15.59-1.825l-16.987.015.057-9.356c-7.932-3.1-12.837-7.474-17.593-14.343a8.946,8.946,0,0,1-2.931-.337,10.344,10.344,0,0,0-1.667-2.75,11.427,11.427,0,0,1-1.93-4.86,6.3,6.3,0,0,1,1.278-5.032l-.748-2.858a80.447,80.447,0,0,1-3.089-12.97c-.949-8.175,1.395-16.35,9.271-20.2a14.622,14.622,0,0,1,3.361-1.183,11.437,11.437,0,0,0,2.083-.4,11.2,11.2,0,0,0,.976-2.169,23.716,23.716,0,0,1,2.962-4.713,20.873,20.873,0,0,1,14.645-7.78" transform="translate(-71.715 -438.093)" fill="#132a4e"/>
          <path id="Trazado_1051213" data-name="Trazado 1051213" d="M125.115,851.052a10.345,10.345,0,0,0-1.667-2.75,11.426,11.426,0,0,1-1.93-4.86,6.3,6.3,0,0,1,1.278-5.032,44.711,44.711,0,0,0,5.251,12.979,8.946,8.946,0,0,1-2.931-.337" transform="translate(-76.233 -526.313)" fill="#f09a6f"/>
          <path id="Trazado_1051214" data-name="Trazado 1051214" d="M186.352,911.6l.222.064a33.206,33.206,0,0,0,10.449.959,30.172,30.172,0,0,0,6.273-1.146l-.014,9.464-16.987.016Z" transform="translate(-116.946 -572.18)" fill="#f5af89"/>
          <path id="Trazado_1051215" data-name="Trazado 1051215" d="M187.011,911.979a33.206,33.206,0,0,0,10.449.959c-.019.76.093,1.163-.372,1.782a37.773,37.773,0,0,1-10.1.516Z" transform="translate(-117.384 -572.495)" fill="#de6315"/>
          <path id="Trazado_1051216" data-name="Trazado 1051216" d="M254.1,833.788c1.495.465,2.91.8,3.667,2.322,1.051,2.112.343,5.167-.445,7.285a19.712,19.712,0,0,1-2.21,4.187,14.189,14.189,0,0,0-1.383,1.8c-.321.881.006,3.4.008,4.423l-.007,16.386.09,6.8c-1.994-1.031-4.484-1.8-6.307-2.992a54.589,54.589,0,0,0-15.59-1.825l.014-9.464c3.024-.939,5.216-2.511,7.8-4.245a38.707,38.707,0,0,0,7.426-8.932l6.055-13.366Z" transform="translate(-145.592 -523.411)" fill="#f5af89"/>
          <path id="Trazado_1051217" data-name="Trazado 1051217" d="M278.912,840.169c.738.7,1.267,1.023,1.3,2.136.085,3.2-2.186,7.74-4.427,9.963a3.633,3.633,0,0,1-2.924,1.267Z" transform="translate(-171.286 -527.417)" fill="#f09a6f"/>
          <path id="Trazado_1051218" data-name="Trazado 1051218" d="M276.315,877.507l.268-.084a11.661,11.661,0,0,0,3.3-1.754l.011,13.7a54.163,54.163,0,0,0,.132,7.111l.09,6.8c-1.994-1.031-4.484-1.8-6.307-2.991Z" transform="translate(-171.883 -549.702)" fill="#fefefe"/>
          <path id="Trazado_1051219" data-name="Trazado 1051219" d="M239.738,887.854a14.434,14.434,0,0,0,3.628-.029,6.731,6.731,0,0,0,5.245-4.227,12.72,12.72,0,0,1,1.307-2.856l.108-.133-2.507,22.78a54.58,54.58,0,0,0-15.59-1.825l.014-9.464c3.024-.939,5.216-2.511,7.8-4.245" transform="translate(-145.592 -552.802)" fill="#0359b2"/>
          <path id="Trazado_1051220" data-name="Trazado 1051220" d="M292.623,741.291c-.786-4.83-1.572-8.282-4.151-12.547a73.314,73.314,0,0,0,17.152-2.357,58.8,58.8,0,0,0,8.46-2.815c1.018-.441,1.8-.594,2.366-1.563l-6.286,96.69a2.16,2.16,0,0,1-1.085.45l-8.446.255-4.259-6.249a48.748,48.748,0,0,0-7.054-6.337l-.09-6.8.007-16.386c0-1.018-.328-3.542-.008-4.423a14.187,14.187,0,0,1,1.383-1.8,19.712,19.712,0,0,0,2.21-4.187c.788-2.117,1.5-5.173.445-7.285-.757-1.52-2.172-1.857-3.667-2.322a8.19,8.19,0,0,1,.3-1.306,46.626,46.626,0,0,0,2.633-12.147c.223-2.972.082-5.9.089-8.875" transform="translate(-181.088 -453.242)" fill="#0359b2"/>
          <path id="Trazado_1051221" data-name="Trazado 1051221" d="M293.661,753.1l.066-.16a27.978,27.978,0,0,0,.806-3.7l1.924-6.66a5.81,5.81,0,0,1,.668-1.753L297.478,799l-.019,17.517c.005,2.7.367,5.808-.047,8.446a48.745,48.745,0,0,0-7.054-6.337l-.09-6.8.007-16.386c0-1.018-.328-3.542-.008-4.423a14.178,14.178,0,0,1,1.383-1.8,19.714,19.714,0,0,0,2.21-4.188c.788-2.117,1.5-5.173.445-7.285-.757-1.52-2.172-1.857-3.667-2.322a8.2,8.2,0,0,1,.3-1.306,46.625,46.625,0,0,0,2.633-12.146c.223-2.972.082-5.9.089-8.875" transform="translate(-182.126 -465.053)" fill="#002975"/>
          <path id="Trazado_1051222" data-name="Trazado 1051222" d="M128.926,936.893a54.58,54.58,0,0,1,15.59,1.825c1.823,1.194,4.313,1.961,6.307,2.991a48.73,48.73,0,0,1,7.054,6.337l4.259,6.249,8.446-.255c.245,1.8.019,3.8.722,5.467l.106.268.07.158a4.885,4.885,0,0,0-1.374,2.2l-.047.242-.1.629a8.524,8.524,0,0,1-3.171.112c.876,1.932,1.925,4.728,3.322,6.3a8.889,8.889,0,0,0,1.384,2.9c3.169-.011,6.882.361,9.977-.194a4.588,4.588,0,0,0,2.87-.13c-.192,1.805-1.565,3.83-2.332,5.48l-2.615,6.183-.438.242a21.977,21.977,0,0,1-6.74-.175l-2.145,1.013a20.015,20.015,0,0,1-3.74,2.855,78.821,78.821,0,0,1-8.663,5.01l-.58-.167c-1.19,5.338-1,11.145-1.784,16.58l-1.222,12.035-1.428,14.194a2.426,2.426,0,0,1-.57.447,13,13,0,0,1-2.794-.015l-10.661-.018-52.023.022-2.2-27.245-1.162-15.977-.629.011a12.718,12.718,0,0,1-2.98-2.125,8.956,8.956,0,0,1-2.37-1.612c-2.072-1.575-4.528-3.179-6.214-5.156-.977-.287-2.45-2.193-3.205-2.959l9.138-20.2c2.892-5.765,6.353-12.027,11-16.584,6.687-6.55,15.156-6.969,23.949-6.922Z" transform="translate(-42.591 -588.133)" fill="#0359b2"/>
          <path id="Trazado_1051223" data-name="Trazado 1051223" d="M128.926,936.893a54.58,54.58,0,0,1,15.59,1.825c1.823,1.194,4.313,1.961,6.307,2.991a48.73,48.73,0,0,1,7.054,6.337l4.259,6.249,8.446-.255c.245,1.8.019,3.8.722,5.467l.106.268.07.158a4.885,4.885,0,0,0-1.374,2.2l-.047.242-.1.629a8.524,8.524,0,0,1-3.171.112c.876,1.932,1.925,4.728,3.322,6.3a8.889,8.889,0,0,0,1.384,2.9c3.169-.011,6.882.361,9.977-.194a4.588,4.588,0,0,0,2.87-.13c-.192,1.805-1.565,3.83-2.332,5.48l-2.615,6.183-.438.242a21.977,21.977,0,0,1-6.74-.175l-2.145,1.013a20.015,20.015,0,0,1-3.74,2.855,78.821,78.821,0,0,1-8.663,5.01l-.58-.167a23,23,0,0,1,.378-4.56c.448-4.035,1.233-8.424,1.1-12.474a5.858,5.858,0,0,0-1.976-4.266,5.069,5.069,0,0,0-2.856-1.314c-3.162-.3-6.495-.093-9.68-.1l-18.238-.015-24.761-.015-12.641.03a6.263,6.263,0,0,0-4.653,2.148,6.932,6.932,0,0,0-1.521,3.093,28.034,28.034,0,0,0,.174,6.432l.83,11.06-.629.011a12.718,12.718,0,0,1-2.98-2.125,8.956,8.956,0,0,1-2.37-1.612c-2.072-1.575-4.528-3.179-6.214-5.156-.977-.287-2.45-2.193-3.205-2.959l9.138-20.2c2.892-5.765,6.353-12.027,11-16.584,6.687-6.55,15.156-6.969,23.949-6.922Z" transform="translate(-42.591 -588.133)" fill="#36b9e9"/>
          <path id="Trazado_1051224" data-name="Trazado 1051224" d="M321.139,983.218l8.446-.255c.245,1.8.019,3.8.722,5.467l.106.267.07.158a4.884,4.884,0,0,0-1.374,2.2l-.047.242-.1.629a8.529,8.529,0,0,1-3.171.112Z" transform="translate(-201.595 -617.056)" fill="#f5af89"/>
          <path id="Trazado_1051225" data-name="Trazado 1051225" d="M356.581,1031.325a4.587,4.587,0,0,0,2.87-.13c-.192,1.805-1.565,3.831-2.332,5.479l-2.615,6.183-.438.242a21.973,21.973,0,0,1-6.74-.175l-.005-.108,3.089-2.907-3.613-8.246,6.275-.022a10.561,10.561,0,0,0,3.364-.257Z" transform="translate(-217.701 -647.333)" fill="#132a4e"/>
          <path id="Trazado_1051226" data-name="Trazado 1051226" d="M711.677,918.968a37.762,37.762,0,0,0,13.391-.45l.239,4.818c.326.917.538,1.783,1.518,2.186,1.885.776,4.159.189,6.069.653,5.66.5,10.924,1.127,15.691,4.552a29.007,29.007,0,0,1,5.035,4.988c3.89,4.666,6.629,10.174,9.071,15.7l6.835,16.941a6.175,6.175,0,0,1-2.493,1.839c-2.187,2.256-6.015,3.656-9.008,4.46a11.354,11.354,0,0,1-2.77.584,1.141,1.141,0,0,1-.513-.13,3.242,3.242,0,0,1-2.4.462l-.155-.06-.737,6.042a19.245,19.245,0,0,1-.34,2.866l-1.014,8.528a23.3,23.3,0,0,0-.4,4.05c1.45.9,5.491.424,7.3.428a14.381,14.381,0,0,0,3.28-.089l.309-.085c1.465,3.049,3.625,5.934,5.353,8.874a12.59,12.59,0,0,1,1.831,3.83l.007,13.93-.263.2-.62-.227-.268.145c-1,.5-3.629.2-4.787.2l-14,.019-53.756-.022-11.4.015c-2.2.015-4.5.16-6.7.015a4.18,4.18,0,0,1-1.234-.317c-1.228.812-9.106.32-11.074.313l.066-14.309c.326-3.268,3.926-7.821,6.183-10.058a27.483,27.483,0,0,0,2.815-2.576l.093-.126a4.428,4.428,0,0,1-2.168-.316c-2.777-.927-3.763-2.766-5.019-5.241a8.644,8.644,0,0,1-.266-2.371l-.665-4.836c.439-.283.384-.726.482-1.214,1.094-5.491,2.867-10.773,4.169-16.2a9.5,9.5,0,0,1-2.461-1.709c1.236-2.65,2.164-5.468,3.24-8.19,2.873-7.262,6.044-15.007,11.027-21.1,2.515-3.077,5.705-6.021,9.443-7.5,4.018-1.587,8.651-1.875,12.919-2.306,1.636-.443,3.625-.061,5.346-.494a3.23,3.23,0,0,0,2.295-1.86,23.911,23.911,0,0,0,.511-4.846" transform="translate(-416.617 -576.6)" fill="#0359b2"/>
          <path id="Trazado_1051227" data-name="Trazado 1051227" d="M663.734,1164.025l.137.074c1.358.667,4.377.294,5.924.294l14.675-.011-.005,13.837-6.425-.015a11.349,11.349,0,0,1-3.3-.182c-1.228.812-9.106.32-11.074.313Z" transform="translate(-416.617 -730.717)" fill="#002975"/>
          <path id="Trazado_1051228" data-name="Trazado 1051228" d="M893.878,1129.335c1.45.9,5.491.424,7.3.428a14.382,14.382,0,0,0,3.28-.089l.309-.086c1.465,3.049,3.625,5.934,5.353,8.875a12.588,12.588,0,0,1,1.831,3.83l.007,13.93-.263.2-.62-.227c-1.362.506-3.583.175-5.088.171l-12.514.06-.066-9.105a20.36,20.36,0,0,1,.231-5.23,23.09,23.09,0,0,1-.068-4.251c.012-2.427-.474-6.287.3-8.5" transform="translate(-560.805 -708.94)" fill="#002975"/>
          <path id="Trazado_1051229" data-name="Trazado 1051229" d="M894.007,1129.335c1.45.9,5.491.424,7.3.428a14.381,14.381,0,0,0,3.28-.089l.309-.086c1.465,3.049,3.625,5.934,5.353,8.875a12.591,12.591,0,0,1,1.831,3.83c-1.98.409-17.04.454-18.314-.2a23.09,23.09,0,0,1-.068-4.251c.012-2.427-.474-6.287.3-8.5" transform="translate(-560.933 -708.94)" fill="#0a7bda"/>
          <path id="Trazado_1051230" data-name="Trazado 1051230" d="M671.111,1048.685c2.357,2.494,6.7,4.411,9.826,5.662a11.559,11.559,0,0,0,2.611.923,1.173,1.173,0,0,0,.565-.071l.531.32.621-.186.208,6.7.369,16.952-7.483.023a15.087,15.087,0,0,1-3.78-.145,4.433,4.433,0,0,1-2.168-.317c-2.777-.927-3.763-2.766-5.019-5.241a8.654,8.654,0,0,1-.267-2.372l-.665-4.835c.439-.283.384-.726.482-1.213,1.094-5.491,2.867-10.773,4.169-16.2" transform="translate(-418.369 -658.313)" fill="#f5af89"/>
          <path id="Trazado_1051231" data-name="Trazado 1051231" d="M709.58,1066.185l.531.32.621-.186.208,6.7c-1.027.793-2.657.938-3.91,1.195.865-1.973,2.712-5.68,2.568-7.843Z" transform="translate(-443.838 -669.298)" fill="#f09a6f"/>
          <path id="Trazado_1051232" data-name="Trazado 1051232" d="M717.123,918.968a37.761,37.761,0,0,0,13.391-.45l.239,4.818c.326.917.538,1.783,1.518,2.186,1.885.776,4.159.189,6.069.653,5.66.5,10.924,1.127,15.691,4.552a29,29,0,0,1,5.035,4.988c3.89,4.666,6.629,10.174,9.071,15.7l6.835,16.941a6.176,6.176,0,0,1-2.493,1.839c-2.187,2.256-6.015,3.656-9.008,4.46a11.353,11.353,0,0,1-2.77.584,1.142,1.142,0,0,1-.513-.13,3.242,3.242,0,0,1-2.4.462l-.155-.06c.048-3.521,1.1-7.1,1.328-10.605a6.557,6.557,0,0,0-1.753-4.314,6.324,6.324,0,0,0-4.218-1.973l-12.491-.045-23.336.007-15.028.011c-2.51,0-5.2-.186-7.693.056a5.374,5.374,0,0,0-2.964,1.511c-3.89,3.562-2.36,8.778-2.52,13.464l-.621.186-.531-.32a1.17,1.17,0,0,1-.565.071,11.573,11.573,0,0,1-2.611-.923c-3.122-1.251-7.469-3.168-9.826-5.662a9.5,9.5,0,0,1-2.461-1.709c1.236-2.65,2.164-5.468,3.24-8.19,2.873-7.262,6.044-15.007,11.027-21.1,2.515-3.077,5.705-6.021,9.443-7.5,4.018-1.587,8.651-1.875,12.919-2.306,1.636-.443,3.625-.061,5.346-.494a3.23,3.23,0,0,0,2.295-1.86,23.894,23.894,0,0,0,.511-4.846" transform="translate(-422.062 -576.6)" fill="#d00647"/>
          <path id="Trazado_1051233" data-name="Trazado 1051233" d="M778.892,918.968a37.762,37.762,0,0,0,13.391-.45l.239,4.818c.327.917.538,1.783,1.518,2.186,1.885.776,4.159.189,6.069.653l-.835.11a3.493,3.493,0,0,0-.472.636,11.162,11.162,0,0,1-3.47,4.062c-3.727,2.534-9.5,2.933-13.846,2.056-4.658-.94-7.2-2.823-9.788-6.722l-.958-.149c1.636-.443,3.625-.061,5.345-.494a3.23,3.23,0,0,0,2.295-1.86,23.894,23.894,0,0,0,.511-4.846" transform="translate(-483.832 -576.6)" fill="#f5af89"/>
          <path id="Trazado_1051234" data-name="Trazado 1051234" d="M791.777,918.968a37.762,37.762,0,0,0,13.391-.45l.239,4.818c-.569.815-2.19.954-3.171,1.129a23.323,23.323,0,0,1-10.971-.651,23.885,23.885,0,0,0,.511-4.846" transform="translate(-496.716 -576.6)" fill="#f09a6f"/>
          <path id="Trazado_1051236" data-name="Trazado 1051236" d="M348.034,1002.512l.221-.276a4.159,4.159,0,0,0,.491-.826,5.832,5.832,0,0,1,1.424-1.622,1.757,1.757,0,0,1,1.234.431c-.41,1.143-1.684,1.757-1.929,2.941Z" transform="translate(-218.478 -627.617)" fill="#002975"/>
          <path id="Trazado_1051237" data-name="Trazado 1051237" d="M586.917,830.319a6.86,6.86,0,0,1,3.643,4.16,10.483,10.483,0,0,1-1.186,7.764,8.443,8.443,0,0,1-4.853,3.921,5.273,5.273,0,0,1-3.923-.486,5.329,5.329,0,0,1,1.052-.764,7.62,7.62,0,0,0,2.507-1.963c2.734-3.373,3.275-8.517,2.761-12.631" transform="translate(-364.469 -521.234)" fill="#f5af89"/>
          <path id="Trazado_1051238" data-name="Trazado 1051238" d="M706.633,822.47l.568,4.859a55.2,55.2,0,0,0,3.127,10.289l1.638,3.082a7.287,7.287,0,0,1-2.315-.362,10.527,10.527,0,0,1-5.555-5.165,9.478,9.478,0,0,1-.669-7.062l.114-.277c.691-1.709,1.75-2.453,3.094-3.606Z" transform="translate(-441.31 -516.306)" fill="#f5af89"/>
          <path id="Trazado_1051239" data-name="Trazado 1051239" d="M712.326,835.522a55.2,55.2,0,0,0,3.127,10.289,6.039,6.039,0,0,1-2.1-.676,4.306,4.306,0,0,1-1.845-2.843,8.5,8.5,0,0,1,.813-6.769" transform="translate(-446.435 -524.5)" fill="#ee9a80"/>
          <path id="Trazado_1051240" data-name="Trazado 1051240" d="M430.507,825.349a15.143,15.143,0,0,0,1.386,4.585,10.258,10.258,0,0,0-1.157,1.817c1.274,3.578,2.061,7.221,4.571,10.208.587.206.589.178.893.716a3.624,3.624,0,0,1-2.289.679,6.956,6.956,0,0,1-4.537-2.558,12.1,12.1,0,0,1-3.015-8.246c.185-3.2,1.894-5.137,4.148-7.2" transform="translate(-267.638 -518.114)" fill="#f5af89"/>
          <path id="Trazado_1051241" data-name="Trazado 1051241" d="M338.33,998.372a2.582,2.582,0,0,1,2.249.017l.135.085c-.813,1.269-1.746,1.168-1.717,2.992l1.441.648.6-.007a19.406,19.406,0,0,1,1.862-2.621,3.21,3.21,0,0,1,1.441.849c-.57,1.087-1.622,1.776-2.181,2.878l.367.149,2.3-2.945,9.192,4.858c-.137.514-.828,2.4-1.3,2.609a1.908,1.908,0,0,1-1.361-.03c.46.126.857.13,1.166.506l-.916,1.98-.419.093a4.589,4.589,0,0,1-2.87.13c-3.094.555-6.808.182-9.977.194a8.891,8.891,0,0,1-1.384-2.9c-1.4-1.575-2.446-4.37-3.322-6.3a8.527,8.527,0,0,0,3.171-.112l.1-.629.047-.242a4.884,4.884,0,0,1,1.374-2.2" transform="translate(-209.441 -626.571)" fill="#132a4e"/>
          <path id="Trazado_1051242" data-name="Trazado 1051242" d="M356.963,1024.265c.46.126.857.13,1.165.506l-.916,1.98-.42.093a4.588,4.588,0,0,1-2.87.13c-3.095.554-6.808.182-9.977.193a8.889,8.889,0,0,1-1.384-2.9,10.848,10.848,0,0,0,3.591.268l6.447-.015a15.114,15.114,0,0,0,4.364-.253" transform="translate(-215.043 -642.983)" fill="#fefefe"/>
          <path id="Trazado_1051243" data-name="Trazado 1051243" d="M637.822,667.716l.045.135-.058,14.912,18.708.026v8.826l-2.9,1.785-59.007.205-.033-10.75,16.657.01.043-14.821.1-.148,18.2-.006c2.57,0,5.754.37,8.252-.173" transform="translate(-373.242 -419.16)" fill="#0a7bda"/>
          <path id="Trazado_1051244" data-name="Trazado 1051244" d="M665.911,667.716l.045.135-.058,14.912-26.579.1.043-14.821.1-.148,18.2-.006c2.57,0,5.754.37,8.252-.173" transform="translate(-401.332 -419.16)" fill="#002975"/>
          <path id="Trazado_1051245" data-name="Trazado 1051245" d="M427.608,797.786c1.17-.06,2.456.589,3.475.5a15.584,15.584,0,0,0,2.627-.862,6.89,6.89,0,0,0,3.333,4.893,5.867,5.867,0,0,0,4.961.334,10.186,10.186,0,0,0,1.619-.7c1.174,1.914,2.237,3.272,4.534,3.772a6.649,6.649,0,0,0,3.663-.428c.412-.176,1.783-1.087,2.151-1.025.094.016,1,1.023,1.141,1.157a3.682,3.682,0,0,0,1.711.916l.251.079a6.163,6.163,0,0,0,4.313-.489,16.228,16.228,0,0,0,2.128-1.561,10.531,10.531,0,0,0,2.85,1.46l.26.082a7.063,7.063,0,0,0,5.382-.778l2.4-1.643a9.792,9.792,0,0,0,4.757.539l.25-.041c2.148-.387,3.258-2.14,4.649-3.593a5.631,5.631,0,0,1,.844-.876c.845-.352,2.908.143,3.892.2a15.946,15.946,0,0,0,2.652-.127c.965,1.634,1.671,3.192,1.226,5.156-.409,1.8-1.765,2.974-3.118,4.1l.515.807c.514,4.114-.027,9.258-2.761,12.631a7.619,7.619,0,0,1-2.507,1.963,5.331,5.331,0,0,0-1.052.764c-2.071,5.023-4.646,9.279-8.964,12.719a44.729,44.729,0,0,1-6.189,3.886c-4.865,2.361-9.763,3.039-14.937,1.223a5.7,5.7,0,0,1-1.932-1.022c-1.772-1.482-4.189-2.407-6.078-3.842a29.923,29.923,0,0,1-7.566-8.445,11.612,11.612,0,0,1-1.9-4.4c-.3-.537-.306-.51-.893-.715-2.51-2.988-3.3-6.63-4.571-10.209a10.262,10.262,0,0,1,1.157-1.817,15.141,15.141,0,0,1-1.386-4.585l-.253-1.058a1.506,1.506,0,0,0-.665-.562l-.908-.42a5.308,5.308,0,0,1-2.212-3.09c-.42-1.86.237-3.334,1.15-4.905" transform="translate(-267.627 -500.586)" fill="#031834"/>
          <path id="Trazado_1051246" data-name="Trazado 1051246" d="M496.976,828.151l.515.807c.514,4.114-.027,9.258-2.761,12.631a7.619,7.619,0,0,1-2.507,1.963,5.333,5.333,0,0,0-1.052.764c-2.071,5.023-4.646,9.279-8.964,12.719a44.726,44.726,0,0,1-6.19,3.886c-4.865,2.361-9.763,3.039-14.936,1.223a5.691,5.691,0,0,1-1.932-1.022c-1.772-1.482-4.189-2.407-6.078-3.842a29.92,29.92,0,0,1-7.566-8.445,11.615,11.615,0,0,1-1.9-4.4c-.3-.537-.306-.51-.893-.715-2.51-2.988-3.3-6.63-4.571-10.209a10.265,10.265,0,0,1,1.157-1.817c.7.952,2.251,1.226,2.755,1.975a7.579,7.579,0,0,1,.289,1.461,36.416,36.416,0,0,0,1.031,4.15c2.982,9.091,9.443,18.407,19.615,19.948,6.717,1.018,13.367.115,18.937-4.043a28.318,28.318,0,0,0,8.438-11,101.048,101.048,0,0,0,4.094-9.879c.561-1.819.569-3.851,1.2-5.584Z" transform="translate(-275.043 -519.873)" fill="#de6315"/>
          <path id="Trazado_1051247" data-name="Trazado 1051247" d="M424.6,735.508l-1.353-1.282a6.351,6.351,0,0,1-1.707-4.282,8.07,8.07,0,0,1,2.011-4.672,10.429,10.429,0,0,0,.94-1.027,11.9,11.9,0,0,0-.375-1.18c-.807-2.718-.461-5.278,1.794-7.159a7.286,7.286,0,0,1,2.655-1.2c.1-.911-.147-1.785-.073-2.692a5.8,5.8,0,0,1,2.29-3.945c1.7-1.3,3.3-1.215,5.279-1.155a2.819,2.819,0,0,0,.417-.033,1.012,1.012,0,0,0,.087-.327,6.389,6.389,0,0,1,3.026-4.227,6.859,6.859,0,0,1,5.265-.744l1.047.359a2.989,2.989,0,0,0,.63-.843,6.229,6.229,0,0,1,3.794-2.581,7.26,7.26,0,0,1,5.852,1.045l.148.1a7.964,7.964,0,0,1,6.546-1.174,6.5,6.5,0,0,1,3.625,2.39l.465.577.351-.1a8.772,8.772,0,0,1,6.567.478,6.114,6.114,0,0,1,2.341,2.233c.185.335.749,2.086.918,2.2.119.08,1.919-.1,2.255-.066a6.557,6.557,0,0,1,5.385,4.647c.15.615.179,1.233.383,1.837l.216.08a2.992,2.992,0,0,1,1.829,1.765,7.7,7.7,0,0,1,.234,3.648l.8.322a4.529,4.529,0,0,1,2.558,2.379,5.446,5.446,0,0,1,.128,4.286,9.145,9.145,0,0,1-1.8,2.6l.278.234a4.917,4.917,0,0,1,2.136,3.791,5.314,5.314,0,0,1-1.161,3.96,8.982,8.982,0,0,1-1.943,1.59,15.933,15.933,0,0,1-2.652.127c-.984-.061-3.047-.556-3.892-.2a5.629,5.629,0,0,0-.844.876c-1.392,1.453-2.5,3.205-4.649,3.593l-.25.041a9.793,9.793,0,0,1-4.757-.539l-2.4,1.643a7.062,7.062,0,0,1-5.382.778l-.26-.081a10.532,10.532,0,0,1-2.85-1.46,16.228,16.228,0,0,1-2.128,1.561,6.163,6.163,0,0,1-4.313.489l-.251-.078a3.683,3.683,0,0,1-1.711-.916c-.144-.135-1.048-1.141-1.141-1.157-.369-.062-1.74.849-2.151,1.024a6.65,6.65,0,0,1-3.663.428c-2.3-.5-3.36-1.858-4.534-3.772a10.177,10.177,0,0,1-1.619.7,5.866,5.866,0,0,1-4.961-.334,6.889,6.889,0,0,1-3.333-4.893,15.59,15.59,0,0,1-2.627.862c-1.019.086-2.3-.563-3.475-.5" transform="translate(-264.62 -438.308)" fill="#132a4e"/>
          <path id="Trazado_1051248" data-name="Trazado 1051248" d="M414.067,916.385A5.692,5.692,0,0,0,416,917.407c5.173,1.816,10.072,1.138,14.937-1.223.484,3.158,1.175,6.211,3.1,8.844,3.579.006,7.547-.314,11.075.213,4.839.722,9.109,3.655,12.5,7.046,3.958,3.959,6.7,8.58,9.386,13.446l11.181,21.353a19.441,19.441,0,0,1-2.955,4.069A60.85,60.85,0,0,1,477,978.09c.258,1.251.424,3.834,1.047,4.828l.665,4.836a8.649,8.649,0,0,0,.267,2.371,7.505,7.505,0,0,1-2.76,5.133c-1.857,1.437-4.757,1.645-7.036,1.336a3.429,3.429,0,0,1-.719-.186,1.008,1.008,0,0,1-.413-.007c-2.589-.4-5.582-.078-8.216-.082-1.124,0-2.4.22-3.353-.45l1.347-16.185a31.542,31.542,0,0,1,.492-5.781l1.1-11.484a7.066,7.066,0,0,0-3.062-4.8,6.029,6.029,0,0,0-2.917-.879c-4.061-.2-8.228,0-12.3,0H416.6l-19.681-.037-5.582,0a13.528,13.528,0,0,0-3.361.2,6.432,6.432,0,0,0-3.865,3.168,7.45,7.45,0,0,0-.756,2.732l1.272,11.7a25.793,25.793,0,0,1,.512,5.182l-.769.287c-1.55-.328-3.8-.6-5.04-1.612a1.014,1.014,0,0,1-.389.03,9.159,9.159,0,0,1-2.465-.92c-2.259-1-5.925-2.449-7.494-4.333a2.227,2.227,0,0,1-.669-.216,3.969,3.969,0,0,1-1.983-2.014l.438-.242,2.615-6.183c.768-1.649,2.14-3.674,2.332-5.48l.42-.093.916-1.98c-.308-.376-.706-.38-1.165-.506a1.907,1.907,0,0,0,1.361.03c.468-.208,1.158-2.1,1.3-2.609,1.457-1.556,2.557-4.817,3.483-6.757,2.551-5.341,5.4-10.7,9.607-14.94a23.773,23.773,0,0,1,13.348-6.832,84.614,84.614,0,0,1,10.31-.279c1.912-2.58,2.324-5.564,2.782-8.644" transform="translate(-229.961 -575.135)" fill="#3fac36"/>
          <path id="Trazado_1051249" data-name="Trazado 1051249" d="M613.686,1040.385c.77,2.312,1.711,4.542,2.674,6.782a15.539,15.539,0,0,0,3.036,5.271c1.507.115,4.067-.138,5.43.32a8,8,0,0,1-2.727,1.861c-2.608,1.348-6.221,2.915-9.164,3.205a1.842,1.842,0,0,1-.844-.175,31.55,31.55,0,0,1,.492-5.781Z" transform="translate(-384.218 -653.102)" fill="#139a1a"/>
          <path id="Trazado_1051250" data-name="Trazado 1051250" d="M383.352,1041.405l1.272,11.7a25.79,25.79,0,0,1,.512,5.182l-.769.287c-1.55-.328-3.8-.6-5.04-1.612a1.006,1.006,0,0,1-.389.03,9.158,9.158,0,0,1-2.465-.919c-2.259-1-5.925-2.45-7.494-4.333a2.227,2.227,0,0,1-.669-.216,3.97,3.97,0,0,1-1.983-2.014l.438-.242.614.447,7.625-.007c1.443-.007,3.558.179,4.847-.551,2.234-1.269,2.761-5.446,3.5-7.75" transform="translate(-229.961 -653.742)" fill="#139a1a"/>
          <path id="Trazado_1051251" data-name="Trazado 1051251" d="M489.883,916.385a5.693,5.693,0,0,0,1.932,1.022c5.173,1.816,10.072,1.138,14.937-1.223.484,3.158,1.175,6.211,3.1,8.844H487.1c1.912-2.58,2.324-5.564,2.782-8.644" transform="translate(-305.777 -575.135)" fill="#f5af89"/>
          <path id="Trazado_1051252" data-name="Trazado 1051252" d="M627.269,1063.855a60.867,60.867,0,0,1,1.779,6.935c.258,1.251.424,3.834,1.047,4.828l.665,4.836a8.649,8.649,0,0,0,.266,2.371,7.5,7.5,0,0,1-2.759,5.133c-1.857,1.437-4.757,1.645-7.036,1.336a3.39,3.39,0,0,1-.719-.186,1,1,0,0,1-.413-.007c-2.589-.4-5.582-.078-8.216-.082-1.124,0-2.4.22-3.352-.45l1.347-16.186a1.847,1.847,0,0,0,.844.175c2.942-.291,6.555-1.858,9.164-3.205a8,8,0,0,0,2.727-1.861,1.135,1.135,0,0,0,.586-.067,11.354,11.354,0,0,0,4.07-3.57" transform="translate(-382.005 -667.835)" fill="#f09a6f"/>
          <path id="Trazado_1051254" data-name="Trazado 1051254" d="M179.028,319.094l-5.771-.042L173.15,307.3c-.01-1.157-.3-3.294.108-4.327l5.5.023.6,5.185a15.319,15.319,0,0,1,.469,4.519Z" transform="translate(-108.627 -190.195)" fill="#f8cd2e"/>
          <path id="Trazado_1051255" data-name="Trazado 1051255" d="M807.123,171.477l16.729-.042-.018,15.3-16.7-.025Z" transform="translate(-506.67 -107.62)" fill="#d84327"/>
          <path id="Trazado_1051256" data-name="Trazado 1051256" d="M363.989,160.556l16.879-.067-.049,16.11-16.9,0Z" transform="translate(-228.448 -100.748)" fill="#d84327"/>
          <path id="Trazado_1051257" data-name="Trazado 1051257" d="M320.793,356.3c.641.414,1.111,3.165,1.46,4.033a35.422,35.422,0,0,0,3.388,6.069c.909,1.389,2.188,2.979,2.521,4.617a5.328,5.328,0,0,1-1.084,4.255,8.324,8.324,0,0,1-5.72,3.065c-2.531.317-6.3-.862-8.446.331a16.751,16.751,0,0,1-3.74,1.372,14.765,14.765,0,0,1-4.777.475l-1.917-1.917-1.146-.727a23.951,23.951,0,0,1-.665-4.391c3.945.068,7.167-.158,10.632-2.335,5.487-3.448,8.047-8.755,9.493-14.848" transform="translate(-188.744 -223.667)" fill="#132a4e"/>
          <path id="Trazado_1051258" data-name="Trazado 1051258" d="M198.67,126.2l16.346-.011L215,143.637l-16.34-.023Z" transform="translate(-124.71 -79.214)" fill="#f8cd2e"/>
          <path id="Trazado_1051259" data-name="Trazado 1051259" d="M616.578,151.791l16.671-.006,0,17.243-16.641,0Z" transform="translate(-387.056 -95.285)" fill="#f8cd2e"/>
          <path id="Trazado_1051261" data-name="Trazado 1051261" d="M178.529,241.284l.019.175c.108,1.551-.771,3.367-1.069,4.92-1.091,5.687,1.7,11.318,5.832,15.125.874.805,2.648,1.748,3.288,2.634.441.612.458,2.4.652,3.2.341,1.407.861,2.745,1.249,4.137l-.178.427a7.905,7.905,0,0,0-2.379-1.518,5.865,5.865,0,0,0-4.661.274,6.154,6.154,0,0,0-3.2,3.88,8.685,8.685,0,0,0,.548,6.766,6.8,6.8,0,0,0,4.5,3.63,5.8,5.8,0,0,0,4.07-.474,46.192,46.192,0,0,0,13.538,13.381l.02,5.488-.237.123a32.344,32.344,0,0,0-4.248,3.226,13.425,13.425,0,0,1-11.491,2.01c-2.129-.6-4.173-2.354-6.321-2.535a5.222,5.222,0,0,0-2.875.8c-3.671,1.805-6.113,1.161-9.325-1.16l-2.059-1.742a8.119,8.119,0,0,1-2.421-6.12,8.523,8.523,0,0,1,2.121-.882,10.766,10.766,0,0,0,2.318-1.377c4.247-3.292,5.161-10.337,5.738-15.3l.806-6.389a15.32,15.32,0,0,0-.469-4.519l-.6-5.185a39.5,39.5,0,0,1,6.839-22.989" transform="translate(-101.556 -151.468)" fill="#031834"/>
          <path id="Trazado_1051262" data-name="Trazado 1051262" d="M172.763,329.11a6.38,6.38,0,0,1,1.316,2.414,37.626,37.626,0,0,0,2.133,4.126,36.035,36.035,0,0,0,3.115,4c-.025,6.479.079,13.418-4.95,18.33-2.452,2.4-4.887,2.6-8.118,2.943l-2.059-1.742a8.119,8.119,0,0,1-2.421-6.12,8.52,8.52,0,0,1,2.121-.882,10.769,10.769,0,0,0,2.318-1.377c4.247-3.292,5.161-10.337,5.738-15.3Z" transform="translate(-101.556 -206.6)" fill="#132a4e"/>
          <path id="Trazado_1051263" data-name="Trazado 1051263" d="M256.192,258.7l.489-.321c1.525,1.165,2.093,2.782,2.781,4.506l2.451,7.034c.808,2.546,1.713,5.1,2.371,7.69.414,1.631.561,3.315,1.028,4.933a35.119,35.119,0,0,1-3.613,5.824l-.362-.08c-.466,2.14-.45,4.426-.986,6.543-1.446,6.093-4.006,11.4-9.493,14.848-3.465,2.177-6.687,2.4-10.632,2.335-4.646.118-8.66-1.343-12.745-3.443a46.193,46.193,0,0,1-13.538-13.381,5.8,5.8,0,0,1-4.07.474,6.8,6.8,0,0,1-4.5-3.63,8.685,8.685,0,0,1-.548-6.766,6.154,6.154,0,0,1,3.2-3.88,5.865,5.865,0,0,1,4.661-.274,7.9,7.9,0,0,1,2.379,1.518l2.048,3.281a65.327,65.327,0,0,0,4.286-9.574c7.212-.585,14.817-1.633,21.59-4.29,4.767-1.869,9-4.7,11.474-9.281.7-1.3,1.131-2.716,1.725-4.068" transform="translate(-128.302 -162.198)" fill="#f5af89"/>
          <path id="Trazado_1051264" data-name="Trazado 1051264" d="M317.819,344.941a15.453,15.453,0,0,1,1.781.038L320.647,346c.449.607.251,1.183.138,1.854-1.116-.622-2.365-1.012-3.136-2.086Z" transform="translate(-199.404 -216.528)" fill="#f09a6f"/>
          <path id="Trazado_1051265" data-name="Trazado 1051265" d="M268.71,353l-.024.044c-.168.712-.035.743.338,1.314l-.417.513-.931.017a5.691,5.691,0,0,1-.99-1.119c-.329-.561-.271-.638-.128-1.282a2.741,2.741,0,0,1,1.779-1.107,4.468,4.468,0,0,1,2.6,1.115l.082.583c-.585.332-.909.676-1.587.569Z" transform="translate(-167.26 -220.58)" fill="#ee9a80"/>
          <path id="Trazado_1051266" data-name="Trazado 1051266" d="M336.813,351.029l.549.2.084.933.415.058.851-1.026a2.138,2.138,0,0,1,1.951.686,1.97,1.97,0,0,1,.51,1.561,2.474,2.474,0,0,1-.612.949c-.511.381-1.11.105-1.7,0-.508.548-.729,1-1.505,1.084l-.531-.639.126-.116.425.029-.178-2.356a6.979,6.979,0,0,0-1.032.434l-.323.173-.288-.375c.149-.736.719-1.121,1.254-1.6" transform="translate(-210.647 -220.36)" fill="#ee9a80"/>
          <path id="Trazado_1051267" data-name="Trazado 1051267" d="M345.432,352.972a3.836,3.836,0,0,1,1.151.6,3,3,0,0,1-.141,1.954l-.514-.164a5.361,5.361,0,0,1-.5-2.393" transform="translate(-216.844 -221.58)" fill="#f5af89"/>
          <path id="Trazado_1051268" data-name="Trazado 1051268" d="M332.96,303.746a5.486,5.486,0,0,1,2.878.463,4.3,4.3,0,0,1,2.154,2.905l-.292.417-.848-.1a14.815,14.815,0,0,0-4.97-.9c-.61-.6-.529-.694-.6-1.511.471-.816.848-.889,1.678-1.275" transform="translate(-207.962 -190.669)" fill="#132a4e"/>
          <path id="Trazado_1051269" data-name="Trazado 1051269" d="M303.038,362.673a3.725,3.725,0,0,1,.664-.141,1.089,1.089,0,0,1,.068.47,8.632,8.632,0,0,1-2.861,5.482,6.937,6.937,0,0,1-4.893,1.483,7.579,7.579,0,0,1-5.542-2.648,7.43,7.43,0,0,1-1.837-5.247l.535-.072c.551,2.46,1,4.348,3.262,5.773a7.759,7.759,0,0,0,6.119.914,5.469,5.469,0,0,0,3.424-2.747,8.822,8.822,0,0,0,1.061-3.266" transform="translate(-181.178 -227.247)" fill="#d84327"/>
          <path id="Trazado_1051270" data-name="Trazado 1051270" d="M268.548,307.079l.995-.025a2.728,2.728,0,0,1,2.185,1.059,1.618,1.618,0,0,1-.063,1.319,4.292,4.292,0,0,1-.7.586,8.311,8.311,0,0,1-1.629-.023,14.107,14.107,0,0,0-3.444.267l-.286.07a7.786,7.786,0,0,1-2.9.87l-.079-.281a2.9,2.9,0,0,1,.576-1.951c1.094-1.454,3.686-1.717,5.352-1.89" transform="translate(-164.843 -192.755)" fill="#132a4e"/>
          <path id="Trazado_1051271" data-name="Trazado 1051271" d="M337.076,327.718l.1-.114a2.361,2.361,0,0,1-.09,1.543,3.866,3.866,0,0,1-1.711,2.544,2.525,2.525,0,0,1-2.1.2,3.016,3.016,0,0,1-1.453-1.454,3.93,3.93,0,0,1,.276-2.972,3.564,3.564,0,0,1,2.1-1.881,2.38,2.38,0,0,1,1.934.255l-.442.106c.755.488,1.165.6,1.353,1.55Z" transform="translate(-208.18 -204.328)"/>
          <path id="Trazado_1051272" data-name="Trazado 1051272" d="M341.784,326.723c.755.488,1.165.6,1.353,1.55l.035.22c-.459.489-.435.581-1.135.625l-.66-.707a2.009,2.009,0,0,1,.407-1.687" transform="translate(-214.277 -205.102)" fill="#fefefe"/>
          <path id="Trazado_1051273" data-name="Trazado 1051273" d="M276.771,328.283l-.153,1.091a3.959,3.959,0,0,1-1.97,2.633,2.743,2.743,0,0,1-2.226.218,3.181,3.181,0,0,1-1.739-1.914,3.88,3.88,0,0,1,.091-2.705,3.653,3.653,0,0,1,2.141-1.986,3.484,3.484,0,0,1,2.836.393,5.712,5.712,0,0,1,1.021,2.27" transform="translate(-169.795 -204.321)"/>
          <path id="Trazado_1051274" data-name="Trazado 1051274" d="M283.711,329.184a11.651,11.651,0,0,1-1.208.054,2.519,2.519,0,0,1-.966-1.522c.34-.56.56-.56,1.152-.8a5.712,5.712,0,0,1,1.021,2.27" transform="translate(-176.735 -205.222)" fill="#fefefe"/>
          <path id="Trazado_1051275" data-name="Trazado 1051275" d="M218.561,328.752a3.9,3.9,0,0,1,2.869.829,4.455,4.455,0,0,1,1.428,3.6c-.806.7-.763,1.408-1.289,2.2a7.117,7.117,0,0,1-1.187,1.22,3.433,3.433,0,0,1-2.033.029,2.5,2.5,0,0,1-1.38-1.33,4.831,4.831,0,0,1-.525-3.993,3.959,3.959,0,0,1,2.117-2.557" transform="translate(-135.736 -206.375)" fill="#f09a6f"/>
          <path id="Trazado_1051276" data-name="Trazado 1051276" d="M221.957,332.962l.092.029a3.61,3.61,0,0,1,1.7.828,2.581,2.581,0,0,1,.737,1.949c-.026.694-.367.822-.851,1.282l-1.891-.391a2.394,2.394,0,0,1-.6-1.386,2.791,2.791,0,0,1,.8-2.312" transform="translate(-138.817 -209.018)" fill="#de6315"/>
          <path id="Trazado_1051277" data-name="Trazado 1051277" d="M343.558,258.7l.489-.321c1.525,1.165,2.093,2.782,2.781,4.506l2.451,7.034c.808,2.546,1.713,5.1,2.371,7.69.414,1.631.561,3.315,1.028,4.933a35.123,35.123,0,0,1-3.613,5.824l-.362-.08a62.788,62.788,0,0,0-2.722-22.013c-.751-2.542-1.754-5.008-2.423-7.573" transform="translate(-215.668 -162.198)" fill="#031834"/>
          <path id="Trazado_1051278" data-name="Trazado 1051278" d="M290.11,361.459c2.249-.684,4.9-.1,7.209.128l6.656.545a8.823,8.823,0,0,1-1.061,3.267,5.469,5.469,0,0,1-3.424,2.747,7.759,7.759,0,0,1-6.119-.914c-2.257-1.425-2.711-3.313-3.262-5.773" transform="translate(-182.116 -226.706)" fill="#fefefe"/>
          <path id="Trazado_1051279" data-name="Trazado 1051279" d="M204.606,216.271c4.549-7.019,11.419-12.449,19.69-14.224,7.714-1.655,15.374.28,22.519,3.2a47.09,47.09,0,0,1,7.878,3.912c6.086,3.952,10.075,10.914,11.591,17.914a32.809,32.809,0,0,1-1.642,19.719c-.467-1.617-.613-3.3-1.028-4.933-.657-2.588-1.563-5.144-2.371-7.69l-2.451-7.034c-.689-1.724-1.256-3.341-2.781-4.506l-.489.321c-.594,1.351-1.023,2.767-1.725,4.068-2.476,4.585-6.708,7.412-11.474,9.281-6.773,2.656-14.378,3.7-21.59,4.29a65.331,65.331,0,0,1-4.286,9.574l-2.048-3.281.178-.427c-.388-1.391-.908-2.729-1.249-4.136-.194-.8-.21-2.586-.652-3.2-.64-.886-2.414-1.829-3.288-2.634-4.132-3.807-6.923-9.438-5.832-15.125.3-1.554,1.177-3.37,1.069-4.92Z" transform="translate(-127.633 -126.454)" fill="#132a4e"/>
        </g>
      </g>
      <g id="Grupo_1207606" data-name="Grupo 1207606" transform="translate(51.025 146.375)">
        <g id="Grupo_1207605" data-name="Grupo 1207605" clip-path="url(#clip-path-3)">
          <rect id="Rectángulo_418373" data-name="Rectángulo 418373" width="135.139" height="127.228" transform="translate(-4.182 0.12) rotate(-1.788)" fill="url(#linear-gradient)"/>
        </g>
      </g>
      <g id="Grupo_1207608" data-name="Grupo 1207608" transform="translate(0 0.005)">
        <g id="Grupo_1207607" data-name="Grupo 1207607" clip-path="url(#clip-path-2)">
          <path id="Trazado_1051281" data-name="Trazado 1051281" d="M271.535,443.117l-.515.173a2.462,2.462,0,0,1-.7-.276,23.211,23.211,0,0,1-2.883-2.518l-6.42-6.385c-.912-.96-2.616-2.311-2.964-3.571l.608-.794a24.017,24.017,0,0,0,3.937,4.547l5.977,5.772a17.867,17.867,0,0,1,2.959,3.051" transform="translate(-161.994 -269.775)" fill="#de6315"/>
          <path id="Trazado_1051282" data-name="Trazado 1051282" d="M227.459,634.467a77.5,77.5,0,0,0,7.508-13.189,24.142,24.142,0,0,1,3.425,2.966,34.76,34.76,0,0,1-6.4,12.421,17.964,17.964,0,0,1-1.234,1.367,15.387,15.387,0,0,0-4-2.413Z" transform="translate(-142.347 -390.008)" fill="#fefefe"/>
          <path id="Trazado_1051283" data-name="Trazado 1051283" d="M198.094,530.111l.631,17.39c.025,1.857.392,4.771-.171,6.53a47.249,47.249,0,0,1-8.975-9.958Z" transform="translate(-119.008 -332.778)" fill="#fcf8db"/>
          <path id="Trazado_1051284" data-name="Trazado 1051284" d="M137.149,564.539c.874,3.282,1.184,6.474,2.895,9.5,1.961,3.466,5.432,6.314,8.472,8.823,7.155,5.906,14.889,10.916,22.643,15.988l-.7,1.153a15.389,15.389,0,0,1,4,2.413c-1.278,4.112-.139,10.11.672,14.231a26.05,26.05,0,0,0-13.063-2.424l1.135-11.305.919-6.364c-7.808-5.307-16.008-10.321-22.284-17.529-3.861-4.434-5.11-8.689-4.693-14.485" transform="translate(-86.047 -354.391)" fill="#de6315"/>
          <path id="Trazado_1051285" data-name="Trazado 1051285" d="M262.2,393.208c4.084,2.1,8.1,3.561,12.745,3.443a23.945,23.945,0,0,0,.665,4.391l1.146.727,1.917,1.917a10.258,10.258,0,0,0,2.545,2.04,53.065,53.065,0,0,1-3.929,6.793l-4.726,7.661a17.87,17.87,0,0,0-2.959-3.051l-5.977-5.772a24.017,24.017,0,0,1-3.937-4.547l.153-1.2a29.773,29.773,0,0,0,2.307-4.539l-.016-.182.086-2.189Z" transform="translate(-163.018 -246.838)" fill="#fefefe"/>
          <path id="Trazado_1051286" data-name="Trazado 1051286" d="M266.319,393.208c4.084,2.1,8.1,3.561,12.745,3.443a23.945,23.945,0,0,0,.665,4.391l1.146.727-5.541,9.413-9.065-10.115-.016-.182.086-2.189Z" transform="translate(-167.14 -246.838)" fill="#f5af89"/>
          <path id="Trazado_1051287" data-name="Trazado 1051287" d="M266.319,393.208c4.084,2.1,8.1,3.561,12.745,3.443a23.945,23.945,0,0,0,.665,4.391,59.81,59.81,0,0,1-13.476-.157l.086-2.189Z" transform="translate(-167.14 -246.838)" fill="#f09a6f"/>
          <path id="Trazado_1051288" data-name="Trazado 1051288" d="M247.226,623.876l.319-.017a27.2,27.2,0,0,0,4.249-.948l7.29-1.63a11.756,11.756,0,0,1,4.2-.531,2.282,2.282,0,0,1,.7,1.664,2.86,2.86,0,0,1-1.5,1.923c-1.775.987-5.068.891-6.114,2.73l.093.723c1.976,1.45,5.774,2.109,8.162,2.9a5.941,5.941,0,0,1,2.926,1.5,3.85,3.85,0,0,1-.22,1.861c-.587.533-.659.449-1.444.4a3.388,3.388,0,0,1-.9-.193l-.959-.21c.351.342.117.216.438.277.587.111,1.122.422,1.706.571a2.4,2.4,0,0,1,1.586,1.014,3.825,3.825,0,0,1-.413,2.235c-.863.345-1.409-.154-2.26-.025a6.208,6.208,0,0,0,.959.637,1.521,1.521,0,0,1,.776.759,4.831,4.831,0,0,1-1.019,2.066,4.907,4.907,0,0,1-2.793-.108l.162.2a2.689,2.689,0,0,1,.769,1.7c-.535.6-.746.972-1.629.985a22.394,22.394,0,0,1-3.5-.511,31.674,31.674,0,0,1-6.343-1.454c-4.046-1.513-7.808-4.065-11.625-6.094a34.76,34.76,0,0,0,6.4-12.421" transform="translate(-151.181 -389.64)" fill="#f5af89"/>
          <path id="Trazado_1051289" data-name="Trazado 1051289" d="M214.894,445.729a8.875,8.875,0,0,1,5.908,4.919,39.015,39.015,0,0,1,2.94,8.575c4.062,16.393-.526,33.769.181,50.469l-11.009-8.631c.563-1.759.2-4.672.171-6.53l-.631-17.391c3.237-6.811,10.2-14.867,8.529-23.017l-.406-1.8c-.928-2.927-3.309-4.971-5.929-6.38Z" transform="translate(-133.368 -279.808)" fill="#de6315"/>
          <path id="Trazado_1051292" data-name="Trazado 1051292" d="M460.244,271.484l56.882-.006,16.053-.016a56.047,56.047,0,0,1,7.657.078,7.108,7.108,0,0,1,3.7,1.87,6.169,6.169,0,0,1,1.394,1.908l.135.269a5.035,5.035,0,0,1,.384,1.922l.1,14.688.025,26.653,0,75.738c.011,1.71.313,3.971-.392,5.555l-.128.293a6.273,6.273,0,0,1-3.509,3.178c-2.272.791-5.656.41-8.082.419l-13.772.038c-39.21,8.538-124.807,5.725-126.572-13.636-2.239-24.548-.919-71.009,0-71.682a2.347,2.347,0,0,1,1.737.932c1,1.636.165,4.259,4.9-1.008l.053-40.043,46.729-.049c.725-.5,10.916-.231,12.619-.238Z" transform="translate(-219.402 -170.348)" fill="#92baea"/>
          <path id="Trazado_1051293" data-name="Trazado 1051293" d="M691.5,511.3l11.255-.014c1.068,0,2.937-.277,3.816.3l.008,2.2c-2.133,0-14.09.408-15.018-.293Z" transform="translate(-434.09 -320.918)" fill="#fefefe"/>
          <path id="Trazado_1051294" data-name="Trazado 1051294" d="M517.282,511.2l11.307,0c.985,0,3.123-.254,3.861.271l.007,2.272-15.153.021Z" transform="translate(-324.723 -320.872)" fill="#fefefe"/>
          <path id="Trazado_1051295" data-name="Trazado 1051295" d="M691.505,397.987l11.582.01a14.709,14.709,0,0,1,2.93,0c.155.064.245.229.367.342l0,2.268-11.1-.005c-.955,0-3.012.238-3.73-.3Z" transform="translate(-434.091 -249.791)" fill="#fefefe"/>
          <path id="Trazado_1051296" data-name="Trazado 1051296" d="M518.354,398.467a1.533,1.533,0,0,1,.944-.446,29.816,29.816,0,0,1,3.914-.07l7.428,0c2.24,0,5.057-.333,7.24.016l.338.091-.041,2.3-17.032-.1a4.717,4.717,0,0,0-2.789-1.784" transform="translate(-325.396 -249.723)" fill="#fefefe"/>
          <path id="Trazado_1051297" data-name="Trazado 1051297" d="M523.821,436.446l35.867-.031-.035,2.7-25.24.017c-3.969,0-8.421.388-12.33-.121Z" transform="translate(-327.737 -273.961)" fill="#fefefe"/>
          <path id="Trazado_1051298" data-name="Trazado 1051298" d="M536.433,550.844l17.789-.055,0,2.734-18.956.029c-2.354,0-17.5.375-18.244-.263l-.028-1.977c.118-.119.194-.306.353-.357.929-.3,3.155-.015,4.233-.021Z" transform="translate(-324.54 -345.759)" fill="#fefefe"/>
          <path id="Trazado_1051299" data-name="Trazado 1051299" d="M690.919,551.008l9.839-.028h19.05l7,0a9.964,9.964,0,0,1,2.118,0c.142.047.227.2.34.293l.028,2.33-29.3-.008-6.163-.01a13.149,13.149,0,0,1-2.484,0c-.151-.037-.253-.181-.379-.271Z" transform="translate(-433.723 -345.838)" fill="#fefefe"/>
          <path id="Trazado_1051300" data-name="Trazado 1051300" d="M691.508,436.357l30.547-.006,5.586.018a8.13,8.13,0,0,1,1.766.008c.124.046.2.178.294.267l-.013,2.486-29.491-.042-6.113-.009a10.736,10.736,0,0,1-2.144,0,1.576,1.576,0,0,1-.388-.261Z" transform="translate(-434.093 -273.899)" fill="#fefefe"/>
          <path id="Trazado_1051301" data-name="Trazado 1051301" d="M522.425,319.426a10.1,10.1,0,0,1-2.675,3.5,6.077,6.077,0,0,1-4.352,1.132,6.3,6.3,0,0,1-4.317-2.51,8.176,8.176,0,0,1-.871-5.93,5.417,5.417,0,0,1,2.706-3.559,6.9,6.9,0,0,1,5.1-.73c2.2.57,3.3,2.076,4.409,3.922a20.5,20.5,0,0,1,0,4.177" transform="translate(-320.163 -195.311)" fill="#f49f31"/>
          <path id="Trazado_1051302" data-name="Trazado 1051302" d="M523.48,320.983l1.16.34a1.563,1.563,0,0,1,.664,1.273l-.813.965a3.229,3.229,0,0,1-1.995-.965,3.043,3.043,0,0,1,.983-1.613" transform="translate(-327.997 -201.499)" fill="#fefefe"/>
          <path id="Trazado_1051303" data-name="Trazado 1051303" d="M523.778,328.581c.881.332,1.054.347,1.577,1.111a2.791,2.791,0,0,1-1.081,1.574l-.526-.184a1.863,1.863,0,0,1-1.135-1.273c.172-.753.538-.81,1.165-1.228" transform="translate(-328.07 -206.268)" fill="#fefefe"/>
          <path id="Trazado_1051304" data-name="Trazado 1051304" d="M521.052,416.685c1.755-.814,45.4-.47,50.718-.482l-.061,2.863-32.068-.059-9.756.023a38.937,38.937,0,0,1-5.469-.1,3.205,3.205,0,0,0-2.006-.9,19.629,19.629,0,0,1-2.678,1.524,21.613,21.613,0,0,0,1.321-2.877" transform="translate(-326.261 -261.234)" fill="#fefefe"/>
          <path id="Trazado_1051305" data-name="Trazado 1051305" d="M554.779,530.155l11.372-.03c1.038,0,3.181-.271,3.966.261,0,.734.215,1.861-.278,2.4l-37.351.073-14.777-.056c-.5-.55-.27-1.559-.256-2.3,1.023-.636,8.325-.248,9.93-.251Z" transform="translate(-324.791 -332.743)" fill="#fefefe"/>
          <path id="Trazado_1051306" data-name="Trazado 1051306" d="M692.028,530.281l37.789.046,9.519,0c1.3,0,3.2-.241,4.421.188a10.145,10.145,0,0,1-.027,2.327l-.582.115-52.035.015a7.827,7.827,0,0,1,.1-2.534Z" transform="translate(-433.813 -332.87)" fill="#fefefe"/>
          <path id="Trazado_1051307" data-name="Trazado 1051307" d="M691.591,416.462l53.11-.056-.017,2.835-41.276-.072-8.988,0a11.065,11.065,0,0,1-2.521,0,2.092,2.092,0,0,1-.411-.265,7.689,7.689,0,0,1,.1-2.447" transform="translate(-434.051 -261.4)" fill="#fefefe"/>
          <path id="Trazado_1051308" data-name="Trazado 1051308" d="M595.781,479.143l23.731.036v6.748L595.8,486Z" transform="translate(-374.001 -300.783)" fill="#fefefe"/>
          <path id="Trazado_1051309" data-name="Trazado 1051309" d="M772.379,366.888l22.892.013-.062,7.2-22.841-.014Z" transform="translate(-484.852 -230.315)" fill="#fefefe"/>
          <path id="Trazado_1051310" data-name="Trazado 1051310" d="M772.7,478.844l23.251-.02.01,7.174L772.7,486Z" transform="translate(-485.061 -300.583)" fill="#fefefe"/>
          <path id="Trazado_1051311" data-name="Trazado 1051311" d="M537.193,479.053l1.3.005c.694.768.313,5.7.312,7.022l-22.646.041c-.659,0-.963.106-1.486-.316l-.031-6.644Z" transform="translate(-323.068 -300.727)" fill="#fefefe"/>
          <path id="Trazado_1051312" data-name="Trazado 1051312" d="M595.919,366.907l23.674-.008-.013,7.192-23.652.005Z" transform="translate(-374.087 -230.322)" fill="#fefefe"/>
          <path id="Trazado_1051313" data-name="Trazado 1051313" d="M692.146,479.024,715.631,479l-.04,6.773-.5.244-23.7.1.028-6.862Z" transform="translate(-434.02 -300.692)" fill="#fefefe"/>
          <path id="Trazado_1051314" data-name="Trazado 1051314" d="M513.146,366.718l24.9.034,0,7.015-24.884,0Z" transform="translate(-322.127 -230.208)" fill="#fefefe"/>
          <path id="Trazado_1051315" data-name="Trazado 1051315" d="M691.072,366.909l24.538-.016-.015,7.2-24.449.013Z" transform="translate(-433.82 -230.318)" fill="#fefefe"/>
          <path id="Trazado_1051316" data-name="Trazado 1051316" d="M543.34,315.57a6.658,6.658,0,0,1,3.1-3.779l11.385-.084a30.807,30.807,0,0,1,4.788.059,3.367,3.367,0,0,1,1.667,1.009c1.777,1.759,1.313,4.369,1.263,6.676-.032,1.5,0,2.7-1.137,3.83a3.411,3.411,0,0,1-1.584.912,26.622,26.622,0,0,1-5.33.111l-9.888-.023A4.488,4.488,0,0,1,544.6,322.9a5.592,5.592,0,0,1-1.256-3.149,20.506,20.506,0,0,0,0-4.177" transform="translate(-341.081 -195.632)" fill="#5eba92"/>
          <path id="Trazado_1051322" data-name="Trazado 1051322" d="M609.551,312.485l16.184-.018,31.119,0,23.053-.022,6.006,0a10.992,10.992,0,0,1,3.177.17,4.159,4.159,0,0,1,2.4,2.008c.709,1.481.774,6.464.164,7.995a3.961,3.961,0,0,1-2.344,2.187l-21.594.1-36.653-.063-15.223-.028c-1.925,0-4.666.331-6.489-.154a3.537,3.537,0,0,1-2.076-2.027c-.757-1.789-.832-6.508-.079-8.3a3.438,3.438,0,0,1,2.351-1.843" transform="translate(-380.838 -196.116)" fill="#f49f31"/>
        </g>
      </g>
      <g id="Grupo_1207612" data-name="Grupo 1207612" transform="translate(0 0.005)">
        <g id="Grupo_1207611" data-name="Grupo 1207611" clip-path="url(#clip-path-2)">
          <path id="Trazado_1051324" data-name="Trazado 1051324" d="M666.568,607.129a3.8,3.8,0,0,1-1.1-3.275,4.177,4.177,0,0,1,1.484-2.828,3.844,3.844,0,0,1,2.895-.753,3.95,3.95,0,0,1,3.332,5,5.385,5.385,0,0,1-1.148,1.878,5.087,5.087,0,0,1-2.209,1.079,4.248,4.248,0,0,1-3.254-1.1" transform="translate(-417.718 -376.797)" fill="#fefefe"/>
          <path id="Trazado_1051325" data-name="Trazado 1051325" d="M549.683,618.565l72.86-.143c.012,1.793.313,4.164-.392,5.824l-.128.307a6.391,6.391,0,0,1-3.509,3.332c-2.272.83-5.656.43-8.082.439l-13.772.04-36.643.07-.069,8.338c-2.5.544-5.682.169-8.252.173l-18.2.006-.1-.325c-.417-2.529-.109-5.563-.117-8.15l-38.008-.023-12.365.017c-2.476.011-6.233.485-8.519-.424a5.752,5.752,0,0,1-3.278-3.093l-.122-.323c-.689-1.771-.421-4.1-.412-5.985l73.639-.1a4.248,4.248,0,0,0,3.254,1.1,5.088,5.088,0,0,0,2.209-1.079" transform="translate(-295.37 -388.215)" fill="#002975"/>
          <path id="Trazado_1051326" data-name="Trazado 1051326" d="M639.439,653.414a60.458,60.458,0,0,0,.1-8.249l26.514.056-.069,8.339c-2.5.543-5.682.169-8.252.173l-18.2.006Z" transform="translate(-401.407 -405.003)" fill="#031834"/>
        </g>
      </g>
      <path id="Trazado_1051328" data-name="Trazado 1051328" d="M469.278,401.148l-.007-110.773-.006-9.3c0-1.714-.109-3.522.064-5.223a4.8,4.8,0,0,1,1.281-2.605,4.857,4.857,0,0,1,2.674-1.567,46.946,46.946,0,0,1,6.387-.1l12.161,0,43.57.006-.089,7.2c-1.7.007-11.894-.275-12.619.25l-46.729.051-.053,121.982-5.174,7.332c.442-1.81,1.279-4.559.277-6.275a2.319,2.319,0,0,0-1.737-.977" transform="translate(-294.559 -170.443)" fill="#0359b2"/>
      <path id="Trazado_1051329" data-name="Trazado 1051329" d="M383.2,453.876a11.411,11.411,0,0,1,2.928,1.929l5.456,3.72a17.9,17.9,0,0,0,3.306,2.207,3.308,3.308,0,0,1,1.364,1.879,14.109,14.109,0,0,1-.309,2.331L389.315,477.1l-9.333,14.157a25.457,25.457,0,0,1-3.927,4.955,11.9,11.9,0,0,1-5.762,2.653c-6.409,1.04-12.375-2.89-17.259-6.508l-6.074-4.843a14.868,14.868,0,0,1,.724-3.058c.5-1.8.995-3.632,1.338-5.465a16.662,16.662,0,0,0-.1-5.171,43.8,43.8,0,0,0-7.684-19.061l.151-.226a35.718,35.718,0,0,1,6.138,9.986c.5,1.264.976,2.56,1.348,3.867a6.671,6.671,0,0,0,.659,1.976c.861,1.1,2.729,2.1,3.877,2.994,2.928,2.289,5.666,4.764,8.71,6.912l5.6-8.011L375.212,462a65.611,65.611,0,0,1,5.3-6.954,4.386,4.386,0,0,1,2.691-1.17" transform="translate(-212.686 -284.917)" fill="#f49f31"/>
      <path id="Trazado_1051330" data-name="Trazado 1051330" d="M346.958,488.631a14.868,14.868,0,0,1,.724-3.058c.5-1.8.995-3.632,1.338-5.465a16.663,16.663,0,0,0-.1-5.171,43.8,43.8,0,0,0-7.684-19.061l.151-.226a35.717,35.717,0,0,1,6.138,9.986c.5,1.264.976,2.56,1.348,3.867a6.672,6.672,0,0,0,.659,1.976c.861,1.1,2.729,2.1,3.877,2.994,2.928,2.289,5.666,4.764,8.71,6.912l5.6-8.011,7.483-10.261a65.618,65.618,0,0,1,5.3-6.954l0,.345c-.053,1.343-1.844,3.634-2.574,4.786l-9.322,13.876c-1.672,2.381-4.6,5.559-5.224,8.431a5.558,5.558,0,0,0,1.517,4.739,10.673,10.673,0,0,0,6.731,3.883l.343.055c.976.141,3.138.153,3.944-.477a23.9,23.9,0,0,0,4.429-5.4l5.8-8.233,5.889-7.6c1.326-1.845,2.63-4.242,4.211-5.838a14.108,14.108,0,0,1-.309,2.331l-6.634,11.163-9.333,14.157a25.457,25.457,0,0,1-3.927,4.955,11.9,11.9,0,0,1-5.762,2.653c-6.409,1.04-12.375-2.89-17.259-6.508Z" transform="translate(-212.686 -286.03)" fill="#de6315"/>
      <path id="Trazado_1051331" data-name="Trazado 1051331" d="M470.756,385.632a21.9,21.9,0,0,1,1.946-2.561c1.2.825,2.128,1.384,2.673,2.792a7.527,7.527,0,0,0,1.194,3.925l.172.245.111.141,1.083-.955A4.717,4.717,0,0,1,480.726,391a21.945,21.945,0,0,1-.956,4.923,21.617,21.617,0,0,1-1.321,2.877,19.629,19.629,0,0,0,2.678-1.524,3.2,3.2,0,0,1,2.006.9,28.272,28.272,0,0,1-2.071,4.786l-1.738,2.561-2.779,2.665c-3.272,3.5-7.667,5.695-10.887,9.1a17.894,17.894,0,0,1-3.306-2.207l-5.456-3.72a11.412,11.412,0,0,0-2.928-1.929l.425.021c.409-.506.247-1.528.253-2.189a38.747,38.747,0,0,1,.264-4.9,28.766,28.766,0,0,1,1.992-6.329c.723-1.847,1.165-3.6,2.795-4.852a2.319,2.319,0,0,1,1.737.977c1,1.716.165,4.465-.277,6.275l5.174-7.332a39.1,39.1,0,0,0,2.573-2.979,16.624,16.624,0,0,1,1.853-2.483" transform="translate(-284.978 -240.469)" fill="#f5af89"/>
      <path id="Trazado_1051332" data-name="Trazado 1051332" d="M503.043,403.528c-1.042,2.289-5.532,10.451-7.467,11.306l-.286-.346c.662-3.676,4.354-7.18,6.3-10.332a7.625,7.625,0,0,1,1.311-1.464Z" transform="translate(-310.917 -252.786)" fill="#ee9a80"/>
      <path id="Trazado_1051333" data-name="Trazado 1051333" d="M519.032,421.238a3.2,3.2,0,0,1,2.006.9,28.277,28.277,0,0,1-2.071,4.786l-1.738,2.561-2.778,2.665c-.757-1.613,3.038-6.352,3.86-8.118a9.726,9.726,0,0,0,.721-2.789" transform="translate(-322.884 -264.428)" fill="#f09a6f"/>
      <path id="Trazado_1051334" data-name="Trazado 1051334" d="M509.2,399.586a4.717,4.717,0,0,1,2.789,1.784,21.943,21.943,0,0,1-.956,4.923,21.617,21.617,0,0,1-1.321,2.877,2.558,2.558,0,0,0-.823.925c-1.074,2.207-3.293,4.126-5.121,5.772l3.827-7.392a15.471,15.471,0,0,0,1.576-3.785l.05-.294c.182-1.022.439-2.327-.177-3.244l-.678.428-.138-.836-.112-.2Z" transform="translate(-316.238 -250.836)" fill="#ee9a80"/>
      <path id="Trazado_1051335" data-name="Trazado 1051335" d="M489.522,385.632a21.906,21.906,0,0,1,1.946-2.561c1.2.825,2.128,1.384,2.673,2.792l-.332.719-.174-.116-.054-.931c-.1,3.5-3.161,6.556-5.082,9.245-1.57,2.2-2.665,4.194-4.635,6.1l.474-1.615c.892-3.1,3.151-6.229,4.813-8.989a15.02,15.02,0,0,0,1.908-3.631,1.821,1.821,0,0,1,.326-.8l.161-.184c.222-.425.927-1.024.938-1.4-.4-.3-.42-.414-.912-.363a2.335,2.335,0,0,0-1.046,1.076c-.161.3-.7.5-1,.668" transform="translate(-303.744 -240.469)" fill="#ee9a80"/>
    </g>
  </g>
</svg>
