<svg xmlns="http://www.w3.org/2000/svg" xmlns:xlink="http://www.w3.org/1999/xlink" width="113" height="113" viewBox="0 0 113 113">
  <defs>
    <filter id="Trazado_982547" x="0" y="0" width="113" height="113" filterUnits="userSpaceOnUse">
      <feOffset dy="3" input="SourceAlpha"/>
      <feGaussianBlur stdDeviation="3" result="blur"/>
      <feFlood flood-opacity="0.161"/>
      <feComposite operator="in" in2="blur"/>
      <feComposite in="SourceGraphic"/>
    </filter>
  </defs>
  <g id="Grupo_1207696" data-name="Grupo 1207696" transform="translate(-1217 -5936.421)">
    <g id="Grupo_1207472" data-name="Grupo 1207472" transform="translate(0 -4880.405)">
      <g id="Grupo_1204128" data-name="Grupo 1204128" transform="translate(0 6976.49)">
        <g id="Grupo_1203961" data-name="Grupo 1203961" transform="translate(0.44 1899.461)">
          <g id="Grupo_1203500" data-name="Grupo 1203500" transform="translate(0 -197.72)">
            <g id="Grupo_1202592" data-name="Grupo 1202592" transform="translate(1225.561 2144.596)">
              <g id="Grupo_1172010" data-name="Grupo 1172010" transform="translate(0)">
                <g id="Grupo_1171046" data-name="Grupo 1171046">
                  <g id="Grupo_1148525" data-name="Grupo 1148525">
                    <g transform="matrix(1, 0, 0, 1, -9, -6)" filter="url(#Trazado_982547)">
                      <g id="Trazado_982547-2" data-name="Trazado 982547" transform="translate(9 6)" fill="#edf3fc">
                        <path d="M 47.5 93.5 C 41.28937149047852 93.5 35.26533508300781 92.28397369384766 29.59518623352051 89.88570404052734 C 24.11771965026855 87.56893157958984 19.19813346862793 84.25196075439453 14.97309303283691 80.02691650390625 C 10.74804019927979 75.80186462402344 7.431066513061523 70.88229370117188 5.114293098449707 65.40481567382812 C 2.716026782989502 59.73468017578125 1.5 53.71062850952148 1.5 47.5 C 1.5 41.28937149047852 2.716026782989502 35.26533508300781 5.114293098449707 29.59518623352051 C 7.431066513061523 24.11771965026855 10.74804019927979 19.19813346862793 14.97309303283691 14.97309303283691 C 19.19813346862793 10.74804019927979 24.11771965026855 7.431066513061523 29.59518623352051 5.114293098449707 C 35.26533508300781 2.716026782989502 41.28937149047852 1.5 47.5 1.5 C 53.71062850952148 1.5 59.73468017578125 2.716026782989502 65.40481567382812 5.114293098449707 C 70.88229370117188 7.431066513061523 75.80186462402344 10.74804019927979 80.02691650390625 14.97309303283691 C 84.25196075439453 19.19813346862793 87.56893157958984 24.11771965026855 89.88570404052734 29.59518623352051 C 92.28397369384766 35.26533508300781 93.5 41.28937149047852 93.5 47.5 C 93.5 53.71062850952148 92.28397369384766 59.73468017578125 89.88570404052734 65.40481567382812 C 87.56893157958984 70.88229370117188 84.25196075439453 75.80186462402344 80.02691650390625 80.02691650390625 C 75.80186462402344 84.25196075439453 70.88229370117188 87.56893157958984 65.40481567382812 89.88570404052734 C 59.73468017578125 92.28397369384766 53.71062850952148 93.5 47.5 93.5 Z" stroke="none"/>
                        <path d="M 47.5 3 C 41.49121475219727 3 35.66376876831055 4.176155090332031 30.17950439453125 6.495796203613281 C 24.88084411621094 8.736953735351562 20.12152099609375 11.94598388671875 16.03375244140625 16.03375244140625 C 11.94598388671875 20.12152099609375 8.736953735351562 24.88084411621094 6.495796203613281 30.17950439453125 C 4.176155090332031 35.66376876831055 3 41.49121475219727 3 47.5 C 3 53.50878524780273 4.176155090332031 59.33623123168945 6.495796203613281 64.82049560546875 C 8.736953735351562 70.11915588378906 11.94598388671875 74.87847900390625 16.03375244140625 78.96624755859375 C 20.12152099609375 83.05401611328125 24.88084411621094 86.26304626464844 30.17950439453125 88.50419616699219 C 35.66376876831055 90.82384490966797 41.49121475219727 92 47.5 92 C 53.50878524780273 92 59.33623123168945 90.82384490966797 64.82049560546875 88.50419616699219 C 70.11915588378906 86.26304626464844 74.87847900390625 83.05401611328125 78.96624755859375 78.96624755859375 C 83.05401611328125 74.87847900390625 86.26304626464844 70.11915588378906 88.50419616699219 64.82049560546875 C 90.82384490966797 59.33623123168945 92 53.50878524780273 92 47.5 C 92 41.49121475219727 90.82384490966797 35.66376876831055 88.50419616699219 30.17950439453125 C 86.26304626464844 24.88084411621094 83.05401611328125 20.12152099609375 78.96624755859375 16.03375244140625 C 74.87847900390625 11.94598388671875 70.11915588378906 8.736953735351562 64.82049560546875 6.495796203613281 C 59.33623123168945 4.176155090332031 53.50878524780273 3 47.5 3 M 47.5 0 C 73.7335205078125 0 95 21.2664794921875 95 47.5 C 95 73.7335205078125 73.7335205078125 95 47.5 95 C 21.2664794921875 95 0 73.7335205078125 0 47.5 C 0 21.2664794921875 21.2664794921875 0 47.5 0 Z" stroke="none" fill="#5692e8"/>
                      </g>
                    </g>
                  </g>
                </g>
              </g>
            </g>
          </g>
        </g>
      </g>
    </g>
    <g id="book_14170677" transform="translate(1241.5 5957.923)">
      <path id="Trazado_1051491" data-name="Trazado 1051491" d="M53.76,7h4.13A3.107,3.107,0,0,1,61,10.11V31H3V10.11A3.107,3.107,0,0,1,6.11,7Z" fill="#4f5d75"/>
      <path id="Trazado_1051492" data-name="Trazado 1051492" d="M32,31a16.461,16.461,0,0,0-22,0V7.215a16.461,16.461,0,0,1,22,0Z" fill="#41ead4"/>
      <path id="Trazado_1051493" data-name="Trazado 1051493" d="M54,31a16.461,16.461,0,0,0-22,0V7.215a16.461,16.461,0,0,1,22,0Z" fill="#247ba0"/>
      <path id="Trazado_1051494" data-name="Trazado 1051494" d="M36,37,22,41v.16c-1.66,0-3,1.84-3,4.11s1.34,4.11,3,4.11a11.178,11.178,0,0,0,1.369,5.358A10.785,10.785,0,0,0,27.14,58.71l2.75,1.69a4.01,4.01,0,0,0,4.22,0l2.75-1.69A10.95,10.95,0,0,0,42,49.38a2.659,2.659,0,0,0,2.12-1.2A5.02,5.02,0,0,0,45,45.27c0-2.27-1.34-4.11-3-4.11v-.24Z" fill="#ffbf69"/>
      <path id="Trazado_1051495" data-name="Trazado 1051495" d="M43,41a7.242,7.242,0,0,1-5.121-2.121L36,37a13.658,13.658,0,0,1-9.657,4H21V38c0-4.972,4.03-7,9-7h4c4.972,0,9,2.03,9,7Z" fill="#2d3142"/>
      <path id="Trazado_1051496" data-name="Trazado 1051496" d="M60.923,53.91c-5.145-.843-5.99-1.688-6.833-6.833a.091.091,0,0,0-.18,0c-.843,5.145-1.688,5.99-6.833,6.833a.091.091,0,0,0,0,.18c5.145.843,5.99,1.688,6.833,6.833a.091.091,0,0,0,.18,0c.843-5.145,1.688-5.99,6.833-6.833a.091.091,0,0,0,0-.18Z" fill="#1b98e0"/>
      <path id="Trazado_1051497" data-name="Trazado 1051497" d="M16.923,53.91c-5.145-.843-5.99-1.688-6.833-6.833a.091.091,0,0,0-.18,0c-.843,5.145-1.688,5.99-6.833,6.833a.091.091,0,0,0,0,.18c5.145.843,5.99,1.688,6.833,6.833a.091.091,0,0,0,.18,0c.843-5.145,1.688-5.99,6.833-6.833a.091.091,0,0,0,0-.18Z" fill="#1b98e0"/>
      <path id="Trazado_1051498" data-name="Trazado 1051498" d="M57.89,6h-3.8A17.363,17.363,0,0,0,32,5.923,17.363,17.363,0,0,0,9.907,6H6.11A4.115,4.115,0,0,0,2,10.11V31a1,1,0,0,0,1,1H22.824A7.177,7.177,0,0,0,20,38v2.847a5.408,5.408,0,0,0-2,4.421c0,2.437,1.271,4.424,3.03,4.965a12.228,12.228,0,0,0,1.47,4.991,11.848,11.848,0,0,0,4.121,4.338l2.75,1.69a5.012,5.012,0,0,0,5.268,0l2.752-1.691a12,12,0,0,0,5.584-9.332,3.914,3.914,0,0,0,1.962-1.464A6.017,6.017,0,0,0,46,45.27a5.408,5.408,0,0,0-2-4.421V38a7.177,7.177,0,0,0-2.824-6H61a1,1,0,0,0,1-1V10.11A4.115,4.115,0,0,0,57.89,6ZM9,30H4V10.11A2.112,2.112,0,0,1,6.11,8H9ZM11,7.668a15.4,15.4,0,0,1,20,0V28.926a17.385,17.385,0,0,0-20,0ZM13.01,30a15.391,15.391,0,0,1,15.98,0ZM44,45.27a4.052,4.052,0,0,1-.687,2.32A1.729,1.729,0,0,1,42,48.38a1,1,0,0,0-1,1,10,10,0,0,1-4.663,8.478l-2.75,1.69a3.058,3.058,0,0,1-3.174,0l-2.747-1.689a9.835,9.835,0,0,1-3.418-3.6A10.214,10.214,0,0,1,23,49.38a1,1,0,0,0-1-1c-1.084,0-2-1.424-2-3.11s.916-3.11,2-3.11a.964.964,0,0,0,.51-.16h3.833a14.556,14.556,0,0,0,9.634-3.609l1.2,1.2a8.184,8.184,0,0,0,4.082,2.224.985.985,0,0,0,.746.35c1.079-.005,2,1.419,2,3.1ZM42,38v1.919a6.2,6.2,0,0,1-3.414-1.749l-1.879-1.879a1,1,0,0,0-1.414,0A12.573,12.573,0,0,1,26.343,40H22V38c0-5.222,5.014-6,8-6h4c2.986,0,8,.78,8,6Zm-6.99-8a15.391,15.391,0,0,1,15.98,0ZM53,28.926a17.385,17.385,0,0,0-20,0V7.668a15.4,15.4,0,0,1,20,0ZM60,30H55V8h2.89A2.112,2.112,0,0,1,60,10.11Z"/>
      <path id="Trazado_1051499" data-name="Trazado 1051499" d="M18,9H28v2H18Z"/>
      <path id="Trazado_1051500" data-name="Trazado 1051500" d="M14,15H28v2H14Z"/>
      <path id="Trazado_1051501" data-name="Trazado 1051501" d="M14,21H28v2H14Z"/>
      <path id="Trazado_1051502" data-name="Trazado 1051502" d="M40,9H50v2H40Z"/>
      <path id="Trazado_1051503" data-name="Trazado 1051503" d="M36,15H50v2H36Z"/>
      <path id="Trazado_1051504" data-name="Trazado 1051504" d="M36,21H50v2H36Z"/>
      <path id="Trazado_1051505" data-name="Trazado 1051505" d="M28,47h2a3,3,0,0,0-6,0h2a1,1,0,0,1,2,0Z"/>
      <path id="Trazado_1051506" data-name="Trazado 1051506" d="M37,44a3,3,0,0,0-3,3h2a1,1,0,0,1,2,0h2A3,3,0,0,0,37,44Z"/>
      <path id="Trazado_1051507" data-name="Trazado 1051507" d="M32,55a3,3,0,0,1-3-3H27a5,5,0,1,0,10,0H35A3,3,0,0,1,32,55Z"/>
      <path id="Trazado_1051508" data-name="Trazado 1051508" d="M61.087,52.923c-4.728-.774-5.232-1.279-6.007-6.007a1.091,1.091,0,0,0-2.154,0c-.775,4.729-1.279,5.234-6.01,6.008a1.091,1.091,0,0,0,0,2.154c4.728.774,5.232,1.279,6.007,6.007a1.091,1.091,0,0,0,2.154,0c.775-4.729,1.279-5.234,6.01-6.008a1.092,1.092,0,0,0,0-2.154ZM54,57.064A4.93,4.93,0,0,0,50.937,54,4.93,4.93,0,0,0,54,50.936,4.929,4.929,0,0,0,57.064,54,4.927,4.927,0,0,0,54,57.064Z"/>
      <path id="Trazado_1051509" data-name="Trazado 1051509" d="M17.087,52.923c-4.728-.774-5.232-1.279-6.007-6.007a1.091,1.091,0,0,0-2.154,0c-.775,4.729-1.279,5.234-6.01,6.008a1.091,1.091,0,0,0,0,2.154c4.728.774,5.232,1.279,6.007,6.007a1.091,1.091,0,0,0,2.154,0c.775-4.729,1.279-5.234,6.01-6.008a1.092,1.092,0,0,0,0-2.154ZM10,57.064A4.93,4.93,0,0,0,6.937,54,4.93,4.93,0,0,0,10,50.936,4.929,4.929,0,0,0,13.064,54,4.927,4.927,0,0,0,10,57.064Z"/>
    </g>
  </g>
</svg>
