<svg xmlns="http://www.w3.org/2000/svg" xmlns:xlink="http://www.w3.org/1999/xlink" width="113" height="113" viewBox="0 0 113 113">
  <defs>
    <filter id="Trazado_982547" x="0" y="0" width="113" height="113" filterUnits="userSpaceOnUse">
      <feOffset dy="3" input="SourceAlpha"/>
      <feGaussianBlur stdDeviation="3" result="blur"/>
      <feFlood flood-opacity="0.161"/>
      <feComposite operator="in" in2="blur"/>
      <feComposite in="SourceGraphic"/>
    </filter>
  </defs>
  <g id="Grupo_1207598" data-name="Grupo 1207598" transform="translate(-272 -2077.78)">
    <g id="Grupo_1207254" data-name="Grupo 1207254" transform="translate(0 -8747.046)">
      <g id="Grupo_1204125" data-name="Grupo 1204125" transform="translate(0 6984.49)">
        <g id="Grupo_1203962" data-name="Grupo 1203962" transform="translate(0 1899.461)">
          <g id="Grupo_1203498" data-name="Grupo 1203498" transform="translate(0 -197.72)">
            <g id="Grupo_1202589" data-name="Grupo 1202589" transform="translate(281 2144.596)">
              <g id="Grupo_1172010" data-name="Grupo 1172010" transform="translate(0)">
                <g id="Grupo_1171046" data-name="Grupo 1171046">
                  <g id="Grupo_1148525" data-name="Grupo 1148525">
                    <g transform="matrix(1, 0, 0, 1, -9, -6)" filter="url(#Trazado_982547)">
                      <g id="Trazado_982547-2" data-name="Trazado 982547" transform="translate(9 6)" fill="#edf3fc">
                        <path d="M 47.5 93.5 C 41.28937149047852 93.5 35.26533508300781 92.28397369384766 29.59518623352051 89.88570404052734 C 24.11771965026855 87.56893157958984 19.19813346862793 84.25196075439453 14.97309303283691 80.02691650390625 C 10.74804019927979 75.80186462402344 7.431066513061523 70.88229370117188 5.114293098449707 65.40481567382812 C 2.716026782989502 59.73468017578125 1.5 53.71062850952148 1.5 47.5 C 1.5 41.28937149047852 2.716026782989502 35.26533508300781 5.114293098449707 29.59518623352051 C 7.431066513061523 24.11771965026855 10.74804019927979 19.19813346862793 14.97309303283691 14.97309303283691 C 19.19813346862793 10.74804019927979 24.11771965026855 7.431066513061523 29.59518623352051 5.114293098449707 C 35.26533508300781 2.716026782989502 41.28937149047852 1.5 47.5 1.5 C 53.71062850952148 1.5 59.73468017578125 2.716026782989502 65.40481567382812 5.114293098449707 C 70.88229370117188 7.431066513061523 75.80186462402344 10.74804019927979 80.02691650390625 14.97309303283691 C 84.25196075439453 19.19813346862793 87.56893157958984 24.11771965026855 89.88570404052734 29.59518623352051 C 92.28397369384766 35.26533508300781 93.5 41.28937149047852 93.5 47.5 C 93.5 53.71062850952148 92.28397369384766 59.73468017578125 89.88570404052734 65.40481567382812 C 87.56893157958984 70.88229370117188 84.25196075439453 75.80186462402344 80.02691650390625 80.02691650390625 C 75.80186462402344 84.25196075439453 70.88229370117188 87.56893157958984 65.40481567382812 89.88570404052734 C 59.73468017578125 92.28397369384766 53.71062850952148 93.5 47.5 93.5 Z" stroke="none"/>
                        <path d="M 47.5 3 C 41.49121475219727 3 35.66376876831055 4.176155090332031 30.17950439453125 6.495796203613281 C 24.88084411621094 8.736953735351562 20.12152099609375 11.94598388671875 16.03375244140625 16.03375244140625 C 11.94598388671875 20.12152099609375 8.736953735351562 24.88084411621094 6.495796203613281 30.17950439453125 C 4.176155090332031 35.66376876831055 3 41.49121475219727 3 47.5 C 3 53.50878524780273 4.176155090332031 59.33623123168945 6.495796203613281 64.82049560546875 C 8.736953735351562 70.11915588378906 11.94598388671875 74.87847900390625 16.03375244140625 78.96624755859375 C 20.12152099609375 83.05401611328125 24.88084411621094 86.26304626464844 30.17950439453125 88.50419616699219 C 35.66376876831055 90.82384490966797 41.49121475219727 92 47.5 92 C 53.50878524780273 92 59.33623123168945 90.82384490966797 64.82049560546875 88.50419616699219 C 70.11915588378906 86.26304626464844 74.87847900390625 83.05401611328125 78.96624755859375 78.96624755859375 C 83.05401611328125 74.87847900390625 86.26304626464844 70.11915588378906 88.50419616699219 64.82049560546875 C 90.82384490966797 59.33623123168945 92 53.50878524780273 92 47.5 C 92 41.49121475219727 90.82384490966797 35.66376876831055 88.50419616699219 30.17950439453125 C 86.26304626464844 24.88084411621094 83.05401611328125 20.12152099609375 78.96624755859375 16.03375244140625 C 74.87847900390625 11.94598388671875 70.11915588378906 8.736953735351562 64.82049560546875 6.495796203613281 C 59.33623123168945 4.176155090332031 53.50878524780273 3 47.5 3 M 47.5 0 C 73.7335205078125 0 95 21.2664794921875 95 47.5 C 95 73.7335205078125 73.7335205078125 95 47.5 95 C 21.2664794921875 95 0 73.7335205078125 0 47.5 C 0 21.2664794921875 21.2664794921875 0 47.5 0 Z" stroke="none" fill="#5692e8"/>
                      </g>
                    </g>
                  </g>
                </g>
              </g>
            </g>
          </g>
        </g>
      </g>
    </g>
    <g id="color-guide_2415072" transform="translate(296.71 2101.345)">
      <g id="Grupo_1207579" data-name="Grupo 1207579" transform="translate(1.922 9.057)">
        <path id="Trazado_1051116" data-name="Trazado 1051116" d="M2,9.978V54.052a.841.841,0,0,0,.841.841h28.6V9.137H2.843A.841.841,0,0,0,2,9.978Z" transform="translate(-2.002 -9.137)" fill="#fff"/>
      </g>
      <g id="Grupo_1207580" data-name="Grupo 1207580" transform="translate(31.365 9.057)">
        <path id="Trazado_1051117" data-name="Trazado 1051117" d="M34,9.137V54.893H62.6a.841.841,0,0,0,.841-.841V9.978a.841.841,0,0,0-.841-.841Z" transform="translate(-34 -9.137)" fill="#fff"/>
      </g>
      <g id="Grupo_1207581" data-name="Grupo 1207581" transform="translate(1.926 42.369)">
        <path id="Trazado_1051118" data-name="Trazado 1051118" d="M31.45,45.339V57.781H2.848a.833.833,0,0,1-.841-.841V51.716c12.694-.076,22.242-2.6,29.443-6.377Z" transform="translate(-2.006 -45.339)" fill="#dee1e6"/>
      </g>
      <g id="Grupo_1207582" data-name="Grupo 1207582" transform="translate(31.369 9.056)">
        <path id="Trazado_1051119" data-name="Trazado 1051119" d="M63.447,9.977V54.049a.838.838,0,0,1-.841.841H34V42.448C52.023,32.985,55.271,15.664,55.851,9.136h6.755A.844.844,0,0,1,63.447,9.977Z" transform="translate(-34.004 -9.136)" fill="#dee1e6"/>
      </g>
      <g id="Grupo_1207583" data-name="Grupo 1207583" transform="translate(37.866 35.088)">
        <path id="Trazado_1051120" data-name="Trazado 1051120" d="M41.065,37.426h18.4v13.6h-18.4Z" transform="translate(-41.065 -37.426)" fill="#fbc41a"/>
      </g>
      <g id="Grupo_1207584" data-name="Grupo 1207584" transform="translate(37.864 35.089)">
        <path id="Trazado_1051121" data-name="Trazado 1051121" d="M59.46,37.427V51.021h-18.4V47.934c12.1-.749,14.049-6.873,14.107-10.507Z" transform="translate(-41.062 -37.427)" fill="#f59f02"/>
      </g>
      <g id="Grupo_1207585" data-name="Grupo 1207585" transform="translate(37.866 15.185)">
        <path id="Trazado_1051122" data-name="Trazado 1051122" d="M41.065,15.8h18.4v13.6h-18.4Z" transform="translate(-41.065 -15.797)" fill="#ff7e7e"/>
      </g>
      <g id="Grupo_1207586" data-name="Grupo 1207586" transform="translate(37.864 15.189)">
        <path id="Trazado_1051123" data-name="Trazado 1051123" d="M59.46,15.8V29.395h-18.4V26.307c12.1-.749,14.049-6.873,14.107-10.507Z" transform="translate(-41.062 -15.8)" fill="#ef3d3d"/>
      </g>
      <g id="Grupo_1207589" data-name="Grupo 1207589" transform="translate(6.452 38.876)">
        <g id="Grupo_1207587" data-name="Grupo 1207587" transform="translate(0.003)">
          <path id="Trazado_1051124" data-name="Trazado 1051124" d="M6.929,41.543h18.4V52.585H6.929Z" transform="translate(-6.929 -41.543)" fill="#00a388"/>
        </g>
        <g id="Grupo_1207588" data-name="Grupo 1207588" transform="translate(0 0.001)">
          <path id="Trazado_1051125" data-name="Trazado 1051125" d="M25.323,41.544V52.584H6.925V50.077c12.1-.608,14.049-5.581,14.107-8.532h4.29Z" transform="translate(-6.925 -41.544)" fill="#03846b"/>
        </g>
      </g>
      <g id="Grupo_1207597" data-name="Grupo 1207597" transform="translate(1.002 8.137)">
        <g id="Grupo_1207590" data-name="Grupo 1207590" transform="translate(4.698 7.44)">
          <circle id="Elipse_13400" data-name="Elipse 13400" cx="5.69" cy="5.69" r="5.69" fill="#92da0d"/>
        </g>
        <g id="Grupo_1207591" data-name="Grupo 1207591" transform="translate(5.207 8.075)">
          <path id="Trazado_1051126" data-name="Trazado 1051126" d="M17.532,21.965A5.688,5.688,0,0,1,6.66,24.311a5.693,5.693,0,0,0,7.8-7.4A5.686,5.686,0,0,1,17.532,21.965Z" transform="translate(-6.66 -16.912)" fill="#73b816"/>
        </g>
        <g id="Grupo_1207592" data-name="Grupo 1207592" transform="translate(13.222 7.44)">
          <circle id="Elipse_13401" data-name="Elipse 13401" cx="5.69" cy="5.69" r="5.69" fill="#4dabf4"/>
        </g>
        <g id="Grupo_1207593" data-name="Grupo 1207593" transform="translate(13.729 8.075)">
          <path id="Trazado_1051127" data-name="Trazado 1051127" d="M26.794,21.966a5.688,5.688,0,0,1-10.871,2.346,5.693,5.693,0,0,0,7.8-7.4,5.686,5.686,0,0,1,3.074,5.053Z" transform="translate(-15.922 -16.912)" fill="#1d7bd5"/>
        </g>
        <g id="Grupo_1207594" data-name="Grupo 1207594" transform="translate(8.96 14.463)">
          <circle id="Elipse_13402" data-name="Elipse 13402" cx="5.69" cy="5.69" r="5.69" fill="#fbc41a"/>
        </g>
        <g id="Grupo_1207595" data-name="Grupo 1207595" transform="translate(9.469 15.098)">
          <path id="Trazado_1051128" data-name="Trazado 1051128" d="M22.164,29.6a5.688,5.688,0,0,1-10.871,2.346,5.693,5.693,0,0,0,7.8-7.4A5.686,5.686,0,0,1,22.164,29.6Z" transform="translate(-11.292 -24.545)" fill="#f59f02"/>
        </g>
        <g id="Grupo_1207596" data-name="Grupo 1207596">
          <path id="Trazado_1051129" data-name="Trazado 1051129" d="M59.967,8.137H2.764A1.763,1.763,0,0,0,1,9.9V53.972a1.763,1.763,0,0,0,1.762,1.761h57.2a1.763,1.763,0,0,0,1.762-1.761V9.9a1.763,1.763,0,0,0-1.762-1.761ZM2.842,9.977h27.6v2.531H29.378a.92.92,0,1,0,0,1.84h1.067v4.329H29.378a.92.92,0,0,0,0,1.84h1.067v4.329H29.378a.92.92,0,0,0,0,1.84h1.067v4.329H29.378a.92.92,0,0,0,0,1.84h1.067v4.329H29.378a.92.92,0,1,0,0,1.84h1.067v4.329H29.378a.92.92,0,0,0,0,1.84h1.067v4.329H29.378a.92.92,0,1,0,0,1.84h1.067v2.531H2.842ZM59.888,53.893h-27.6V51.362h.773a.92.92,0,0,0,0-1.84h-.773V45.193h.773a.92.92,0,0,0,0-1.84h-.773V39.024h.773a.92.92,0,0,0,0-1.84h-.773V32.855h.773a.92.92,0,0,0,0-1.84h-.773V26.686h.773a.92.92,0,0,0,0-1.84h-.773V20.517h.773a.92.92,0,0,0,0-1.84h-.773V14.348h.773a.92.92,0,0,0,0-1.84h-.773V9.977h27.6Z" transform="translate(-1.002 -8.137)"/>
          <path id="Trazado_1051130" data-name="Trazado 1051130" d="M40.986,30.235h18.4a.92.92,0,0,0,.92-.92v-13.6a.92.92,0,0,0-.92-.92h-18.4a.92.92,0,0,0-.92.92v13.6A.92.92,0,0,0,40.986,30.235Zm.92-13.6H58.462V28.395H41.906Z" transform="translate(-4.121 -8.668)"/>
          <path id="Trazado_1051131" data-name="Trazado 1051131" d="M40.986,51.863h18.4a.92.92,0,0,0,.92-.92v-13.6a.92.92,0,0,0-.92-.92h-18.4a.92.92,0,0,0-.92.92v13.6A.92.92,0,0,0,40.986,51.863Zm.92-13.6H58.462V50.023H41.906Z" transform="translate(-4.121 -10.395)"/>
          <path id="Trazado_1051132" data-name="Trazado 1051132" d="M25.245,40.543H6.849a.92.92,0,0,0-.92.92V52.505a.92.92,0,0,0,.92.92h18.4a.92.92,0,0,0,.92-.92V41.463A.92.92,0,0,0,25.245,40.543Zm-.92,11.042H7.769v-9.2H24.325Z" transform="translate(-1.395 -10.724)"/>
          <path id="Trazado_1051133" data-name="Trazado 1051133" d="M20.242,15.223a6.577,6.577,0,0,0-4.265,1.569A6.6,6.6,0,1,0,9.429,28.02a6.61,6.61,0,1,0,13.1,0,6.6,6.6,0,0,0-2.29-12.8ZM6.948,21.833a4.775,4.775,0,0,1,4.77-4.77,4.685,4.685,0,0,1,3.022,1.114A6.428,6.428,0,0,0,13.7,22.659a6.639,6.639,0,0,0-3.779,3.558,4.738,4.738,0,0,1-2.976-4.384ZM15.98,33.626a4.77,4.77,0,1,1,4.77-4.77A4.775,4.775,0,0,1,15.98,33.626Zm6.055-7.412a6.617,6.617,0,0,0-6.055-3.968c-.157,0-.312.013-.466.024a4.761,4.761,0,1,1,6.522,3.944Z" transform="translate(-1.33 -8.702)"/>
        </g>
      </g>
    </g>
  </g>
</svg>
