<svg xmlns="http://www.w3.org/2000/svg" xmlns:xlink="http://www.w3.org/1999/xlink" width="113" height="113" viewBox="0 0 113 113">
  <defs>
    <filter id="Trazado_982547" x="0" y="0" width="113" height="113" filterUnits="userSpaceOnUse">
      <feOffset dy="3" input="SourceAlpha"/>
      <feGaussianBlur stdDeviation="3" result="blur"/>
      <feFlood flood-opacity="0.161"/>
      <feComposite operator="in" in2="blur"/>
      <feComposite in="SourceGraphic"/>
    </filter>
  </defs>
  <g id="Grupo_1207602" data-name="Grupo 1207602" transform="translate(-1217 -2069.78)">
    <g id="Grupo_1207257" data-name="Grupo 1207257" transform="translate(0 -8747.046)">
      <g id="Grupo_1204128" data-name="Grupo 1204128" transform="translate(0 6976.49)">
        <g id="Grupo_1203961" data-name="Grupo 1203961" transform="translate(0.44 1899.461)">
          <g id="Grupo_1203500" data-name="Grupo 1203500" transform="translate(0 -197.72)">
            <g id="Grupo_1202592" data-name="Grupo 1202592" transform="translate(1225.561 2144.596)">
              <g id="Grupo_1172010" data-name="Grupo 1172010" transform="translate(0)">
                <g id="Grupo_1171046" data-name="Grupo 1171046">
                  <g id="Grupo_1148525" data-name="Grupo 1148525">
                    <g transform="matrix(1, 0, 0, 1, -9, -6)" filter="url(#Trazado_982547)">
                      <g id="Trazado_982547-2" data-name="Trazado 982547" transform="translate(9 6)" fill="#edf3fc">
                        <path d="M 47.5 93.5 C 41.28937149047852 93.5 35.26533508300781 92.28397369384766 29.59518623352051 89.88570404052734 C 24.11771965026855 87.56893157958984 19.19813346862793 84.25196075439453 14.97309303283691 80.02691650390625 C 10.74804019927979 75.80186462402344 7.431066513061523 70.88229370117188 5.114293098449707 65.40481567382812 C 2.716026782989502 59.73468017578125 1.5 53.71062850952148 1.5 47.5 C 1.5 41.28937149047852 2.716026782989502 35.26533508300781 5.114293098449707 29.59518623352051 C 7.431066513061523 24.11771965026855 10.74804019927979 19.19813346862793 14.97309303283691 14.97309303283691 C 19.19813346862793 10.74804019927979 24.11771965026855 7.431066513061523 29.59518623352051 5.114293098449707 C 35.26533508300781 2.716026782989502 41.28937149047852 1.5 47.5 1.5 C 53.71062850952148 1.5 59.73468017578125 2.716026782989502 65.40481567382812 5.114293098449707 C 70.88229370117188 7.431066513061523 75.80186462402344 10.74804019927979 80.02691650390625 14.97309303283691 C 84.25196075439453 19.19813346862793 87.56893157958984 24.11771965026855 89.88570404052734 29.59518623352051 C 92.28397369384766 35.26533508300781 93.5 41.28937149047852 93.5 47.5 C 93.5 53.71062850952148 92.28397369384766 59.73468017578125 89.88570404052734 65.40481567382812 C 87.56893157958984 70.88229370117188 84.25196075439453 75.80186462402344 80.02691650390625 80.02691650390625 C 75.80186462402344 84.25196075439453 70.88229370117188 87.56893157958984 65.40481567382812 89.88570404052734 C 59.73468017578125 92.28397369384766 53.71062850952148 93.5 47.5 93.5 Z" stroke="none"/>
                        <path d="M 47.5 3 C 41.49121475219727 3 35.66376876831055 4.176155090332031 30.17950439453125 6.495796203613281 C 24.88084411621094 8.736953735351562 20.12152099609375 11.94598388671875 16.03375244140625 16.03375244140625 C 11.94598388671875 20.12152099609375 8.736953735351562 24.88084411621094 6.495796203613281 30.17950439453125 C 4.176155090332031 35.66376876831055 3 41.49121475219727 3 47.5 C 3 53.50878524780273 4.176155090332031 59.33623123168945 6.495796203613281 64.82049560546875 C 8.736953735351562 70.11915588378906 11.94598388671875 74.87847900390625 16.03375244140625 78.96624755859375 C 20.12152099609375 83.05401611328125 24.88084411621094 86.26304626464844 30.17950439453125 88.50419616699219 C 35.66376876831055 90.82384490966797 41.49121475219727 92 47.5 92 C 53.50878524780273 92 59.33623123168945 90.82384490966797 64.82049560546875 88.50419616699219 C 70.11915588378906 86.26304626464844 74.87847900390625 83.05401611328125 78.96624755859375 78.96624755859375 C 83.05401611328125 74.87847900390625 86.26304626464844 70.11915588378906 88.50419616699219 64.82049560546875 C 90.82384490966797 59.33623123168945 92 53.50878524780273 92 47.5 C 92 41.49121475219727 90.82384490966797 35.66376876831055 88.50419616699219 30.17950439453125 C 86.26304626464844 24.88084411621094 83.05401611328125 20.12152099609375 78.96624755859375 16.03375244140625 C 74.87847900390625 11.94598388671875 70.11915588378906 8.736953735351562 64.82049560546875 6.495796203613281 C 59.33623123168945 4.176155090332031 53.50878524780273 3 47.5 3 M 47.5 0 C 73.7335205078125 0 95 21.2664794921875 95 47.5 C 95 73.7335205078125 73.7335205078125 95 47.5 95 C 21.2664794921875 95 0 73.7335205078125 0 47.5 C 0 21.2664794921875 21.2664794921875 0 47.5 0 Z" stroke="none" fill="#5692e8"/>
                      </g>
                    </g>
                  </g>
                </g>
              </g>
            </g>
          </g>
        </g>
      </g>
    </g>
    <g id="writing_4072257" transform="translate(1244 2093)">
      <path id="Trazado_1051176" data-name="Trazado 1051176" d="M66.46,275.187V255.5L53.335,248H34.585l-9.375,3.75-6.562,15a4.555,4.555,0,0,0,0,8.438Z" transform="translate(-13.961 -218.938)" fill="#4ba013"/>
      <path id="Trazado_1051177" data-name="Trazado 1051177" d="M232,264v2.627a3,3,0,0,0,3,3h1.5a3,3,0,0,0,3-3V264Z" transform="translate(-204.813 -233.063)" fill="#dd8f3a"/>
      <path id="Trazado_1051178" data-name="Trazado 1051178" d="M182.177,72V87a9.256,9.256,0,0,1-9.375,9.375h-4.687A9.256,9.256,0,0,1,158.74,87V72Z" transform="translate(-140.138 -63.563)" fill="#ffc880"/>
      <path id="Trazado_1051179" data-name="Trazado 1051179" d="M155.038,25.812C162.675,15.63,154.67,8,147.033,8h-8.292c-8.91,0-14.95,8.61-7.141,17.812l5.625-8.437,2.813,3.75,3.75-3.75,3.75,3.75,2.813-3.75Z" transform="translate(-112.998 -7.063)" fill="#f4bb03"/>
      <path id="Trazado_1051180" data-name="Trazado 1051180" d="M177.49,88l-2.812,3.75L170.927,88l-3.75,3.75L164.365,88l-5.625,8.437v.953l4.835-5.641,3.75.938,3.75-1.875,3.75,1.875,2.812-1.875,4.54,5.625Z" transform="translate(-140.138 -77.688)" fill="#e59c45"/>
      <path id="Trazado_1051181" data-name="Trazado 1051181" d="M144.564,8h-5.819C132.067,8,127,12.837,128.171,19.135,132.238,17.53,139.588,14,144.564,8Z" transform="translate(-113.002 -7.063)" fill="#fcfbfa" opacity="0.2"/>
      <path id="Trazado_1051182" data-name="Trazado 1051182" d="M8,480H66.125v2.813H8Z" transform="translate(-7.063 -423.75)" fill="#b5b4b1"/>
      <path id="Trazado_1051183" data-name="Trazado 1051183" d="M220.208,343.044l-2.543-4.72,3.3-1.778,5.335,9.9-3.3,1.778-1.277-2.371" transform="translate(-192.157 -297.106)" fill="#e84700"/>
      <path id="Trazado_1051184" data-name="Trazado 1051184" d="M263.192,422.841l3.845,2.316-.543-4.094Z" transform="translate(-232.349 -371.72)" fill="#472020"/>
      <path id="Trazado_1051185" data-name="Trazado 1051185" d="M176,402.312c5.625,0,5.625-7.5,5.625-7.5h3.75V392h-6.562L176,393.875Z" transform="translate(-155.375 -346.063)" fill="#ffc880"/>
      <path id="Trazado_1051186" data-name="Trazado 1051186" d="M327.215,233.375s-.937-3.75,2.813-4.687a17.42,17.42,0,0,1,7.5,0V224h3.75v7.5l-5.625,1.875Z" transform="translate(-288.778 -197.75)" fill="#ffc880"/>
      <path id="Trazado_1051187" data-name="Trazado 1051187" d="M46.2,400.938v8.437H44.327v-7.5H27.91a4.883,4.883,0,0,1,1.417-.937l.41-.937H45.264A.937.937,0,0,1,46.2,400.938Z" transform="translate(-24.639 -353.125)" fill="#56bc13"/>
      <path id="Trazado_1051188" data-name="Trazado 1051188" d="M342.062,317.125h-5.625V304H328v20.625h14.062Z" transform="translate(-289.563 -268.375)" fill="#56bc13"/>
      <path id="Trazado_1051189" data-name="Trazado 1051189" d="M226.49,217.875A1.877,1.877,0,0,1,224.615,216H222.74a3.75,3.75,0,0,0,7.5,0h-1.875A1.877,1.877,0,0,1,226.49,217.875Z" transform="translate(-196.638 -190.688)"/>
      <path id="Trazado_1051190" data-name="Trazado 1051190" d="M59.062,55.312H53.437V36.562a.938.938,0,0,0-.417-.78L51.8,34.971l.994-.331a.937.937,0,0,0,.641-.889v-7.5a.938.938,0,0,0-.937-.937H48.75a.938.938,0,0,0-.937.937v3.556a17.851,17.851,0,0,0-6.79.223c-.172.043-.335.092-.492.144a10.308,10.308,0,0,0,2.447-6.735V19.056C46.19,14.642,46.925,10.15,45.04,6.38a12.374,12.374,0,0,0-11-6.38H25.743c-4.884,0-9.021,2.385-10.8,6.223-1.8,3.892-.808,8.565,2.721,12.864v4.35a10.408,10.408,0,0,0,1.391,5.243L10.9,31.942a.937.937,0,0,0-.511.495L3.969,47.116A5.555,5.555,0,0,0,.942,51.469a5.454,5.454,0,0,0,1.1,3.844H.937A.937.937,0,0,0,0,56.25v2.812A.937.937,0,0,0,.937,60H59.062A.937.937,0,0,0,60,59.062V56.25a.937.937,0,0,0-.937-.937ZM41.477,31.847a16.6,16.6,0,0,1,7.045,0,.937.937,0,0,0,1.165-.909v-3.75h1.875v5.887l-4.84,1.613H39.272a3.621,3.621,0,0,1,.093-.9,2.574,2.574,0,0,1,2.113-1.937Zm5.4,17.84h4.687v5.625H39.375V36.562h6.562V48.75A.937.937,0,0,0,46.875,49.687Zm.938-1.875V36.3l1.736-.579,2.014,1.342V47.812ZM41.1,23.437a8.319,8.319,0,0,1-8.437,8.437H27.977a8.319,8.319,0,0,1-8.437-8.437v-4.4l4.733-7.1,2.017,2.69a.937.937,0,0,0,1.413.1l3.087-3.087,3.087,3.087a.938.938,0,0,0,1.413-.1l1.945-2.593L41.1,18.992ZM33.743,33.7a2.062,2.062,0,0,1-2.054,1.928h-1.5a2.062,2.062,0,0,1-2.051-1.875h4.53a10.773,10.773,0,0,0,1.078-.053ZM18.536,17.159c-2.586-3.5-3.279-7.147-1.891-10.148,1.467-3.168,4.953-5.136,9.1-5.136h8.292a10.466,10.466,0,0,1,9.328,5.344c1.031,2.061,1.58,5.369-1.233,9.762L38.172,9.857A.938.938,0,0,0,36.6,9.75l-2.164,2.885L31.453,9.65a.937.937,0,0,0-1.326,0l-2.986,2.986L24.977,9.75a.937.937,0,0,0-1.53.042ZM11.955,33.54l8.224-3.29a10.175,10.175,0,0,0,6.072,3.359A3.94,3.94,0,0,0,30.186,37.5h1.5a3.94,3.94,0,0,0,3.936-3.936v-.232a10.212,10.212,0,0,0,2.27-.967,4.656,4.656,0,0,0-.373,1.063,5.756,5.756,0,0,0-.022,2.3V55.312H24.975a7.784,7.784,0,0,0,1.45-2.483,12.725,12.725,0,0,0,.707-3.142h1.874l1.012,1.879s0,0,0,0a.934.934,0,0,0,.068.107c.009.013.02.023.03.036s.032.041.05.059.035.033.053.049.026.024.039.035.041.029.062.044.023.018.037.026l.009.006h0L34.2,54.24a.937.937,0,0,0,1.413-.926l-.542-4.094c0-.007,0-.015,0-.022,0-.023-.008-.047-.014-.07l-.009-.036c-.006-.023-.014-.046-.022-.069s-.007-.021-.011-.031a.938.938,0,0,0-.043-.094h0l-5.334-9.9a.937.937,0,0,0-1.27-.381l-3.3,1.778a.938.938,0,0,0-.381,1.27L26.48,45H23.437a.937.937,0,0,0-.52.157l-2.576,1.718H16.3l2.4-7.2-1.779-.593-2.6,7.8h-8.2ZM31.223,49.851l-.377-.7a.932.932,0,0,0,.091-.4V45.937A.938.938,0,0,0,30,45H28.61l-1.833-3.4,1.651-.889,4.446,8.254Zm2.17.961.108.816-.767-.462Zm-4.331-3.937v.938H26.25a.939.939,0,0,0-.937.936,11.15,11.15,0,0,1-.659,3.463,4.253,4.253,0,0,1-3.091,3.011V48.314l2.159-1.439ZM2.808,51.656A3.684,3.684,0,0,1,4.9,48.75H19.687v6.562H4.9a3.763,3.763,0,0,1-2.1-3.656Zm55.317,6.469H1.875v-.937h56.25Z"/>
      <circle id="Elipse_13406" data-name="Elipse 13406" cx="1.5" cy="1.5" r="1.5" transform="translate(24 18)"/>
      <circle id="Elipse_13407" data-name="Elipse 13407" cx="1.5" cy="1.5" r="1.5" transform="translate(33 18)"/>
    </g>
  </g>
</svg>
