<svg xmlns="http://www.w3.org/2000/svg" width="37.384" height="37.384" viewBox="0 0 37.384 37.384">
  <g id="team_2968012_1_" data-name="team_2968012 (1)" transform="translate(-1 -1)">
    <path id="Trazado_1047609" data-name="Trazado 1047609" d="M31.235,9.589A3.538,3.538,0,0,1,30.206,7.1V7H29v.1a4.752,4.752,0,0,0,1.383,3.337Z" transform="translate(-11.117 -2.382)" fill="#453179"/>
    <path id="Trazado_1047610" data-name="Trazado 1047610" d="M33.221,18H32.015a.6.6,0,0,1-.6.6H29v1.206h2.412A1.811,1.811,0,0,0,33.221,18Z" transform="translate(-11.117 -6.75)" fill="#453179"/>
    <path id="Trazado_1047611" data-name="Trazado 1047611" d="M36.575,37.178a4.83,4.83,0,0,0-4.347-4.8l-.425-1.7.913-1.218a4.244,4.244,0,0,0,.844-2.532V25.722a4.217,4.217,0,0,0-7.236-2.948V21.5h1.206a7.848,7.848,0,0,0,7.839-7.839V8.138a2.92,2.92,0,0,0-2.917-2.917h-.2A2.917,2.917,0,0,0,29.83,9.756l.716,1.074v2.45a3.394,3.394,0,0,1-3.772,3.375l-4.753-.528-.133-.8a3.623,3.623,0,0,0,2.573-2.874h.055a2.414,2.414,0,0,0,2.412-2.412A2.388,2.388,0,0,0,26.41,8.57l.371-1.483A4.9,4.9,0,0,0,22.03,1H17.354a4.9,4.9,0,0,0-4.213,2.412H3.751A2.749,2.749,0,0,0,1.083,6.829L1.818,9.77a2.746,2.746,0,0,0,2.668,2.083h2.9l1.986,1.986a1.456,1.456,0,0,0,2.485-1.029v-.956h.132a2.729,2.729,0,0,0,1.076-.227,2.4,2.4,0,0,0,1.806.83h.054a3.622,3.622,0,0,0,2.67,2.9l-.188.752-.789.057a8.334,8.334,0,0,0-7.233,5.394,4.225,4.225,0,0,0-3.559,4.164v1.206a4.241,4.241,0,0,0,.844,2.532l.913,1.218-.424,1.7a4.83,4.83,0,0,0-4.347,4.8H1v1.206H38.384V37.178ZM28,31.148h2.677l.3,1.206H27.7Zm1.339-8.442a3.018,3.018,0,0,1,3.015,3.015v1.206a3.032,3.032,0,0,1-.6,1.809l-.9,1.206H27.832l-.9-1.207a3.029,3.029,0,0,1-.6-1.808V25.722A3.018,3.018,0,0,1,29.34,22.707Zm2.917-16.28h.2a1.713,1.713,0,0,1,1.711,1.711v1.907H31.471l-.639-.958a1.712,1.712,0,0,1,1.424-2.66ZM18.839,18.486,17.725,19.6l-.286-2.286.212-.015Zm-.289-1.994.255-1.021h1.883l.166,1-1.163,1.163Zm3.172.816.219.024L21.658,19.6l-1.114-1.114Zm2.794-6.058V9.6a2.988,2.988,0,0,0-.1-.763h.1a1.206,1.206,0,0,1,0,2.412Zm-12.53-.6H10.647V12.81a.259.259,0,0,1-.426.177L7.882,10.647h-3.4a1.543,1.543,0,0,1-1.5-1.169l-.734-2.94a1.563,1.563,0,0,1-.046-.376A1.546,1.546,0,0,1,3.751,4.618h8.881A4.819,4.819,0,0,0,12.6,7.086l.371,1.484a2.351,2.351,0,0,0-.461,1.982A1.527,1.527,0,0,1,11.985,10.647Zm1.677-.6a1.207,1.207,0,0,1,1.206-1.206V11.25A1.207,1.207,0,0,1,13.662,10.045Zm2.412,1.809V8.643a2.408,2.408,0,0,1,1.074-2.007l.466-.311-.669-1-.466.311a3.611,3.611,0,0,0-1.462,2h-.149a2.392,2.392,0,0,0-.846.161l-.25-1a3.693,3.693,0,0,1,3.582-4.587H22.03a3.692,3.692,0,0,1,3.582,4.587l-.25,1a2.386,2.386,0,0,0-.845-.161h-.742a2.972,2.972,0,0,0-.722-.616l-.292-.175A2.607,2.607,0,0,1,21.5,4.618H20.295a3.818,3.818,0,0,0,1.844,3.257l.292.175A1.819,1.819,0,0,1,23.31,9.6v2.252A2.414,2.414,0,0,1,20.9,14.265H18.486a2.414,2.414,0,0,1-2.412-2.412Zm.163,5.564.6,4.78,2.857-2.858L22.549,22.2l.592-4.73,3.5.389a4.6,4.6,0,0,0,5.111-4.574V11.25h2.412v2.412a6.64,6.64,0,0,1-6.633,6.633H26.325V19.089H25.119v7.839a4.241,4.241,0,0,0,.844,2.532l.913,1.218-.428,1.713a4.781,4.781,0,0,0-1.936.627,4.722,4.722,0,0,0-.6-.295v-7a4.221,4.221,0,0,0-8.442,0v7a4.693,4.693,0,0,0-.6.3,4.751,4.751,0,0,0-1.935-.627l-.428-1.712.913-1.218a4.244,4.244,0,0,0,.844-2.532V25.722a4.224,4.224,0,0,0-3.578-4.167,7.127,7.127,0,0,1,5.55-4.138Zm6.469,8.3v8.442a.6.6,0,0,1-.6.6H17.28a.6.6,0,0,1-.6-.6V25.722a3.015,3.015,0,0,1,6.03,0ZM11.383,31.148l.3,1.206H8.4l.3-1.206ZM7.03,25.722a3.015,3.015,0,0,1,6.03,0v1.206a3.032,3.032,0,0,1-.6,1.809l-.9,1.206H8.537l-.9-1.207a3.029,3.029,0,0,1-.6-1.808Zm.6,7.839h4.824a3.6,3.6,0,0,1,1.365.277,4.835,4.835,0,0,0-1.365,3.341H6.427V35.972H5.221v1.206H4.015A3.621,3.621,0,0,1,7.633,33.56Zm7.839.5v.1a1.811,1.811,0,0,0,1.809,1.809H22.1a1.811,1.811,0,0,0,1.809-1.809v-.1a3.636,3.636,0,0,1,1.809,3.12H24.516V35.972H23.31v1.206H16.074V35.972H14.868v1.206H13.662A3.635,3.635,0,0,1,15.471,34.059Zm10.092-.221a3.587,3.587,0,0,1,1.365-.277h4.824a3.621,3.621,0,0,1,3.618,3.618H34.163V35.972H32.957v1.206h-6.03A4.835,4.835,0,0,0,25.563,33.838Z" fill="#453179"/>
    <path id="Trazado_1047612" data-name="Trazado 1047612" d="M6,13h4.824v1.206H6Z" transform="translate(-1.985 -4.764)" fill="#453179"/>
    <path id="Trazado_1047613" data-name="Trazado 1047613" d="M16,13h1.206v1.206H16Z" transform="translate(-5.955 -4.764)" fill="#453179"/>
    <path id="Trazado_1047614" data-name="Trazado 1047614" d="M6,9h7.236v1.206H6Z" transform="translate(-1.985 -3.176)" fill="#453179"/>
  </g>
</svg>
