<svg xmlns="http://www.w3.org/2000/svg" xmlns:xlink="http://www.w3.org/1999/xlink" width="113" height="113" viewBox="0 0 113 113">
  <defs>
    <filter id="Trazado_982547" x="0" y="0" width="113" height="113" filterUnits="userSpaceOnUse">
      <feOffset dy="3" input="SourceAlpha"/>
      <feGaussianBlur stdDeviation="3" result="blur"/>
      <feFlood flood-opacity="0.161"/>
      <feComposite operator="in" in2="blur"/>
      <feComposite in="SourceGraphic"/>
    </filter>
  </defs>
  <g id="Grupo_1207637" data-name="Grupo 1207637" transform="translate(-272 -3323.418)">
    <g id="Grupo_1207351" data-name="Grupo 1207351" transform="translate(0 -7501.408)">
      <g id="Grupo_1204125" data-name="Grupo 1204125" transform="translate(0 6984.49)">
        <g id="Grupo_1203962" data-name="Grupo 1203962" transform="translate(0 1899.461)">
          <g id="Grupo_1203498" data-name="Grupo 1203498" transform="translate(0 -197.72)">
            <g id="Grupo_1202589" data-name="Grupo 1202589" transform="translate(281 2144.596)">
              <g id="Grupo_1172010" data-name="Grupo 1172010" transform="translate(0)">
                <g id="Grupo_1171046" data-name="Grupo 1171046">
                  <g id="Grupo_1148525" data-name="Grupo 1148525">
                    <g transform="matrix(1, 0, 0, 1, -9, -6)" filter="url(#Trazado_982547)">
                      <g id="Trazado_982547-2" data-name="Trazado 982547" transform="translate(9 6)" fill="#edf3fc">
                        <path d="M 47.5 93.5 C 41.28937149047852 93.5 35.26533508300781 92.28397369384766 29.59518623352051 89.88570404052734 C 24.11771965026855 87.56893157958984 19.19813346862793 84.25196075439453 14.97309303283691 80.02691650390625 C 10.74804019927979 75.80186462402344 7.431066513061523 70.88229370117188 5.114293098449707 65.40481567382812 C 2.716026782989502 59.73468017578125 1.5 53.71062850952148 1.5 47.5 C 1.5 41.28937149047852 2.716026782989502 35.26533508300781 5.114293098449707 29.59518623352051 C 7.431066513061523 24.11771965026855 10.74804019927979 19.19813346862793 14.97309303283691 14.97309303283691 C 19.19813346862793 10.74804019927979 24.11771965026855 7.431066513061523 29.59518623352051 5.114293098449707 C 35.26533508300781 2.716026782989502 41.28937149047852 1.5 47.5 1.5 C 53.71062850952148 1.5 59.73468017578125 2.716026782989502 65.40481567382812 5.114293098449707 C 70.88229370117188 7.431066513061523 75.80186462402344 10.74804019927979 80.02691650390625 14.97309303283691 C 84.25196075439453 19.19813346862793 87.56893157958984 24.11771965026855 89.88570404052734 29.59518623352051 C 92.28397369384766 35.26533508300781 93.5 41.28937149047852 93.5 47.5 C 93.5 53.71062850952148 92.28397369384766 59.73468017578125 89.88570404052734 65.40481567382812 C 87.56893157958984 70.88229370117188 84.25196075439453 75.80186462402344 80.02691650390625 80.02691650390625 C 75.80186462402344 84.25196075439453 70.88229370117188 87.56893157958984 65.40481567382812 89.88570404052734 C 59.73468017578125 92.28397369384766 53.71062850952148 93.5 47.5 93.5 Z" stroke="none"/>
                        <path d="M 47.5 3 C 41.49121475219727 3 35.66376876831055 4.176155090332031 30.17950439453125 6.495796203613281 C 24.88084411621094 8.736953735351562 20.12152099609375 11.94598388671875 16.03375244140625 16.03375244140625 C 11.94598388671875 20.12152099609375 8.736953735351562 24.88084411621094 6.495796203613281 30.17950439453125 C 4.176155090332031 35.66376876831055 3 41.49121475219727 3 47.5 C 3 53.50878524780273 4.176155090332031 59.33623123168945 6.495796203613281 64.82049560546875 C 8.736953735351562 70.11915588378906 11.94598388671875 74.87847900390625 16.03375244140625 78.96624755859375 C 20.12152099609375 83.05401611328125 24.88084411621094 86.26304626464844 30.17950439453125 88.50419616699219 C 35.66376876831055 90.82384490966797 41.49121475219727 92 47.5 92 C 53.50878524780273 92 59.33623123168945 90.82384490966797 64.82049560546875 88.50419616699219 C 70.11915588378906 86.26304626464844 74.87847900390625 83.05401611328125 78.96624755859375 78.96624755859375 C 83.05401611328125 74.87847900390625 86.26304626464844 70.11915588378906 88.50419616699219 64.82049560546875 C 90.82384490966797 59.33623123168945 92 53.50878524780273 92 47.5 C 92 41.49121475219727 90.82384490966797 35.66376876831055 88.50419616699219 30.17950439453125 C 86.26304626464844 24.88084411621094 83.05401611328125 20.12152099609375 78.96624755859375 16.03375244140625 C 74.87847900390625 11.94598388671875 70.11915588378906 8.736953735351562 64.82049560546875 6.495796203613281 C 59.33623123168945 4.176155090332031 53.50878524780273 3 47.5 3 M 47.5 0 C 73.7335205078125 0 95 21.2664794921875 95 47.5 C 95 73.7335205078125 73.7335205078125 95 47.5 95 C 21.2664794921875 95 0 73.7335205078125 0 47.5 C 0 21.2664794921875 21.2664794921875 0 47.5 0 Z" stroke="none" fill="#5692e8"/>
                      </g>
                    </g>
                  </g>
                </g>
              </g>
            </g>
          </g>
        </g>
      </g>
    </g>
    <g id="reunion_3321423" transform="translate(295 3342)">
      <g id="Grupo_1207635" data-name="Grupo 1207635">
        <g id="Grupo_1207613" data-name="Grupo 1207613">
          <path id="Trazado_1051336" data-name="Trazado 1051336" d="M38.22,54.98a8.65,8.65,0,0,1,5.51-2.84,1.894,1.894,0,0,0,1-.41l.86.86a4.828,4.828,0,0,0,6.82,0l.86-.86a1.894,1.894,0,0,0,1,.41A8.7,8.7,0,0,1,62,60.78V62H36V60.78a8.647,8.647,0,0,1,2.22-5.8Z" fill="#fcd770"/>
        </g>
        <g id="Grupo_1207614" data-name="Grupo 1207614">
          <path id="Trazado_1051337" data-name="Trazado 1051337" d="M39.66,35.98,41,38H40a2.006,2.006,0,0,0-2,2,2.015,2.015,0,0,0,2,2h2v1a6.992,6.992,0,0,0,3.91,6.28l-.51,1.51a2.013,2.013,0,0,1-1.67,1.35A8.7,8.7,0,0,0,36,60.78V52.09a10.084,10.084,0,0,0-7.89-9.84,1.5,1.5,0,0,1-.42-.15,1.989,1.989,0,0,1-.92-.87,2.081,2.081,0,0,1-.13-.3l-.55-1.65A6.956,6.956,0,0,0,29.92,34H32a2.015,2.015,0,0,0,2-2,2.006,2.006,0,0,0-2-2l1.2-1.8a4.823,4.823,0,0,0,.68-1.58l1.98-.39a2,2,0,0,0,.55-.2l1.09,2.71A2,2,0,0,0,39.35,30H42l-.33.11a3.953,3.953,0,0,0-1.93,1.42A3.912,3.912,0,0,0,39,33.82a3.869,3.869,0,0,0,.66,2.16Z" fill="#ef7385"/>
        </g>
        <g id="Grupo_1207615" data-name="Grupo 1207615">
          <path id="Trazado_1051338" data-name="Trazado 1051338" d="M30,62H16V52l-1.93,1.93A7.071,7.071,0,0,1,2,48.93V42H8v7l1.24-2.17a9.766,9.766,0,0,1,3.51-3.54A9.62,9.62,0,0,1,17.56,42a1.8,1.8,0,0,0,.69-.13v.01L20,48l3-2,3,2,1.69-5.9a1.5,1.5,0,0,0,.42.15A10.084,10.084,0,0,1,36,52.09V62Z" fill="#b4dd7f"/>
        </g>
        <g id="Grupo_1207616" data-name="Grupo 1207616">
          <path id="Trazado_1051339" data-name="Trazado 1051339" d="M59,12a3,3,0,0,0-3,3v6.394A11.907,11.907,0,0,1,54.6,27l3.272,7.239A13.324,13.324,0,0,0,62,24.6V15a3,3,0,0,0-3-3Z" fill="#ef7385"/>
        </g>
        <g id="Grupo_1207617" data-name="Grupo 1207617">
          <path id="Trazado_1051340" data-name="Trazado 1051340" d="M23,45l3.77-3.77a1.989,1.989,0,0,0,.92.87L26,48l-3-2-3,2-1.75-6.12v-.01a1.986,1.986,0,0,0,.93-.69Z" fill="#a0d468"/>
        </g>
        <g id="Grupo_1207618" data-name="Grupo 1207618">
          <path id="Trazado_1051341" data-name="Trazado 1051341" d="M34,17a6.992,6.992,0,0,0,3.91,6.28l-.54,1.62a2.033,2.033,0,0,1-1.51,1.33l-1.98.39L34,25.55a4.784,4.784,0,0,0-2.13-3.97L31,21a6.067,6.067,0,0,0-1-2.34V13a11,11,0,1,1,22,0V26.07a5.5,5.5,0,0,0-.91-.07H48.47a7.268,7.268,0,0,0-2.71.53l-1.63-3.27A6.977,6.977,0,0,0,48,17V11.13a2,2,0,0,0-.97-1.71L43,7H38L34.8,9.4A2.013,2.013,0,0,0,34,11Z" fill="#fcd770"/>
        </g>
        <g id="Grupo_1207619" data-name="Grupo 1207619">
          <path id="Trazado_1051342" data-name="Trazado 1051342" d="M54.62,26.97A6.9,6.9,0,0,1,58,32.91a6.521,6.521,0,0,1-.13,1.33,6.765,6.765,0,0,1-1.03,2.5L56,38v-.87a2,2,0,0,0-.97-1.71L51,33H46l-3.2,2.4A2.013,2.013,0,0,0,42,37v1H41l-1.34-2.02A3.869,3.869,0,0,1,39,33.82a3.912,3.912,0,0,1,.74-2.29,3.953,3.953,0,0,1,1.93-1.42L42,30a7.209,7.209,0,0,1,3.76-3.47A7.268,7.268,0,0,1,48.47,26h2.62a5.5,5.5,0,0,1,.91.07,6.538,6.538,0,0,1,2.62.9Z" fill="#b27946"/>
        </g>
        <g id="Grupo_1207620" data-name="Grupo 1207620">
          <path id="Trazado_1051343" data-name="Trazado 1051343" d="M33.2,28.2,32,30H30V28.81a2,2,0,0,0-1.8-1.99l-5.21-.52a3.234,3.234,0,0,1-2.23-1.21l-.01.01-3.49,1.4A2,2,0,0,0,16,28.35V30H14l-1.34-2.02A3.869,3.869,0,0,1,12,25.82a3.912,3.912,0,0,1,.74-2.29,3.953,3.953,0,0,1,1.93-1.42L15,22a3.995,3.995,0,0,1,4-4h1l1.43-.96A6.239,6.239,0,0,1,24.88,16h.02A6.191,6.191,0,0,1,30,18.66,6.067,6.067,0,0,1,31,21l.87.58A4.784,4.784,0,0,1,34,25.55l-.12,1.07a4.823,4.823,0,0,1-.68,1.58Z" fill="#656d78"/>
        </g>
        <g id="Grupo_1207621" data-name="Grupo 1207621">
          <path id="Trazado_1051344" data-name="Trazado 1051344" d="M8,39v3H2V39a3,3,0,0,1,6,0Z" fill="#f0d0b4"/>
        </g>
        <g id="Grupo_1207622" data-name="Grupo 1207622">
          <path id="Trazado_1051345" data-name="Trazado 1051345" d="M62,15v3H56V15a3,3,0,0,1,6,0Z" fill="#f0d0b4"/>
        </g>
        <g id="Grupo_1207623" data-name="Grupo 1207623">
          <path id="Trazado_1051346" data-name="Trazado 1051346" d="M58,38a2.006,2.006,0,0,1,2,2,2.015,2.015,0,0,1-2,2H56V38Z" fill="#f0d0b4"/>
        </g>
        <g id="Grupo_1207624" data-name="Grupo 1207624">
          <path id="Trazado_1051347" data-name="Trazado 1051347" d="M53.27,51.73l-.86.86a4.828,4.828,0,0,1-6.82,0l-.86-.86a1.882,1.882,0,0,0,.67-.94l.51-1.51a6.991,6.991,0,0,0,6.18,0l.51,1.51a1.882,1.882,0,0,0,.67.94Z" fill="#f0d0b4"/>
        </g>
        <g id="Grupo_1207625" data-name="Grupo 1207625">
          <path id="Trazado_1051348" data-name="Trazado 1051348" d="M56,42v1a7,7,0,1,1-14,0V37a2.013,2.013,0,0,1,.8-1.6L46,33h5l4.03,2.42A2,2,0,0,1,56,37.13V42Z" fill="#f0d0b4"/>
        </g>
        <g id="Grupo_1207626" data-name="Grupo 1207626">
          <path id="Trazado_1051349" data-name="Trazado 1051349" d="M42,38v4H40a2.015,2.015,0,0,1-2-2,2.006,2.006,0,0,1,2-2h2Z" fill="#f0d0b4"/>
        </g>
        <g id="Grupo_1207627" data-name="Grupo 1207627">
          <path id="Trazado_1051350" data-name="Trazado 1051350" d="M44.13,23.26l1.63,3.27A7.209,7.209,0,0,0,42,30H39.35a2,2,0,0,1-1.85-1.26l-1.09-2.71a2.023,2.023,0,0,0,.96-1.13l.54-1.62A6.954,6.954,0,0,0,41,24a6.844,6.844,0,0,0,3.13-.74Z" fill="#f0d0b4"/>
        </g>
        <g id="Grupo_1207628" data-name="Grupo 1207628">
          <path id="Trazado_1051351" data-name="Trazado 1051351" d="M48,11.13V17a6.977,6.977,0,0,1-3.87,6.26A6.844,6.844,0,0,1,41,24a7,7,0,0,1-7-7V11a2.013,2.013,0,0,1,.8-1.6L38,7h5l4.03,2.42A2,2,0,0,1,48,11.13Z" fill="#f0d0b4"/>
        </g>
        <g id="Grupo_1207629" data-name="Grupo 1207629">
          <path id="Trazado_1051352" data-name="Trazado 1051352" d="M32,30a2.006,2.006,0,0,1,2,2,2.015,2.015,0,0,1-2,2H29.92A5.547,5.547,0,0,0,30,33V30Z" fill="#f0d0b4"/>
        </g>
        <g id="Grupo_1207630" data-name="Grupo 1207630">
          <path id="Trazado_1051353" data-name="Trazado 1051353" d="M23,40a6.954,6.954,0,0,0,3.09-.72l.55,1.65a2.082,2.082,0,0,0,.13.3L23,45l-3.82-3.82a2.369,2.369,0,0,0,.28-.55l.45-1.35Z" fill="#f0d0b4"/>
        </g>
        <g id="Grupo_1207631" data-name="Grupo 1207631">
          <path id="Trazado_1051354" data-name="Trazado 1051354" d="M16,33a5.547,5.547,0,0,0,.08,1H14a2.015,2.015,0,0,1-2-2,2.006,2.006,0,0,1,2-2h2Z" fill="#f0d0b4"/>
        </g>
        <g id="Grupo_1207632" data-name="Grupo 1207632">
          <path id="Trazado_1051355" data-name="Trazado 1051355" d="M20.76,25.09a3.234,3.234,0,0,0,2.23,1.21l5.21.52A2,2,0,0,1,30,28.81V33a5.547,5.547,0,0,1-.08,1A6.991,6.991,0,0,1,23,40l-3.09-.72a7.02,7.02,0,0,1-1.86-1.33A6.874,6.874,0,0,1,16.08,34,5.547,5.547,0,0,1,16,33V28.35a2,2,0,0,1,1.26-1.85l3.49-1.4Z" fill="#f0d0b4"/>
        </g>
        <g id="Grupo_1207633" data-name="Grupo 1207633">
          <path id="Trazado_1051356" data-name="Trazado 1051356" d="M38,16h6v1.38a2.493,2.493,0,0,1-.28,1.17A2.611,2.611,0,0,1,41.38,20h-.76a2.611,2.611,0,0,1-2.34-1.45A2.493,2.493,0,0,1,38,17.38Z" fill="#ef7385"/>
        </g>
        <g id="Grupo_1207634" data-name="Grupo 1207634">
          <path id="Trazado_1051357" data-name="Trazado 1051357" d="M46,42h6v1.38a2.493,2.493,0,0,1-.28,1.17A2.611,2.611,0,0,1,49.38,46h-.76a2.611,2.611,0,0,1-2.34-1.45A2.493,2.493,0,0,1,46,43.38Z" fill="#ef7385"/>
        </g>
      </g>
      <g id="Grupo_1207636" data-name="Grupo 1207636">
        <circle id="Elipse_13408" data-name="Elipse 13408" cx="1" cy="1" r="1" transform="translate(19 29)"/>
        <circle id="Elipse_13409" data-name="Elipse 13409" cx="1" cy="1" r="1" transform="translate(25 29)"/>
        <path id="Trazado_1051358" data-name="Trazado 1051358" d="M20.9,33.553l-1.789.9.1.21a4.236,4.236,0,0,0,7.578,0l.1-.211-1.789-.9-.1.212a2.236,2.236,0,0,1-4,0Z"/>
        <circle id="Elipse_13410" data-name="Elipse 13410" cx="1" cy="1" r="1" transform="translate(45 37)"/>
        <circle id="Elipse_13411" data-name="Elipse 13411" cx="1" cy="1" r="1" transform="translate(51 37)"/>
        <circle id="Elipse_13412" data-name="Elipse 13412" cx="1" cy="1" r="1" transform="translate(37 11)"/>
        <circle id="Elipse_13413" data-name="Elipse 13413" cx="1" cy="1" r="1" transform="translate(43 11)"/>
        <path id="Trazado_1051359" data-name="Trazado 1051359" d="M37,17.382A3.635,3.635,0,0,0,37.382,19a3.6,3.6,0,0,0,3.236,2h.764a3.6,3.6,0,0,0,3.236-2A3.635,3.635,0,0,0,45,17.382V15H37ZM39,17h4v.382a1.626,1.626,0,0,1-.171.724A1.609,1.609,0,0,1,41.382,19h-.764A1.619,1.619,0,0,1,39,17.382Z"/>
        <path id="Trazado_1051360" data-name="Trazado 1051360" d="M45,43.382A3.635,3.635,0,0,0,45.382,45a3.6,3.6,0,0,0,3.236,2h.764a3.6,3.6,0,0,0,3.236-2A3.635,3.635,0,0,0,53,43.382V41H45ZM47,43h4v.382a1.626,1.626,0,0,1-.171.724A1.609,1.609,0,0,1,49.382,45h-.764A1.619,1.619,0,0,1,47,43.382Z"/>
        <path id="Trazado_1051361" data-name="Trazado 1051361" d="M63,24.6V15a4,4,0,0,0-8,0v6.4a10.926,10.926,0,0,1-.865,4.216A7.754,7.754,0,0,0,53,25.243V13a12,12,0,0,0-24,0v3.31a7.173,7.173,0,0,0-8.122-.1L19.7,17H19a5.007,5.007,0,0,0-4.947,4.272,4.909,4.909,0,0,0-2.229,7.267l.609.914A2.993,2.993,0,0,0,14,35h1.263A8.014,8.014,0,0,0,18.7,39.736l-.193.58a1,1,0,0,1-.949.684A10.594,10.594,0,0,0,9,45.387V39a4,4,0,0,0-8,0v9.929a8.071,8.071,0,0,0,13.778,5.707L15,54.414V61H7v2H63V60.776a9.679,9.679,0,0,0-8.618-9.629,1,1,0,0,1-.838-.677l-.245-.734A7.994,7.994,0,0,0,57,43h1a3,3,0,0,0,0-6h-.161a7.836,7.836,0,0,0,.924-2.252A14.375,14.375,0,0,0,63,24.6ZM59,13a2,2,0,0,1,2,2v2H57V15A2,2,0,0,1,59,13Zm-2,8.4V19h4v5.6a12.376,12.376,0,0,1-2.132,6.912,7.907,7.907,0,0,0-3-4.888A12.924,12.924,0,0,0,57,21.4ZM41,3A10.011,10.011,0,0,1,51,13V25H48.472a8.315,8.315,0,0,0-2.205.3l-.825-1.649A8,8,0,0,0,49,17V11.132A3.013,3.013,0,0,0,47.544,8.56L43.515,6.143,42.486,7.858l4.029,2.417a1,1,0,0,1,.485.857V17a6,6,0,0,1-12,0V11a1.006,1.006,0,0,1,.4-.8L38,8.25l3.4,2.55,1.2-1.6L38,5.75,34.2,8.6A3.015,3.015,0,0,0,33,11v6a7.993,7.993,0,0,0,3.7,6.735l-.282.847a1,1,0,0,1-.753.665l-.677.135a5.755,5.755,0,0,0-2.561-4.631l-.544-.363a7.144,7.144,0,0,0-.885-2V13A10.013,10.013,0,0,1,41,3Zm3.455,47.471a1,1,0,0,1-.837.677A9.659,9.659,0,0,0,37,54.883v-2.8a11.014,11.014,0,0,0-8.678-10.817,1,1,0,0,1-.731-.66l-.291-.874A8.017,8.017,0,0,0,30.737,35H32a2.992,2.992,0,0,0,1.566-5.547l.464-.7a5.759,5.759,0,0,0,.622-1.268l1.173-.235.743,1.859a2.985,2.985,0,0,0,2.342,1.853,4.913,4.913,0,0,0-.086,5.572l.386.58A2.993,2.993,0,0,0,40,43h1a7.993,7.993,0,0,0,3.7,6.735ZM22.03,45.445l-1.445.964-.963-3.372Zm4.348-2.409-.963,3.372-1.445-.964ZM31,31h1a1,1,0,0,1,0,2H31ZM41,41H40a1,1,0,0,1,0-2h1Zm.421-12H39.354a1,1,0,0,1-.929-.628l-.814-2.037a2.968,2.968,0,0,0,.705-1.12l.2-.613a7.888,7.888,0,0,0,5.131-.063l.764,1.528A8.193,8.193,0,0,0,41.421,29ZM14,33a1,1,0,0,1,0-2h1v2Zm1-4.646V29h-.465l-1.047-1.57a2.909,2.909,0,0,1,1.5-4.372L16,22.721V22a3,3,0,0,1,3-3h1.3l1.685-1.124a5.236,5.236,0,0,1,8.031,3.32l.081.406,1.219.813a3.773,3.773,0,0,1,1.047,5.233L31.465,29H31v-.19a2.991,2.991,0,0,0-2.7-2.985L23.085,25.3A2.308,2.308,0,0,1,21,23H19a4.307,4.307,0,0,0,.305,1.6l-2.42.968A2.986,2.986,0,0,0,15,28.354ZM17,33V28.354a1,1,0,0,1,.628-.928L20.5,26.277a4.313,4.313,0,0,0,2.385,1.017l5.214.521a1,1,0,0,1,.9,1V33a6,6,0,0,1-12,0Zm6,8a7.981,7.981,0,0,0,2.48-.4l.126.379L23,43.586l-2.608-2.607c0-.011.009-.02.013-.03l.115-.346A7.981,7.981,0,0,0,23,41ZM5,37a2,2,0,0,1,2,2v2H3V39A2,2,0,0,1,5,37ZM15.707,48.292l-1.414,1.415A2.4,2.4,0,0,1,15,51.414v.172l-1.636,1.636A6.071,6.071,0,0,1,3,48.929V43H7v8H9V49.265l1.11-1.943A8.593,8.593,0,0,1,17.531,43l1.884,6.59L23,47.2l3.585,2.39,1.784-6.242A9.019,9.019,0,0,1,35,52.087V61H31V51.414a2.4,2.4,0,0,1,.707-1.707l-1.414-1.415A4.385,4.385,0,0,0,29,51.414V61H17V51.414A4.385,4.385,0,0,0,15.707,48.292ZM61,60.776V61H57V58.414a2.4,2.4,0,0,1,.707-1.707l-1.414-1.415A4.385,4.385,0,0,0,55,58.414V61H43V58.414a4.385,4.385,0,0,0-1.293-3.122l-1.414,1.415A2.4,2.4,0,0,1,41,58.414V61H37v-.224a7.68,7.68,0,0,1,6.839-7.641,2.96,2.96,0,0,0,.708-.175l.332.333a5.828,5.828,0,0,0,8.242,0l.333-.333a3.008,3.008,0,0,0,.708.175A7.68,7.68,0,0,1,61,60.776ZM51.646,51.1a2.942,2.942,0,0,0,.268.57l-.207.207a3.829,3.829,0,0,1-5.414,0l-.207-.208a2.93,2.93,0,0,0,.267-.569l.167-.5a7.916,7.916,0,0,0,4.96,0ZM55,43a6,6,0,0,1-12,0V37a1.006,1.006,0,0,1,.4-.8L46,34.25l3.4,2.55,1.2-1.6L46,31.75,42.2,34.6a3.016,3.016,0,0,0-1.119,1.718l-.592-.889a2.909,2.909,0,0,1,1.5-4.372l.721-.24.186-.371A6.2,6.2,0,0,1,48.472,27h2.62a5.909,5.909,0,0,1,5.345,8.426,2.956,2.956,0,0,0-.894-.866l-4.029-2.417-1.029,1.715,4.029,2.417a1,1,0,0,1,.485.857V43Zm4-3a1,1,0,0,1-1,1H57V39h1A1,1,0,0,1,59,40Z"/>
      </g>
    </g>
  </g>
</svg>
