<svg xmlns="http://www.w3.org/2000/svg" xmlns:xlink="http://www.w3.org/1999/xlink" width="113" height="113" viewBox="0 0 113 113">
  <defs>
    <filter id="Trazado_982547" x="0" y="0" width="113" height="113" filterUnits="userSpaceOnUse">
      <feOffset dy="3" input="SourceAlpha"/>
      <feGaussianBlur stdDeviation="3" result="blur"/>
      <feFlood flood-opacity="0.161"/>
      <feComposite operator="in" in2="blur"/>
      <feComposite in="SourceGraphic"/>
    </filter>
  </defs>
  <g id="Grupo_1207681" data-name="Grupo 1207681" transform="translate(-902 -3323.082)">
    <g id="Grupo_1207353" data-name="Grupo 1207353" transform="translate(0 -7501.408)">
      <g id="Grupo_1204127" data-name="Grupo 1204127" transform="translate(0 6984.49)">
        <g id="Grupo_1203960" data-name="Grupo 1203960" transform="translate(0.44 1899.125)">
          <g id="Grupo_1203499" data-name="Grupo 1203499" transform="translate(0 -197.72)">
            <g id="Grupo_1202591" data-name="Grupo 1202591" transform="translate(910.561 2144.596)">
              <g id="Grupo_1172010" data-name="Grupo 1172010" transform="translate(0)">
                <g id="Grupo_1171046" data-name="Grupo 1171046">
                  <g id="Grupo_1148525" data-name="Grupo 1148525">
                    <g transform="matrix(1, 0, 0, 1, -9, -6)" filter="url(#Trazado_982547)">
                      <g id="Trazado_982547-2" data-name="Trazado 982547" transform="translate(9 6)" fill="#edf3fc">
                        <path d="M 47.5 93.5 C 41.28937149047852 93.5 35.26533508300781 92.28397369384766 29.59518623352051 89.88570404052734 C 24.11771965026855 87.56893157958984 19.19813346862793 84.25196075439453 14.97309303283691 80.02691650390625 C 10.74804019927979 75.80186462402344 7.431066513061523 70.88229370117188 5.114293098449707 65.40481567382812 C 2.716026782989502 59.73468017578125 1.5 53.71062850952148 1.5 47.5 C 1.5 41.28937149047852 2.716026782989502 35.26533508300781 5.114293098449707 29.59518623352051 C 7.431066513061523 24.11771965026855 10.74804019927979 19.19813346862793 14.97309303283691 14.97309303283691 C 19.19813346862793 10.74804019927979 24.11771965026855 7.431066513061523 29.59518623352051 5.114293098449707 C 35.26533508300781 2.716026782989502 41.28937149047852 1.5 47.5 1.5 C 53.71062850952148 1.5 59.73468017578125 2.716026782989502 65.40481567382812 5.114293098449707 C 70.88229370117188 7.431066513061523 75.80186462402344 10.74804019927979 80.02691650390625 14.97309303283691 C 84.25196075439453 19.19813346862793 87.56893157958984 24.11771965026855 89.88570404052734 29.59518623352051 C 92.28397369384766 35.26533508300781 93.5 41.28937149047852 93.5 47.5 C 93.5 53.71062850952148 92.28397369384766 59.73468017578125 89.88570404052734 65.40481567382812 C 87.56893157958984 70.88229370117188 84.25196075439453 75.80186462402344 80.02691650390625 80.02691650390625 C 75.80186462402344 84.25196075439453 70.88229370117188 87.56893157958984 65.40481567382812 89.88570404052734 C 59.73468017578125 92.28397369384766 53.71062850952148 93.5 47.5 93.5 Z" stroke="none"/>
                        <path d="M 47.5 3 C 41.49121475219727 3 35.66376876831055 4.176155090332031 30.17950439453125 6.495796203613281 C 24.88084411621094 8.736953735351562 20.12152099609375 11.94598388671875 16.03375244140625 16.03375244140625 C 11.94598388671875 20.12152099609375 8.736953735351562 24.88084411621094 6.495796203613281 30.17950439453125 C 4.176155090332031 35.66376876831055 3 41.49121475219727 3 47.5 C 3 53.50878524780273 4.176155090332031 59.33623123168945 6.495796203613281 64.82049560546875 C 8.736953735351562 70.11915588378906 11.94598388671875 74.87847900390625 16.03375244140625 78.96624755859375 C 20.12152099609375 83.05401611328125 24.88084411621094 86.26304626464844 30.17950439453125 88.50419616699219 C 35.66376876831055 90.82384490966797 41.49121475219727 92 47.5 92 C 53.50878524780273 92 59.33623123168945 90.82384490966797 64.82049560546875 88.50419616699219 C 70.11915588378906 86.26304626464844 74.87847900390625 83.05401611328125 78.96624755859375 78.96624755859375 C 83.05401611328125 74.87847900390625 86.26304626464844 70.11915588378906 88.50419616699219 64.82049560546875 C 90.82384490966797 59.33623123168945 92 53.50878524780273 92 47.5 C 92 41.49121475219727 90.82384490966797 35.66376876831055 88.50419616699219 30.17950439453125 C 86.26304626464844 24.88084411621094 83.05401611328125 20.12152099609375 78.96624755859375 16.03375244140625 C 74.87847900390625 11.94598388671875 70.11915588378906 8.736953735351562 64.82049560546875 6.495796203613281 C 59.33623123168945 4.176155090332031 53.50878524780273 3 47.5 3 M 47.5 0 C 73.7335205078125 0 95 21.2664794921875 95 47.5 C 95 73.7335205078125 73.7335205078125 95 47.5 95 C 21.2664794921875 95 0 73.7335205078125 0 47.5 C 0 21.2664794921875 21.2664794921875 0 47.5 0 Z" stroke="none" fill="#5692e8"/>
                      </g>
                    </g>
                  </g>
                </g>
              </g>
            </g>
          </g>
        </g>
      </g>
    </g>
    <g id="job-offer_5295312" transform="translate(929 3346)">
      <g id="Grupo_1207679" data-name="Grupo 1207679">
        <g id="Grupo_1207659" data-name="Grupo 1207659">
          <path id="Trazado_1051397" data-name="Trazado 1051397" d="M35,46V58a1,1,0,0,1-1,1H22a1,1,0,0,1-1-1V46a1,1,0,0,1,1-1H34a.99.99,0,0,1,1,1Z" fill="#e6e9ed"/>
        </g>
        <g id="Grupo_1207660" data-name="Grupo 1207660">
          <path id="Trazado_1051398" data-name="Trazado 1051398" d="M15,46V58a1,1,0,0,1-1,1H2a1,1,0,0,1-1-1V46a1,1,0,0,1,1-1H14A1,1,0,0,1,15,46Z" fill="#e6e9ed"/>
        </g>
        <g id="Grupo_1207661" data-name="Grupo 1207661">
          <path id="Trazado_1051399" data-name="Trazado 1051399" d="M59,9.39a8.312,8.312,0,0,1-.6,3.11l-1.12,2.79A2.9,2.9,0,0,0,56,15H55V12.24a2,2,0,0,0-1.11-1.79L53,10l-2,2-2-2-2,2L42,9l-2.11,1.41A1.981,1.981,0,0,0,39,12.07V15H37.99a2.885,2.885,0,0,0-1.27.29L35.6,12.5A8.393,8.393,0,0,1,43.39,1h7.22A8.382,8.382,0,0,1,59,9.39Z" fill="#656d78"/>
        </g>
        <g id="Grupo_1207662" data-name="Grupo 1207662">
          <path id="Trazado_1051400" data-name="Trazado 1051400" d="M41,51H56V61H38V51Z" fill="#d3a06c"/>
        </g>
        <g id="Grupo_1207663" data-name="Grupo 1207663">
          <path id="Trazado_1051401" data-name="Trazado 1051401" d="M47,31a4.829,4.829,0,0,0,3.41-1.41L51,29l.99.12A8,8,0,0,1,59,37.06L53,37V35a1,1,0,0,0-1-1H42a1,1,0,0,0-1,1v2l-6,.06a8,8,0,0,1,7.01-7.94L43,29l.59.59A4.829,4.829,0,0,0,47,31Z" fill="#b4dd7f"/>
        </g>
        <g id="Grupo_1207664" data-name="Grupo 1207664">
          <path id="Trazado_1051402" data-name="Trazado 1051402" d="M56,46.87V51H53V47h2A3.657,3.657,0,0,0,56,46.87Z" fill="#b4dd7f"/>
        </g>
        <g id="Grupo_1207665" data-name="Grupo 1207665">
          <path id="Trazado_1051403" data-name="Trazado 1051403" d="M41,47v4H38V46.87A3.657,3.657,0,0,0,39,47Z" fill="#b4dd7f"/>
        </g>
        <g id="Grupo_1207666" data-name="Grupo 1207666">
          <path id="Trazado_1051404" data-name="Trazado 1051404" d="M52,41a3,3,0,0,0,0,6h1v4H41V47h1a3,3,0,0,0,0-6H41V35a1,1,0,0,1,1-1H52a1,1,0,0,1,1,1v6Z" fill="#969faa"/>
        </g>
        <g id="Grupo_1207667" data-name="Grupo 1207667">
          <circle id="Elipse_13419" data-name="Elipse 13419" cx="2" cy="2" r="2" transform="translate(45 38)" fill="#69d6f4"/>
        </g>
        <g id="Grupo_1207668" data-name="Grupo 1207668">
          <path id="Trazado_1051405" data-name="Trazado 1051405" d="M38,46.87A4,4,0,0,1,35,43V37.06L41,37v4h1a3,3,0,0,1,0,6H39A3.657,3.657,0,0,1,38,46.87Z" fill="#f0d0b4"/>
        </g>
        <g id="Grupo_1207669" data-name="Grupo 1207669">
          <path id="Trazado_1051406" data-name="Trazado 1051406" d="M59,37.06V43a3.992,3.992,0,0,1-3,3.87A3.657,3.657,0,0,1,55,47H52a3,3,0,0,1,0-6h1V37Z" fill="#f0d0b4"/>
        </g>
        <g id="Grupo_1207670" data-name="Grupo 1207670">
          <path id="Trazado_1051407" data-name="Trazado 1051407" d="M56,21H54.98c.01-.16.02-.31.02-.47V15h1a2.9,2.9,0,0,1,1.28.29A3,3,0,0,1,56,21Z" fill="#f0d0b4"/>
        </g>
        <g id="Grupo_1207671" data-name="Grupo 1207671">
          <path id="Trazado_1051408" data-name="Trazado 1051408" d="M47,12l2-2,2,2,2-2,.89.45A2,2,0,0,1,55,12.24v8.29c0,.16-.01.31-.02.47a7.148,7.148,0,0,1-1.06,3.33A7.383,7.383,0,0,1,51,27v2l-.59.59a4.828,4.828,0,0,1-6.82,0L43,29V27a7.23,7.23,0,0,1-3.98-6c-.01-.16-.02-.31-.02-.47V12.07a1.981,1.981,0,0,1,.89-1.66L42,9Z" fill="#f0d0b4"/>
        </g>
        <g id="Grupo_1207672" data-name="Grupo 1207672">
          <path id="Trazado_1051409" data-name="Trazado 1051409" d="M37.99,15H39v5.53c0,.16.01.31.02.47H37.99a3,3,0,0,1-3-3,2.974,2.974,0,0,1,1.73-2.71A2.885,2.885,0,0,1,37.99,15Z" fill="#f0d0b4"/>
        </g>
        <g id="Grupo_1207673" data-name="Grupo 1207673">
          <path id="Trazado_1051410" data-name="Trazado 1051410" d="M50,21v1a3,3,0,0,1-6,0V21Z" fill="#f29ed0"/>
        </g>
        <g id="Grupo_1207674" data-name="Grupo 1207674">
          <path id="Trazado_1051411" data-name="Trazado 1051411" d="M31,3H5A1,1,0,0,0,4,4V28a1,1,0,0,0,1,1H31a1,1,0,0,0,1-1V4A1,1,0,0,0,31,3Z" fill="#e6e9ed"/>
        </g>
        <g id="Grupo_1207675" data-name="Grupo 1207675">
          <path id="Trazado_1051412" data-name="Trazado 1051412" d="M21,22a3,3,0,0,1-6,0V19h6Z" fill="#aab2bd"/>
        </g>
        <g id="Grupo_1207676" data-name="Grupo 1207676">
          <path id="Trazado_1051413" data-name="Trazado 1051413" d="M23.99,3.01A8.392,8.392,0,0,0,18.51,1H17.49A8.5,8.5,0,0,0,9,9.49a8.433,8.433,0,0,0,.64,3.24,8.642,8.642,0,0,0,1.85,2.76L15,19h6l3.51-3.51a8.477,8.477,0,0,0-.52-12.48Z" fill="#ffeaa7"/>
        </g>
        <g id="Grupo_1207677" data-name="Grupo 1207677">
          <path id="Trazado_1051414" data-name="Trazado 1051414" d="M21.08,11H19.33l-.16-1.92c0-.05-.01-.11-.01-.16a1.92,1.92,0,1,1,3.84,0v.16A1.92,1.92,0,0,1,21.08,11Z" fill="#fcd770"/>
        </g>
        <g id="Grupo_1207678" data-name="Grupo 1207678">
          <path id="Trazado_1051415" data-name="Trazado 1051415" d="M14.92,7a1.921,1.921,0,0,1,1.91,2.08L16.67,11H14.92A1.92,1.92,0,0,1,13,9.08V8.92A1.912,1.912,0,0,1,14.92,7Z" fill="#fcd770"/>
        </g>
      </g>
      <g id="Grupo_1207680" data-name="Grupo 1207680">
        <circle id="Elipse_13420" data-name="Elipse 13420" cx="1" cy="1" r="1" transform="translate(42 14)"/>
        <circle id="Elipse_13421" data-name="Elipse 13421" cx="1" cy="1" r="1" transform="translate(50 14)"/>
        <path id="Trazado_1051416" data-name="Trazado 1051416" d="M55.854,22H56a3.983,3.983,0,0,0,2.512-7.087l.817-2.042A9.386,9.386,0,0,0,50.615,0h-7.23a9.386,9.386,0,0,0-8.714,12.871l.815,2.037A3.983,3.983,0,0,0,37.993,22h.153A8.166,8.166,0,0,0,42,27.591v.525l-.116.015A9.016,9.016,0,0,0,34,37.063V43a5.015,5.015,0,0,0,.1,1.01c-.035,0-.068-.01-.1-.01H29V38a2,2,0,0,0-2-2H19V30H31a2,2,0,0,0,2-2V4a2,2,0,0,0-2-2H24.319a9.423,9.423,0,0,0-5.805-2H17.485A9.428,9.428,0,0,0,11.68,2H5A2,2,0,0,0,3,4V28a2,2,0,0,0,2,2H17v6H9a2,2,0,0,0-2,2v6H2a2,2,0,0,0-2,2V58a2,2,0,0,0,2,2H14a2,2,0,0,0,2-2V46a2,2,0,0,0-2-2H9V38H27v6H22a2,2,0,0,0-2,2V58a2,2,0,0,0,2,2H34a2,2,0,0,0,2-2V46.974a4.967,4.967,0,0,0,1,.6V62H57V47.576A5,5,0,0,0,60,43V37.062a9.015,9.015,0,0,0-7.884-8.931L52,28.117v-.525A8.166,8.166,0,0,0,55.854,22ZM17.485,2h1.029a7.485,7.485,0,0,1,5.294,12.778l-2.914,2.914L20.42,12h.663A2.921,2.921,0,0,0,24,9.083V8.917a2.917,2.917,0,1,0-5.824.242l.07.841h-.492l.069-.841A2.917,2.917,0,1,0,12,8.917v.166A2.921,2.921,0,0,0,14.917,12h.663l-.474,5.692-2.914-2.914A7.485,7.485,0,0,1,17.485,2Zm-1.738,8h-.83A.918.918,0,0,1,14,9.083V8.917A.918.918,0,0,1,14.917,8a.918.918,0,0,1,.914.993Zm4.422-1.006A.917.917,0,1,1,22,8.917v.166a.918.918,0,0,1-.917.917h-.83ZM16,20h4v2a2,2,0,0,1-4,0Zm1.086-2,.5-6h.826l.5,6ZM5,4H9.761a9.458,9.458,0,0,0,1.017,12.192L14,19.414V22a4,4,0,1,0,8,0V19.414l3.222-3.222A9.458,9.458,0,0,0,26.239,4H31V28H5Zm9,54H2V46H14ZM56,20V16a2,2,0,0,1,0,4ZM35.993,18a2,2,0,0,1,2-2H38v4h-.007A2,2,0,0,1,35.993,18ZM38,12.07V14h-.007a3.9,3.9,0,0,0-.688.07l-.777-1.942A7.386,7.386,0,0,1,43.385,2h7.23a7.386,7.386,0,0,1,6.857,10.128l-.777,1.942A3.984,3.984,0,0,0,56,14V12.236a2.985,2.985,0,0,0-1.658-2.683L52.8,8.783l-1.8,1.8-2-2-2.155,2.155L41.972,7.817,39.336,9.574A2.993,2.993,0,0,0,38,12.07ZM22,58V46H34V58ZM36,43V38.052l4-.042v2.03a4.365,4.365,0,0,0-2.707,1.252l1.414,1.415A2.4,2.4,0,0,1,40.414,42H42a2,2,0,0,1,0,4H39A3,3,0,0,1,36,43Zm16-3a3.96,3.96,0,0,0-2.06.589A2.934,2.934,0,0,0,50,40a3,3,0,0,0-6,0,2.934,2.934,0,0,0,.06.589A3.96,3.96,0,0,0,42,40V35H52Zm0,10H42V48a4,4,0,0,0,4-4,3.953,3.953,0,0,0-.225-1.268,2.934,2.934,0,0,0,2.45,0A3.953,3.953,0,0,0,48,44a4,4,0,0,0,4,4ZM46,40a1,1,0,1,1,1,1A1,1,0,0,1,46,40Zm-6,8v2H39V48Zm8,12V55.618l1.447-.724-.9-1.789L47,53.882l-1.553-.776-.9,1.789L46,55.618V60H39V52H55v8Zm7-10H54V48h1Zm0-4H52a2,2,0,0,1,0-4h1.586a2.4,2.4,0,0,1,1.707.708l1.414-1.415A4.364,4.364,0,0,0,54,40.041v-2.03l4,.042V43A3,3,0,0,1,55,46Zm2.919-9.949L54,36.01V35a2,2,0,0,0-2-2H42a2,2,0,0,0-2,2v1.01l-3.919.041a7.008,7.008,0,0,1,6.051-5.935l.507-.063.24.24a5.828,5.828,0,0,0,8.242,0l.24-.24.507.063A7.009,7.009,0,0,1,57.919,36.051ZM50.553,26.1,50,26.382v2.2l-.293.293a3.829,3.829,0,0,1-5.414,0L44,28.586v-2.2l-.553-.276A6.2,6.2,0,0,1,40,20.528V12.07a1,1,0,0,1,.445-.832l1.583-1.055,5.127,3.076L49,11.414l2,2,2.2-2.2.25.125a.994.994,0,0,1,.553.894v8.292A6.2,6.2,0,0,1,50.553,26.1Z"/>
        <path id="Trazado_1051417" data-name="Trazado 1051417" d="M48.447,17.1l-1.224-.611.725-2.178-1.9-.632-1.275,3.822L47.553,18.9Z"/>
        <path id="Trazado_1051418" data-name="Trazado 1051418" d="M43,22a4,4,0,0,0,8,0V20H43Zm6,0a2,2,0,0,1-4,0Z"/>
        <path id="Trazado_1051419" data-name="Trazado 1051419" d="M31.293,47.293,28,50.586l-3.293-3.293-1.414,1.414L26.586,52l-3.293,3.293,1.414,1.414L28,53.414l3.293,3.293,1.414-1.414L29.414,52l3.293-3.293Z"/>
        <path id="Trazado_1051420" data-name="Trazado 1051420" d="M12.759,48.651l-1.518-1.3-5.3,6.18L4.707,52.293,3.293,53.707l2.764,2.764Z"/>
      </g>
    </g>
  </g>
</svg>
