<svg xmlns="http://www.w3.org/2000/svg" xmlns:xlink="http://www.w3.org/1999/xlink" width="113" height="113" viewBox="0 0 113 113">
  <defs>
    <filter id="Trazado_982547" x="0" y="0" width="113" height="113" filterUnits="userSpaceOnUse">
      <feOffset dy="3" input="SourceAlpha"/>
      <feGaussianBlur stdDeviation="3" result="blur"/>
      <feFlood flood-opacity="0.161"/>
      <feComposite operator="in" in2="blur"/>
      <feComposite in="SourceGraphic"/>
    </filter>
  </defs>
  <g id="Grupo_1207689" data-name="Grupo 1207689" transform="translate(-1217 -3315.418)">
    <g id="Grupo_1207354" data-name="Grupo 1207354" transform="translate(0 -7501.408)">
      <g id="Grupo_1204128" data-name="Grupo 1204128" transform="translate(0 6976.49)">
        <g id="Grupo_1203961" data-name="Grupo 1203961" transform="translate(0.44 1899.461)">
          <g id="Grupo_1203500" data-name="Grupo 1203500" transform="translate(0 -197.72)">
            <g id="Grupo_1202592" data-name="Grupo 1202592" transform="translate(1225.561 2144.596)">
              <g id="Grupo_1172010" data-name="Grupo 1172010" transform="translate(0)">
                <g id="Grupo_1171046" data-name="Grupo 1171046">
                  <g id="Grupo_1148525" data-name="Grupo 1148525">
                    <g transform="matrix(1, 0, 0, 1, -9, -6)" filter="url(#Trazado_982547)">
                      <g id="Trazado_982547-2" data-name="Trazado 982547" transform="translate(9 6)" fill="#edf3fc">
                        <path d="M 47.5 93.5 C 41.28937149047852 93.5 35.26533508300781 92.28397369384766 29.59518623352051 89.88570404052734 C 24.11771965026855 87.56893157958984 19.19813346862793 84.25196075439453 14.97309303283691 80.02691650390625 C 10.74804019927979 75.80186462402344 7.431066513061523 70.88229370117188 5.114293098449707 65.40481567382812 C 2.716026782989502 59.73468017578125 1.5 53.71062850952148 1.5 47.5 C 1.5 41.28937149047852 2.716026782989502 35.26533508300781 5.114293098449707 29.59518623352051 C 7.431066513061523 24.11771965026855 10.74804019927979 19.19813346862793 14.97309303283691 14.97309303283691 C 19.19813346862793 10.74804019927979 24.11771965026855 7.431066513061523 29.59518623352051 5.114293098449707 C 35.26533508300781 2.716026782989502 41.28937149047852 1.5 47.5 1.5 C 53.71062850952148 1.5 59.73468017578125 2.716026782989502 65.40481567382812 5.114293098449707 C 70.88229370117188 7.431066513061523 75.80186462402344 10.74804019927979 80.02691650390625 14.97309303283691 C 84.25196075439453 19.19813346862793 87.56893157958984 24.11771965026855 89.88570404052734 29.59518623352051 C 92.28397369384766 35.26533508300781 93.5 41.28937149047852 93.5 47.5 C 93.5 53.71062850952148 92.28397369384766 59.73468017578125 89.88570404052734 65.40481567382812 C 87.56893157958984 70.88229370117188 84.25196075439453 75.80186462402344 80.02691650390625 80.02691650390625 C 75.80186462402344 84.25196075439453 70.88229370117188 87.56893157958984 65.40481567382812 89.88570404052734 C 59.73468017578125 92.28397369384766 53.71062850952148 93.5 47.5 93.5 Z" stroke="none"/>
                        <path d="M 47.5 3 C 41.49121475219727 3 35.66376876831055 4.176155090332031 30.17950439453125 6.495796203613281 C 24.88084411621094 8.736953735351562 20.12152099609375 11.94598388671875 16.03375244140625 16.03375244140625 C 11.94598388671875 20.12152099609375 8.736953735351562 24.88084411621094 6.495796203613281 30.17950439453125 C 4.176155090332031 35.66376876831055 3 41.49121475219727 3 47.5 C 3 53.50878524780273 4.176155090332031 59.33623123168945 6.495796203613281 64.82049560546875 C 8.736953735351562 70.11915588378906 11.94598388671875 74.87847900390625 16.03375244140625 78.96624755859375 C 20.12152099609375 83.05401611328125 24.88084411621094 86.26304626464844 30.17950439453125 88.50419616699219 C 35.66376876831055 90.82384490966797 41.49121475219727 92 47.5 92 C 53.50878524780273 92 59.33623123168945 90.82384490966797 64.82049560546875 88.50419616699219 C 70.11915588378906 86.26304626464844 74.87847900390625 83.05401611328125 78.96624755859375 78.96624755859375 C 83.05401611328125 74.87847900390625 86.26304626464844 70.11915588378906 88.50419616699219 64.82049560546875 C 90.82384490966797 59.33623123168945 92 53.50878524780273 92 47.5 C 92 41.49121475219727 90.82384490966797 35.66376876831055 88.50419616699219 30.17950439453125 C 86.26304626464844 24.88084411621094 83.05401611328125 20.12152099609375 78.96624755859375 16.03375244140625 C 74.87847900390625 11.94598388671875 70.11915588378906 8.736953735351562 64.82049560546875 6.495796203613281 C 59.33623123168945 4.176155090332031 53.50878524780273 3 47.5 3 M 47.5 0 C 73.7335205078125 0 95 21.2664794921875 95 47.5 C 95 73.7335205078125 73.7335205078125 95 47.5 95 C 21.2664794921875 95 0 73.7335205078125 0 47.5 C 0 21.2664794921875 21.2664794921875 0 47.5 0 Z" stroke="none" fill="#5692e8"/>
                      </g>
                    </g>
                  </g>
                </g>
              </g>
            </g>
          </g>
        </g>
      </g>
    </g>
    <g id="mental-health_8048329" transform="translate(1237.5 3332.427)">
      <g id="Grupo_1207685" data-name="Grupo 1207685" transform="translate(7.5 7.5)">
        <path id="Trazado_1051421" data-name="Trazado 1051421" d="M284.063,123.3a17.423,17.423,0,0,0-15.872-15.872l-.044,7.774a9.685,9.685,0,0,1,8.141,8.142Z" transform="translate(-237.738 -95.772)" fill="#63d6fb"/>
        <path id="Trazado_1051422" data-name="Trazado 1051422" d="M268.148,115.2a9.582,9.582,0,0,1,2.575.761,18.272,18.272,0,0,0,.32-8.054,17.3,17.3,0,0,0-2.851-.481Z" transform="translate(-237.739 -95.772)" fill="#5fbdf0"/>
        <path id="Trazado_1051423" data-name="Trazado 1051423" d="M123.347,276.289a9.685,9.685,0,0,1-8.142-8.141l-7.774.043A17.422,17.422,0,0,0,123.3,284.064Z" transform="translate(-95.772 -237.739)" fill="#63d6fb"/>
        <path id="Trazado_1051424" data-name="Trazado 1051424" d="M216.433,336.144a18.236,18.236,0,0,0,.3,3.322,17.292,17.292,0,0,0,2.851.481l.044-7.774a9.583,9.583,0,0,1-2.575-.761A18.112,18.112,0,0,0,216.433,336.144Z" transform="translate(-192.058 -293.623)" fill="#5fbdf0"/>
        <path id="Trazado_1051425" data-name="Trazado 1051425" d="M115.205,268.148l-7.774.043a17.3,17.3,0,0,0,.481,2.851,18.27,18.27,0,0,0,8.054-.32A9.575,9.575,0,0,1,115.205,268.148Z" transform="translate(-95.772 -237.739)" fill="#5fbdf0"/>
        <path id="Trazado_1051426" data-name="Trazado 1051426" d="M331.412,217.057a9.585,9.585,0,0,1,.761,2.575l7.774-.044a17.3,17.3,0,0,0-.481-2.851,18.274,18.274,0,0,0-8.054.32Z" transform="translate(-293.622 -192.058)" fill="#5fbdf0"/>
        <path id="Trazado_1051427" data-name="Trazado 1051427" d="M21.621,38.366h.522l4.79-.458h0a15.488,15.488,0,0,0,11.02-11.143V19.158h0A15.463,15.463,0,1,0,21.621,38.366Z" transform="translate(-7.5 -7.5)" fill="#eaebeb"/>
        <path id="Trazado_1051428" data-name="Trazado 1051428" d="M129.879,7.5c-.452,0-.9.021-1.341.059a15.462,15.462,0,0,1,0,30.807c.442.038.889.059,1.341.059a15.462,15.462,0,0,0,0-30.924Z" transform="translate(-114.417 -7.5)" fill="#d8dcdc"/>
        <path id="Trazado_1051429" data-name="Trazado 1051429" d="M18.355,295.408l.584,2.178a.483.483,0,0,1-.267.565l-3.94,1.792a.966.966,0,0,1-1.334-.63l-.705-2.632a.966.966,0,0,1,.84-1.212l4.308-.418A.483.483,0,0,1,18.355,295.408Z" transform="translate(-12.058 -261.502)" fill="#ffe751"/>
        <path id="Trazado_1051430" data-name="Trazado 1051430" d="M74.15,388.669l1.594,1.594a.483.483,0,0,1,.052.622l-2.516,3.522a.967.967,0,0,1-1.47.122L69.884,392.6a.966.966,0,0,1,.122-1.47l3.522-2.516A.483.483,0,0,1,74.15,388.669Z" transform="translate(-62.356 -344.074)" fill="#ffe751"/>
        <path id="Trazado_1051431" data-name="Trazado 1051431" d="M176.706,445.4l2.178.584a.483.483,0,0,1,.356.513l-.418,4.308a.966.966,0,0,1-1.212.84l-2.632-.705a.966.966,0,0,1-.63-1.334l1.792-3.94A.483.483,0,0,1,176.706,445.4Z" transform="translate(-154.806 -394.297)" fill="#ffe751"/>
        <path id="Trazado_1051432" data-name="Trazado 1051432" d="M445.989,178.883l-.584-2.178a.483.483,0,0,1,.267-.565l3.94-1.792a.966.966,0,0,1,1.334.63l.705,2.632a.966.966,0,0,1-.84,1.212l-4.308.418A.483.483,0,0,1,445.989,178.883Z" transform="translate(-394.303 -154.806)" fill="#ffe751"/>
        <path id="Trazado_1051433" data-name="Trazado 1051433" d="M390.27,75.745l-1.594-1.594a.483.483,0,0,1-.052-.623l2.516-3.522a.967.967,0,0,1,1.47-.122l1.926,1.927a.966.966,0,0,1-.122,1.47L390.892,75.8A.483.483,0,0,1,390.27,75.745Z" transform="translate(-344.08 -62.356)" fill="#ffe751"/>
        <path id="Trazado_1051434" data-name="Trazado 1051434" d="M297.592,18.938l-2.178-.584a.483.483,0,0,1-.356-.513l.418-4.308a.966.966,0,0,1,1.212-.84l2.632.705a.966.966,0,0,1,.63,1.334l-1.792,3.94A.483.483,0,0,1,297.592,18.938Z" transform="translate(-261.508 -12.057)" fill="#ffe751"/>
        <g id="Grupo_1207682" data-name="Grupo 1207682" transform="translate(27.059 27.059)">
          <path id="Trazado_1051435" data-name="Trazado 1051435" d="M258.7,240.348h0l-4.748-.413h-.4a15.451,15.451,0,1,0,5.145.413Z" transform="translate(-239.433 -239.876)" fill="#eaebeb"/>
          <path id="Trazado_1051436" data-name="Trazado 1051436" d="M361.813,239.433c-.452,0-.9.021-1.341.059a15.462,15.462,0,0,1,0,30.807c.442.038.889.059,1.341.059a15.462,15.462,0,0,0,0-30.924Z" transform="translate(-346.351 -239.433)" fill="#d8dcdc"/>
          <path id="Trazado_1051437" data-name="Trazado 1051437" d="M297.455,327.98l1.79-.187,4.617-2.74,3.813-7.774-3.743-4.579h-2.068a6.872,6.872,0,0,0-2.907,1.61.232.232,0,0,1-.318,0,6.14,6.14,0,0,0-5.722-1.577,4.991,4.991,0,0,0-3.766,5.487c.152,2.009,1.676,6.9,8.3,9.761Z" transform="translate(-283.334 -304.001)" fill="#f75574"/>
          <path id="Trazado_1051438" data-name="Trazado 1051438" d="M367.689,312.735a5.429,5.429,0,0,0-2.814-.033c.044.011.087.021.131.033a4.991,4.991,0,0,1,3.766,5.487c-.152,2.009-1.675,6.9-8.3,9.76.13.056.262.112.4.167a2.508,2.508,0,0,0,1.89,0c6.966-2.83,8.547-7.878,8.7-9.927A4.992,4.992,0,0,0,367.689,312.735Z" transform="translate(-346.346 -304.004)" fill="#f3395e"/>
        </g>
        <g id="Grupo_1207684" data-name="Grupo 1207684" transform="translate(3.865 6.281)">
          <path id="Trazado_1051439" data-name="Trazado 1051439" d="M61.34,69.137h0a.251.251,0,0,1-.035-.206,3.345,3.345,0,0,0,.1-.826,3.382,3.382,0,0,0-3.382-3.382c-.066,0-.132,0-.2.007a.279.279,0,0,1-.212-.078.285.285,0,0,1-.085-.185,3.382,3.382,0,0,0-5.063-2.673.48.48,0,0,1-.484,0,3.381,3.381,0,0,0-5.066,2.725.225.225,0,0,1-.246.214c-.081-.007-.162-.011-.245-.011a3.383,3.383,0,0,0-3.212,4.444,3.383,3.383,0,0,0-2.586,3.376,3.424,3.424,0,0,0,3.445,3.293H60.372a3.428,3.428,0,0,0,3.449-3.206,3.383,3.383,0,0,0-2.351-3.4A.249.249,0,0,1,61.34,69.137Z" transform="translate(-40.632 -61.341)" fill="#fea9d7"/>
          <g id="Grupo_1207683" data-name="Grupo 1207683" transform="translate(12.19)">
            <path id="Trazado_1051440" data-name="Trazado 1051440" d="M153.766,69.232a.246.246,0,0,1-.166-.3,3.346,3.346,0,0,0,.1-.826,3.382,3.382,0,0,0-3.382-3.382c-.066,0-.132,0-.2.007a.279.279,0,0,1-.212-.078.285.285,0,0,1-.085-.185,3.378,3.378,0,0,0-4.712-2.848,3.384,3.384,0,0,1,2.028,2.848.285.285,0,0,0,.085.185.279.279,0,0,0,.212.078c.065,0,.131-.007.2-.007a3.382,3.382,0,0,1,3.382,3.382,3.344,3.344,0,0,1-.1.826.246.246,0,0,0,.166.3,3.383,3.383,0,0,1,2.352,3.365,3.429,3.429,0,0,1-3.45,3.24h2.683a3.429,3.429,0,0,0,3.45-3.24A3.383,3.383,0,0,0,153.766,69.232Z" transform="translate(-145.118 -61.341)" fill="#fe93cd"/>
          </g>
        </g>
      </g>
      <g id="Grupo_1207688" data-name="Grupo 1207688" transform="translate(7.5 7.5)">
        <g id="Grupo_1207686" data-name="Grupo 1207686" transform="translate(3.865 6.281)">
          <path id="Trazado_1051441" data-name="Trazado 1051441" d="M61.239,69.167a3.382,3.382,0,0,0-3.211-4.444,3.413,3.413,0,0,0-.484.035c0-.012,0-.023,0-.035a3.382,3.382,0,0,0-5.315-2.775,3.382,3.382,0,0,0-5.315,2.775c0,.012,0,.023,0,.035a3.381,3.381,0,0,0-3.866,3.347,3.377,3.377,0,0,0,.171,1.061,3.382,3.382,0,0,0,.8,6.67H60.444a3.382,3.382,0,0,0,.8-6.67Z" transform="translate(-40.633 -61.341)" fill="none" stroke="#000" stroke-linecap="round" stroke-linejoin="round" stroke-miterlimit="10" stroke-width="1"/>
          <path id="Trazado_1051442" data-name="Trazado 1051442" d="M68.106,119.325a3.382,3.382,0,0,1-6.765,0" transform="translate(-58.925 -112.56)" fill="none" stroke="#000" stroke-linecap="round" stroke-linejoin="round" stroke-miterlimit="10" stroke-width="1"/>
          <path id="Trazado_1051443" data-name="Trazado 1051443" d="M123.467,61.342a3.382,3.382,0,0,1,3.382,3.382" transform="translate(-113.803 -61.342)" fill="none" stroke="#000" stroke-linecap="round" stroke-linejoin="round" stroke-miterlimit="10" stroke-width="1"/>
          <path id="Trazado_1051444" data-name="Trazado 1051444" d="M184.832,159.982a3.382,3.382,0,0,1-3.382-3.382" transform="translate(-165.021 -145.487)" fill="none" stroke="#000" stroke-linecap="round" stroke-linejoin="round" stroke-miterlimit="10" stroke-width="1"/>
        </g>
        <path id="Trazado_1051445" data-name="Trazado 1051445" d="M13.568,10.68a15.46,15.46,0,1,1-2.887,2.887" transform="translate(-7.5 -7.5)" fill="none" stroke="#000" stroke-linecap="round" stroke-linejoin="round" stroke-miterlimit="10" stroke-width="1"/>
        <path id="Trazado_1051446" data-name="Trazado 1051446" d="M297.853,328.147a2.514,2.514,0,0,0,1.89,0c6.966-2.83,8.547-7.878,8.7-9.927a4.991,4.991,0,0,0-3.766-5.487,6.229,6.229,0,0,0-5.881,1.735,6.229,6.229,0,0,0-5.88-1.735,4.991,4.991,0,0,0-3.766,5.487C289.306,320.269,290.886,325.318,297.853,328.147Z" transform="translate(-256.277 -276.944)" fill="none" stroke="#000" stroke-linecap="round" stroke-linejoin="round" stroke-miterlimit="10" stroke-width="1"/>
        <path id="Trazado_1051447" data-name="Trazado 1051447" d="M245.5,242.614a15.46,15.46,0,1,1-2.887,2.887" transform="translate(-212.375 -212.375)" fill="none" stroke="#000" stroke-linecap="round" stroke-linejoin="round" stroke-miterlimit="10" stroke-width="1"/>
        <path id="Trazado_1051448" data-name="Trazado 1051448" d="M18.355,295.408l.584,2.178a.483.483,0,0,1-.267.565l-3.94,1.792a.966.966,0,0,1-1.334-.63l-.705-2.632a.966.966,0,0,1,.84-1.212l4.308-.418A.483.483,0,0,1,18.355,295.408Z" transform="translate(-12.058 -261.502)" fill="none" stroke="#000" stroke-linecap="round" stroke-linejoin="round" stroke-miterlimit="10" stroke-width="1"/>
        <path id="Trazado_1051449" data-name="Trazado 1051449" d="M74.15,388.669l1.594,1.594a.483.483,0,0,1,.052.622l-2.516,3.522a.967.967,0,0,1-1.47.122L69.884,392.6a.966.966,0,0,1,.122-1.47l3.522-2.516A.483.483,0,0,1,74.15,388.669Z" transform="translate(-62.356 -344.074)" fill="none" stroke="#000" stroke-linecap="round" stroke-linejoin="round" stroke-miterlimit="10" stroke-width="1"/>
        <path id="Trazado_1051450" data-name="Trazado 1051450" d="M176.706,445.4l2.178.584a.483.483,0,0,1,.356.513l-.418,4.308a.966.966,0,0,1-1.212.84l-2.632-.705a.966.966,0,0,1-.63-1.334l1.792-3.94A.483.483,0,0,1,176.706,445.4Z" transform="translate(-154.806 -394.297)" fill="none" stroke="#000" stroke-linecap="round" stroke-linejoin="round" stroke-miterlimit="10" stroke-width="1"/>
        <path id="Trazado_1051451" data-name="Trazado 1051451" d="M445.989,178.883l-.584-2.178a.483.483,0,0,1,.267-.565l3.94-1.792a.966.966,0,0,1,1.334.63l.705,2.632a.966.966,0,0,1-.84,1.212l-4.308.418A.483.483,0,0,1,445.989,178.883Z" transform="translate(-394.303 -154.806)" fill="none" stroke="#000" stroke-linecap="round" stroke-linejoin="round" stroke-miterlimit="10" stroke-width="1"/>
        <path id="Trazado_1051452" data-name="Trazado 1051452" d="M390.27,75.745l-1.594-1.594a.483.483,0,0,1-.052-.623l2.516-3.522a.967.967,0,0,1,1.47-.122l1.926,1.927a.966.966,0,0,1-.122,1.47L390.892,75.8A.483.483,0,0,1,390.27,75.745Z" transform="translate(-344.08 -62.356)" fill="none" stroke="#000" stroke-linecap="round" stroke-linejoin="round" stroke-miterlimit="10" stroke-width="1"/>
        <path id="Trazado_1051453" data-name="Trazado 1051453" d="M297.592,18.938l-2.178-.584a.483.483,0,0,1-.356-.513l.418-4.308a.966.966,0,0,1,1.212-.84l2.632.705a.966.966,0,0,1,.63,1.334l-1.792,3.94A.483.483,0,0,1,297.592,18.938Z" transform="translate(-261.508 -12.057)" fill="none" stroke="#000" stroke-linecap="round" stroke-linejoin="round" stroke-miterlimit="10" stroke-width="1"/>
        <g id="Grupo_1207687" data-name="Grupo 1207687" transform="translate(11.659 11.659)">
          <path id="Trazado_1051454" data-name="Trazado 1051454" d="M268.148,174.066a9.685,9.685,0,0,1,8.141,8.142" transform="translate(-249.398 -166.292)" fill="none" stroke="#000" stroke-linecap="round" stroke-linejoin="round" stroke-miterlimit="10" stroke-width="1"/>
          <path id="Trazado_1051455" data-name="Trazado 1051455" d="M284.392,123.3a17.423,17.423,0,0,0-15.872-15.872" transform="translate(-249.726 -107.431)" fill="none" stroke="#000" stroke-linecap="round" stroke-linejoin="round" stroke-miterlimit="10" stroke-width="1"/>
          <path id="Trazado_1051456" data-name="Trazado 1051456" d="M107.431,268.521A17.422,17.422,0,0,0,123.3,284.393" transform="translate(-107.431 -249.727)" fill="none" stroke="#000" stroke-linecap="round" stroke-linejoin="round" stroke-miterlimit="10" stroke-width="1"/>
          <path id="Trazado_1051457" data-name="Trazado 1051457" d="M182.208,276.289a9.685,9.685,0,0,1-8.142-8.141" transform="translate(-166.292 -249.398)" fill="none" stroke="#000" stroke-linecap="round" stroke-linejoin="round" stroke-miterlimit="10" stroke-width="1"/>
        </g>
      </g>
    </g>
  </g>
</svg>
