<svg xmlns="http://www.w3.org/2000/svg" xmlns:xlink="http://www.w3.org/1999/xlink" width="108" height="108" viewBox="0 0 108 108">
  <defs>
    <filter id="Trazado_904820" x="0" y="0" width="108" height="108" filterUnits="userSpaceOnUse">
      <feOffset dy="3" input="SourceAlpha"/>
      <feGaussianBlur stdDeviation="3" result="blur"/>
      <feFlood flood-opacity="0.161"/>
      <feComposite operator="in" in2="blur"/>
      <feComposite in="SourceGraphic"/>
    </filter>
  </defs>
  <g id="Grupo_1201662" data-name="Grupo 1201662" transform="translate(9 6)">
    <g id="Grupo_1173585" data-name="Grupo 1173585" transform="translate(0 0)">
      <g id="Grupo_1173428" data-name="Grupo 1173428">
        <g id="Grupo_1171958" data-name="Grupo 1171958">
          <g id="Grupo_1167341" data-name="Grupo 1167341">
            <g id="Grupo_1166792" data-name="Grupo 1166792">
              <g transform="matrix(1, 0, 0, 1, -9, -6)" filter="url(#Trazado_904820)">
                <g id="Trazado_904820-2" data-name="Trazado 904820" transform="translate(9 6)" fill="#effbfe">
                  <path d="M 44.99999618530273 88.49999237060547 C 39.12687301635742 88.49999237060547 33.43022155761719 87.35006713867188 28.06829643249512 85.08216857910156 C 22.88852119445801 82.89130401611328 18.23629570007324 79.75457763671875 14.24084663391113 75.75914001464844 C 10.24540901184082 71.76369476318359 7.108683586120605 67.11146545410156 4.917821407318115 61.93169403076172 C 2.649921178817749 56.56976699829102 1.499996185302734 50.87311553955078 1.499996185302734 44.99999237060547 C 1.499996185302734 39.12686920166016 2.649921178817749 33.43021774291992 4.917821407318115 28.06829261779785 C 7.108683586120605 22.88851737976074 10.24540901184082 18.23630523681641 14.24084663391113 14.24085521697998 C 18.23629570007324 10.24540519714355 22.88852119445801 7.108692169189453 28.06829643249512 4.917829990386963 C 33.43022155761719 2.649929761886597 39.12687301635742 1.500004887580872 44.99999618530273 1.500004887580872 C 50.87311935424805 1.500004887580872 56.56977081298828 2.649929761886597 61.93169784545898 4.917829990386963 C 67.11147308349609 7.108692169189453 71.76369476318359 10.24540519714355 75.75914764404297 14.24085521697998 C 79.75458526611328 18.23630523681641 82.89131164550781 22.88851737976074 85.08216857910156 28.06829261779785 C 87.35007476806641 33.43021774291992 88.5 39.12686920166016 88.5 44.99999237060547 C 88.5 50.87311553955078 87.35007476806641 56.56976699829102 85.08216857910156 61.93169403076172 C 82.89131164550781 67.11146545410156 79.75458526611328 71.76369476318359 75.75914764404297 75.75914001464844 C 71.76369476318359 79.75457763671875 67.11147308349609 82.89130401611328 61.93169784545898 85.08216857910156 C 56.56977081298828 87.35006713867188 50.87311935424805 88.49999237060547 44.99999618530273 88.49999237060547 Z" stroke="none"/>
                  <path d="M 44.99999618530273 2.999992370605469 C 39.32870864868164 2.999992370605469 33.82865142822266 4.11004638671875 28.65262603759766 6.299331665039062 C 23.65165710449219 8.414566040039062 19.15968322753906 11.44333648681641 15.301513671875 15.30150604248047 C 11.44333648681641 19.15967559814453 8.414566040039062 23.65164947509766 6.299339294433594 28.65262222290039 C 4.110054016113281 33.82864761352539 2.999992370605469 39.32870483398438 2.999992370605469 44.99999237060547 C 2.999992370605469 50.67127990722656 4.110054016113281 56.17132186889648 6.299339294433594 61.34736633300781 C 8.414566040039062 66.34833526611328 11.44333648681641 70.84029388427734 15.301513671875 74.69846343994141 C 19.15968322753906 78.55663299560547 23.65165710449219 81.58540344238281 28.65262603759766 83.70063781738281 C 33.82865142822266 85.88992309570312 39.32870864868164 86.99997711181641 44.99999618530273 86.99997711181641 C 50.67128372192383 86.99997711181641 56.17134094238281 85.88992309570312 61.34736633300781 83.70063781738281 C 66.34834289550781 81.58540344238281 70.84030914306641 78.55663299560547 74.69847869873047 74.69846343994141 C 78.55665588378906 70.84029388427734 81.58542633056641 66.34833526611328 83.70065307617188 61.34736633300781 C 85.88993835449219 56.17132186889648 87 50.67127990722656 87 44.99999237060547 C 87 39.32870483398438 85.88993835449219 33.82864761352539 83.70065307617188 28.65262222290039 C 81.58542633056641 23.65164947509766 78.55665588378906 19.15967559814453 74.69847869873047 15.30150604248047 C 70.84030914306641 11.44333648681641 66.34834289550781 8.414566040039062 61.34736633300781 6.299331665039062 C 56.17134094238281 4.11004638671875 50.67128372192383 2.999992370605469 44.99999618530273 2.999992370605469 M 44.99999618530273 -7.62939453125e-06 C 69.85281372070312 -7.62939453125e-06 90 20.14717864990234 90 44.99999237060547 C 90 69.85279083251953 69.85281372070312 89.99997711181641 44.99999618530273 89.99997711181641 C 20.14717864990234 89.99997711181641 -7.62939453125e-06 69.85279083251953 -7.62939453125e-06 44.99999237060547 C -7.62939453125e-06 20.14717864990234 20.14717864990234 -7.62939453125e-06 44.99999618530273 -7.62939453125e-06 Z" stroke="none" fill="#497f88"/>
                </g>
              </g>
            </g>
          </g>
        </g>
      </g>
    </g>
    <g id="book-pencil-light_bulb-copywriting-editing-writing" data-name="book-pencil-light bulb-copywriting-editing-writing" transform="translate(15.142 16.071)">
      <path id="Trazado_1051082" data-name="Trazado 1051082" d="M53.43,17V52.287H7V17H26.5a3.714,3.714,0,0,1,3.714,3.714A3.714,3.714,0,0,1,33.929,17Z" transform="translate(-0.357 -1.071)" fill="#f7d4aa"/>
      <path id="Trazado_1051083" data-name="Trazado 1051083" d="M6.714,19V52.43H3V19Z" transform="translate(-0.071 -1.214)" fill="#d18b61"/>
      <path id="Trazado_1051084" data-name="Trazado 1051084" d="M60.714,19V52.43H57V19Z" transform="translate(-3.927 -1.214)" fill="#d18b61"/>
      <path id="Trazado_1051085" data-name="Trazado 1051085" d="M36.286,35v1.857a4.643,4.643,0,1,1-9.286,0V35Z" transform="translate(-1.785 -2.356)" fill="#acabb1"/>
      <path id="Trazado_1051086" data-name="Trazado 1051086" d="M33.072,30.358H25.643V27.767A10.187,10.187,0,0,1,21,19.215a9.922,9.922,0,0,1,.362-2.693,10.215,10.215,0,0,1,19.7,0,9.922,9.922,0,0,1,.362,2.693,10.187,10.187,0,0,1-4.643,8.552v2.591Z" transform="translate(-1.357 -0.5)" fill="#fae058"/>
      <path id="Trazado_1051087" data-name="Trazado 1051087" d="M47.786,58.429H45V51h2.786a3.714,3.714,0,0,1,0,7.429Z" transform="translate(-3.07 -3.498)" fill="#e9e9ea"/>
      <path id="Trazado_1051088" data-name="Trazado 1051088" d="M17.572,58.429,12,54.714,17.572,51l1.857,1.857-1.857,1.857,1.857,1.857Z" transform="translate(-0.714 -3.498)" fill="#e9e9ea"/>
      <path id="Trazado_1051089" data-name="Trazado 1051089" d="M39.358,58.429H18l1.857-1.857L18,54.714l1.857-1.857L18,51H39.358Z" transform="translate(-1.142 -3.498)" fill="#dd636e"/>
      <path id="Trazado_1051090" data-name="Trazado 1051090" d="M41,51h3.714v7.429H41Z" transform="translate(-2.785 -3.498)" fill="#365e7d"/>
      <path id="Trazado_1051091" data-name="Trazado 1051091" d="M7.572,17.857H17.786V16H6.643a.929.929,0,0,0-.929.929v.929H2.929A.929.929,0,0,0,2,18.786v33.43a.929.929,0,0,0,.929.929h6.5V51.287H7.572ZM5.714,51.287H3.857V19.714H5.714Z" transform="translate(0 -1)"/>
      <path id="Trazado_1051092" data-name="Trazado 1051092" d="M59.858,17.857H57.072v-.929A.929.929,0,0,0,56.143,16H45v1.857H55.215v33.43H53.357v1.857h6.5a.929.929,0,0,0,.929-.929V18.786A.929.929,0,0,0,59.858,17.857Zm-.929,33.43H57.072V19.714h1.857Z" transform="translate(-3.07 -1)"/>
      <path id="Trazado_1051093" data-name="Trazado 1051093" d="M45.358,50H17.5a.9.9,0,0,0-.511.158l-5.572,3.714a.919.919,0,0,0,0,1.541l5.572,3.714a.9.9,0,0,0,.511.158H45.358a4.643,4.643,0,0,0,0-9.286ZM16.841,55.3l1.207,1.2-.669.659L13.6,54.643l3.779-2.517.669.659-1.207,1.2a.936.936,0,0,0,0,1.319Zm21.089,2.127H19.738l.279-.269a.936.936,0,0,0,0-1.319l-1.207-1.2,1.207-1.2a.936.936,0,0,0,0-1.319l-.279-.269H37.929Zm3.714,0H39.787V51.857h1.857Zm3.714,0H43.5V51.857h1.857a2.786,2.786,0,0,1,0,5.572Z" transform="translate(-0.643 -3.427)"/>
      <path id="Trazado_1051094" data-name="Trazado 1051094" d="M14,19h3.714v1.857H14Z" transform="translate(-0.857 -1.214)"/>
      <path id="Trazado_1051095" data-name="Trazado 1051095" d="M46,19h3.714v1.857H46Z" transform="translate(-3.141 -1.214)"/>
      <path id="Trazado_1051096" data-name="Trazado 1051096" d="M31.144,8a11.143,11.143,0,0,0-6.5,20.188v2.1a.929.929,0,0,0,.929.929H36.715a.929.929,0,0,0,.929-.929v-2.1A11.143,11.143,0,0,0,31.144,8ZM36.2,26.925a.929.929,0,0,0-.418.771v1.662H33.93V23.786H32.072v5.572H30.215V23.786H28.358v5.572H26.5V27.7a.929.929,0,0,0-.418-.771,9.286,9.286,0,1,1,10.122,0Z" transform="translate(-1.286 -0.428)"/>
      <path id="Trazado_1051097" data-name="Trazado 1051097" d="M25.857,19.429a5.577,5.577,0,0,1,5.572-5.572V12A7.437,7.437,0,0,0,24,19.429Z" transform="translate(-1.571 -0.714)"/>
      <path id="Trazado_1051098" data-name="Trazado 1051098" d="M25,34v1.857h.929v.929a5.572,5.572,0,1,0,11.143,0v-.929H38V34Zm10.215,2.786a3.714,3.714,0,1,1-7.429,0v-.929h7.429Z" transform="translate(-1.642 -2.285)"/>
      <path id="Trazado_1051099" data-name="Trazado 1051099" d="M31,2h1.857V5.714H31Z" transform="translate(-2.071)"/>
      <path id="Trazado_1051100" data-name="Trazado 1051100" d="M0,0H1.857V3.714H0Z" transform="translate(17.379 7.551) rotate(-45)"/>
      <path id="Trazado_1051101" data-name="Trazado 1051101" d="M0,0H3.714V1.857H0Z" transform="translate(38.389 8.868) rotate(-45)"/>
      <path id="Trazado_1051102" data-name="Trazado 1051102" d="M10,29h1.857v1.857H10Z" transform="translate(-0.571 -1.928)"/>
      <path id="Trazado_1051103" data-name="Trazado 1051103" d="M14,29h5.572v1.857H14Z" transform="translate(-0.857 -1.928)"/>
      <path id="Trazado_1051104" data-name="Trazado 1051104" d="M10,33H21.143v1.857H10Z" transform="translate(-0.571 -2.213)"/>
      <path id="Trazado_1051105" data-name="Trazado 1051105" d="M10,37H21.143v1.857H10Z" transform="translate(-0.571 -2.499)"/>
      <path id="Trazado_1051106" data-name="Trazado 1051106" d="M10,41H23v1.857H10Z" transform="translate(-0.571 -2.785)"/>
      <path id="Trazado_1051107" data-name="Trazado 1051107" d="M10,45H26.715v1.857H10Z" transform="translate(-0.571 -3.07)"/>
      <path id="Trazado_1051108" data-name="Trazado 1051108" d="M52,29h1.857v1.857H52Z" transform="translate(-3.57 -1.928)"/>
      <path id="Trazado_1051109" data-name="Trazado 1051109" d="M44,29h5.572v1.857H44Z" transform="translate(-2.999 -1.928)"/>
      <path id="Trazado_1051110" data-name="Trazado 1051110" d="M42,33H53.143v1.857H42Z" transform="translate(-2.856 -2.213)"/>
      <path id="Trazado_1051111" data-name="Trazado 1051111" d="M42,37H53.143v1.857H42Z" transform="translate(-2.856 -2.499)"/>
      <path id="Trazado_1051112" data-name="Trazado 1051112" d="M40,41H53v1.857H40Z" transform="translate(-2.713 -2.785)"/>
      <path id="Trazado_1051113" data-name="Trazado 1051113" d="M36,45H52.715v1.857H36Z" transform="translate(-2.428 -3.07)"/>
      <path id="Trazado_1051114" data-name="Trazado 1051114" d="M10,25h5.572v1.857H10Z" transform="translate(-0.571 -1.642)"/>
      <path id="Trazado_1051115" data-name="Trazado 1051115" d="M48,25h5.572v1.857H48Z" transform="translate(-3.284 -1.642)"/>
    </g>
  </g>
</svg>
