<svg xmlns="http://www.w3.org/2000/svg" width="400" height="140.909" viewBox="0 0 400 140.909">
  <g id="Grupo_1207691" data-name="Grupo 1207691" transform="translate(-1019 -5192.873)">
    <g id="Grupo_1207474" data-name="Grupo 1207474" transform="translate(-0.119)">
      <rect id="vista-posterior-de-la-entrenadora-con-smartphone-apuntando-informacion-financiera-en-papeles-colgados-en-la-pizarra-en-la-oficina" width="400" height="77" transform="translate(1019.119 5229.782)" fill="#27454a"/>
      <rect id="vista-posterior-de-la-entrenadora-con-smartphone-apuntando-informacion-financiera-en-papeles-colgados-en-la-pizarra-en-la-oficina-2" data-name="vista-posterior-de-la-entrenadora-con-smartphone-apuntando-informacion-financiera-en-papeles-colgados-en-la-pizarra-en-la-oficina" width="348" height="131" transform="translate(1045.119 5202.782)" fill="#497f88"/>
    </g>
    <g id="g734" transform="translate(1130.585 5175.916)">
      <g id="Grupo_1207690" data-name="Grupo 1207690" transform="translate(2.415 17.708)">
        <g id="g742" transform="translate(107.721 48.459)">
          <path id="path744" d="M-172.015-64.243c0,12.468-13.531,22.575-30.223,22.575s-30.223-10.107-30.223-22.575,13.531-22.575,30.223-22.575,30.223,10.107,30.223,22.575" transform="translate(232.461 86.818)" fill="#ffc328"/>
        </g>
        <path id="path746" d="M496.51-185.809H448.666v-39.524H496.51Z" transform="translate(-334.601 325.182)" fill="#f48fb1"/>
        <path id="path748" d="M598.165-185.809h8.971v-39.524h-8.971Z" transform="translate(-445.227 325.182)" fill="#f06292"/>
        <g id="g750" transform="translate(133.428 107.528)">
          <path id="path752" d="M-25.941-12.971A4.558,4.558,0,0,1-30.5-8.414a4.558,4.558,0,0,1-4.558-4.558A4.558,4.558,0,0,1-30.5-17.529a4.558,4.558,0,0,1,4.558,4.558" transform="translate(35.057 17.529)" fill="#ffd54f"/>
        </g>
        <path id="path754" d="M523.839-298.81H505.607v-25.028h18.232Z" transform="translate(-376.737 398.074)" fill="#ffc6a1"/>
        <path id="path756" d="M540.665-298.81h9.116v-25.028h-9.116Z" transform="translate(-402.679 398.074)" fill="#fdaa8e"/>
        <g id="g758" transform="translate(122.732 90.835)">
          <path id="path760" d="M-43.412-25.652H-58.667v-9.014h9.53a5.725,5.725,0,0,1,5.725,5.725Z" transform="translate(58.667 34.667)" fill="#e4e4e4"/>
        </g>
        <g id="g762" transform="translate(137.986 90.835)">
          <path id="path764" d="M0-25.652H15.255v-9.014H5.725A5.725,5.725,0,0,0,0-28.942Z" transform="translate(0 34.667)" fill="#e4e4e4"/>
        </g>
        <g id="g766" transform="translate(106.61 49.72)">
          <path id="path768" d="M-33.335-23.559c0,4.572-2.8,8.278-6.254,8.278s-5.46-4.256-5.46-8.828,2.006-7.729,5.46-7.729,6.254,3.706,6.254,8.278" transform="translate(45.049 31.837)" fill="#fd9b7a"/>
        </g>
        <g id="g770" transform="translate(157.649 49.72)">
          <path id="path772" d="M0-23.559c0,4.572,2.8,8.278,6.254,8.278s5.46-4.256,5.46-8.828-2.006-7.729-5.46-7.729S0-28.131,0-23.559" transform="translate(0 31.837)" fill="#fd9b7a"/>
        </g>
        <g id="g774" transform="translate(115.09 21.996)">
          <path id="path776" d="M0-110.424v-17.327a21.476,21.476,0,0,1,21.476-21.476h2.841a21.476,21.476,0,0,1,21.476,21.476v17.327A22.757,22.757,0,0,1,23.036-87.667h-.279A22.757,22.757,0,0,1,0-110.424" transform="translate(0 149.226)" fill="#ffc6a1"/>
        </g>
        <g id="g778" transform="translate(133.372 21.996)">
          <path id="path780" d="M-16.889,0h-2.642a21.709,21.709,0,0,0-3.293.251A21.625,21.625,0,0,1-4.542,21.64V38.629A22.92,22.92,0,0,1-22.824,61.1a22.879,22.879,0,0,0,4.58.461h.069A22.9,22.9,0,0,0,4.686,38.629V21.64A21.608,21.608,0,0,0-16.889,0" transform="translate(22.824)" fill="#fdaa8e"/>
        </g>
        <g id="g782" transform="translate(110.186 16.295)">
          <path id="path784" d="M-9.36-103.489a1.423,1.423,0,0,1-1.559-1.03c-1.828-6.185-8.582-35.33,26.741-35.335,34.1-.006,27.229,28.446,25.134,35.194a1.332,1.332,0,0,1-1.85.8c-4.081-1.949-14.835-18.885-16.327-18.885S8.628-106.43-9.36-103.489" transform="translate(12.649 139.854)" fill="#ffd54f"/>
        </g>
        <g id="g786" transform="translate(133.401 16.295)">
          <path id="path788" d="M-14.957,0c-1.87,0-3.615.087-5.256.243C1.776,2.387,2.84,18.526,1.3,28.574,4.028,32.08,6.7,35.224,8.327,36a1.333,1.333,0,0,0,1.85-.8C12.272,28.446,19.144-.006-14.957,0" transform="translate(20.213 0)" fill="#ffc328"/>
        </g>
        <g id="g790" transform="translate(161.909 99.85)">
          <path id="path792" d="M0-38.32H10.4v-6.531a6.934,6.934,0,0,0-6.934-6.934H0Z" transform="translate(0 51.785)" fill="#ffd54f"/>
        </g>
        <path id="path794" d="M643.066-147.489h-10.4v-26.058h10.4Z" transform="translate(-470.756 286.863)" fill="#ffc6a1"/>
        <path id="path796" d="M97.844-185.809H50v-39.524H97.844Z" transform="translate(-39.599 325.182)" fill="#f48fb1"/>
        <path id="path798" d="M199.5-185.809h8.971v-39.524H199.5Z" transform="translate(-150.225 325.182)" fill="#f06292"/>
        <g id="g800" transform="translate(29.765 107.528)">
          <path id="path802" d="M-25.941-12.971A4.558,4.558,0,0,1-30.5-8.414a4.558,4.558,0,0,1-4.558-4.558A4.558,4.558,0,0,1-30.5-17.529a4.558,4.558,0,0,1,4.558,4.558" transform="translate(35.057 17.529)" fill="#ffd54f"/>
        </g>
        <path id="path804" d="M125.173-298.81H106.941v-25.028h18.232Z" transform="translate(-81.734 398.074)" fill="#ffc6a1"/>
        <path id="path806" d="M142-298.81h9.116v-25.028H142Z" transform="translate(-107.676 398.074)" fill="#fdaa8e"/>
        <g id="g808" transform="translate(19.068 90.835)">
          <path id="path810" d="M-43.412-25.652H-58.667v-9.014h9.53a5.725,5.725,0,0,1,5.725,5.725Z" transform="translate(58.667 34.667)" fill="#e4e4e4"/>
        </g>
        <g id="g812" transform="translate(34.323 90.835)">
          <path id="path814" d="M0-25.652H15.255v-9.014H5.725A5.725,5.725,0,0,0,0-28.942Z" transform="translate(0 34.667)" fill="#e4e4e4"/>
        </g>
        <g id="g816" transform="translate(2.947 49.72)">
          <path id="path818" d="M-33.335-23.559c0,4.572-2.8,8.278-6.254,8.278s-5.46-4.256-5.46-8.828,2.006-7.729,5.46-7.729,6.254,3.706,6.254,8.278" transform="translate(45.049 31.837)" fill="#fd9b7a"/>
        </g>
        <g id="g820" transform="translate(53.986 49.72)">
          <path id="path822" d="M0-23.559c0,4.572,2.8,8.278,6.254,8.278s5.46-4.256,5.46-8.828-2.006-7.729-5.46-7.729S0-28.131,0-23.559" transform="translate(0 31.837)" fill="#fd9b7a"/>
        </g>
        <g id="g824" transform="translate(11.427 21.996)">
          <path id="path826" d="M0-110.424v-17.327a21.476,21.476,0,0,1,21.476-21.476h2.841a21.476,21.476,0,0,1,21.476,21.476v17.327A22.757,22.757,0,0,1,23.036-87.667h-.279A22.757,22.757,0,0,1,0-110.424" transform="translate(0 149.226)" fill="#ffc6a1"/>
        </g>
        <g id="g828" transform="translate(29.709 21.996)">
          <path id="path830" d="M-16.889,0h-2.642a21.709,21.709,0,0,0-3.293.251A21.625,21.625,0,0,1-4.542,21.64V38.629A22.92,22.92,0,0,1-22.824,61.1a22.879,22.879,0,0,0,4.58.461h.069A22.9,22.9,0,0,0,4.686,38.629V21.64A21.608,21.608,0,0,0-16.889,0" transform="translate(22.824)" fill="#fdaa8e"/>
        </g>
        <g id="g832" transform="translate(6.523 16.295)">
          <path id="path834" d="M-9.36-103.489a1.423,1.423,0,0,1-1.559-1.03c-1.828-6.185-8.582-35.33,26.741-35.335,34.1-.006,27.229,28.446,25.134,35.194a1.332,1.332,0,0,1-1.85.8c-4.081-1.949-14.835-18.885-16.327-18.885S8.628-106.43-9.36-103.489" transform="translate(12.649 139.854)" fill="#ffd54f"/>
        </g>
        <g id="g836" transform="translate(29.738 16.295)">
          <path id="path838" d="M-14.957,0c-1.87,0-3.615.087-5.256.243C1.776,2.387,2.84,18.526,1.3,28.574,4.028,32.08,6.7,35.224,8.327,36a1.333,1.333,0,0,0,1.85-.8C12.272,28.446,19.144-.006-14.957,0" transform="translate(20.213 0)" fill="#ffc328"/>
        </g>
        <g id="g840" transform="translate(0 99.85)">
          <path id="path842" d="M-29.6-38.32H-40v-6.531a6.934,6.934,0,0,1,6.934-6.934H-29.6Z" transform="translate(40 51.785)" fill="#ffd54f"/>
        </g>
        <path id="path844" d="M20.4-147.489H10v-26.058H20.4Z" transform="translate(-10 286.863)" fill="#ffc6a1"/>
        <path id="path846" d="M290.138-203.568H234.666v-45.764h55.472Z" transform="translate(-176.247 342.942)" fill="#80deea"/>
        <path id="path848" d="M408-203.568h10.4v-45.764H408Z" transform="translate(-304.509 342.942)" fill="#4dd0e1"/>
        <g id="g850" transform="translate(80.954 103.039)">
          <path id="path852" d="M-29.6-14.8a5.2,5.2,0,0,1-5.2,5.2A5.2,5.2,0,0,1-40-14.8,5.2,5.2,0,0,1-34.8-20a5.2,5.2,0,0,1,5.2,5.2" transform="translate(40 20)" fill="#ffd54f"/>
        </g>
        <path id="path854" d="M322.135-330.6h-20.8v-28.556h20.8Z" transform="translate(-225.579 424.205)" fill="#ffc6a1"/>
        <path id="path856" d="M341.333-330.6h10.4v-28.556h-10.4Z" transform="translate(-255.178 424.205)" fill="#fdaa8e"/>
        <g id="g858" transform="translate(68.473 83.208)">
          <path id="path860" d="M-50.318-29.6H-68V-40h11.061a6.621,6.621,0,0,1,6.621,6.621Z" transform="translate(68 40)" fill="#e4e4e4"/>
        </g>
        <g id="g862" transform="translate(86.155 83.208)">
          <path id="path864" d="M0-29.6H17.682V-40H6.621A6.621,6.621,0,0,0,0-33.379Z" transform="translate(0 40)" fill="#e4e4e4"/>
        </g>
        <g id="g866" transform="translate(50.791 37.56)">
          <path id="path868" d="M-37.571-26.474c0,5.138-3.156,9.3-7.048,9.3s-6.154-4.783-6.154-9.921,2.261-8.685,6.154-8.685,7.048,4.165,7.048,9.3" transform="translate(50.773 35.777)" fill="#fd9b7a"/>
        </g>
        <g id="g870" transform="translate(108.316 37.56)">
          <path id="path872" d="M0-26.474c0,5.138,3.156,9.3,7.048,9.3S13.2-21.955,13.2-27.092s-2.261-8.685-6.154-8.685S0-31.612,0-26.474" transform="translate(0 35.777)" fill="#fd9b7a"/>
        </g>
        <g id="g874" transform="translate(60.349 6.406)">
          <path id="path876" d="M0-123.529V-142.62a24.317,24.317,0,0,1,24.317-24.317h2.977A24.317,24.317,0,0,1,51.611-142.62v19.091A25.767,25.767,0,0,1,25.845-97.762h-.078A25.767,25.767,0,0,1,0-123.529" transform="translate(0 166.937)" fill="#ffc6a1"/>
        </g>
        <g id="g878" transform="translate(80.954 6.406)">
          <path id="path880" d="M-19.036,0h-2.977a24.528,24.528,0,0,0-3.712.282A24.323,24.323,0,0,1-5.12,24.317V43.408A25.776,25.776,0,0,1-25.725,68.657a25.889,25.889,0,0,0,5.162.518h.078A25.767,25.767,0,0,0,5.281,43.408V24.317A24.317,24.317,0,0,0-19.036,0" transform="translate(25.725)" fill="#fdaa8e"/>
        </g>
        <g id="g882" transform="translate(54.822 0)">
          <path id="path884" d="M-95.132-42.748c-2.117,4.783-11.575,23.675-29.722,25.843a1.634,1.634,0,0,1-1.757-1.158c-2.06-6.951-9.672-39.7,30.139-39.707C-58.037-57.775-65.783-25.8-68.144-18.22a1.5,1.5,0,0,1-2.086.9c-4.6-2.19-18.186-9.788-24.038-25.408a.467.467,0,0,0-.864-.023" transform="translate(128.561 57.769)" fill="#d67b42"/>
        </g>
        <g id="g886" transform="translate(81.662 0)">
          <path id="path888" d="M-14.936,0q-2.776,0-5.248.208C8.492,2.631,6.391,25.678,3.942,36.087a50.318,50.318,0,0,0,7.365,4.365,1.5,1.5,0,0,0,2.086-.9C15.754,31.965,23.5-.006-14.936,0" transform="translate(20.184 0)" fill="#bf6724"/>
        </g>
        <g id="g890" transform="translate(45.938 93.609)">
          <path id="path892" d="M-35.519-45.626H-48v-9.1a6.934,6.934,0,0,1,6.934-6.934h5.547Z" transform="translate(48 61.659)" fill="#f78e36"/>
        </g>
        <g id="g894" transform="translate(113.891 93.609)">
          <path id="path896" d="M0-45.626H12.481v-9.1a6.934,6.934,0,0,0-6.934-6.934H0Z" transform="translate(0 61.659)" fill="#f78e36"/>
        </g>
        <path id="path898" d="M199.147-157.943H186.666v-29.732h12.481Z" transform="translate(-140.729 297.316)" fill="#ffc6a1"/>
        <path id="path900" d="M460.48-157.943H448v-29.732H460.48Z" transform="translate(-334.108 297.316)" fill="#ffc6a1"/>
        <path id="path902" d="M290.138-203.568H234.666v-45.764h55.472Z" transform="translate(-176.247 342.942)" fill="none" stroke="#000" stroke-linecap="round" stroke-linejoin="round" stroke-miterlimit="10" stroke-width="1.5"/>
        <g id="g904" transform="translate(80.954 103.039)">
          <path id="path906" d="M-29.6-14.8a5.2,5.2,0,0,1-5.2,5.2A5.2,5.2,0,0,1-40-14.8,5.2,5.2,0,0,1-34.8-20,5.2,5.2,0,0,1-29.6-14.8Z" transform="translate(40 20)" fill="none" stroke="#000" stroke-linecap="round" stroke-linejoin="round" stroke-miterlimit="10" stroke-width="1.5"/>
        </g>
        <g id="g908" transform="translate(75.754 73.41)">
          <path id="path910" d="M0-26.665v-9.37" transform="translate(0 36.035)" fill="none" stroke="#000" stroke-linecap="round" stroke-linejoin="round" stroke-miterlimit="10" stroke-width="1.5"/>
        </g>
        <g id="g912" transform="translate(96.556 73.41)">
          <path id="path914" d="M0-26.665v-9.37" transform="translate(0 36.035)" fill="none" stroke="#000" stroke-linecap="round" stroke-linejoin="round" stroke-miterlimit="10" stroke-width="1.5"/>
        </g>
        <g id="g916" transform="translate(68.473 83.208)">
          <path id="path918" d="M-50.318-29.6H-68V-40h11.061a6.621,6.621,0,0,1,6.621,6.621Z" transform="translate(68 40)" fill="none" stroke="#000" stroke-linecap="round" stroke-linejoin="round" stroke-miterlimit="10" stroke-width="1.5"/>
        </g>
        <g id="g920" transform="translate(86.155 83.208)">
          <path id="path922" d="M0-29.6H17.682V-40H6.621A6.621,6.621,0,0,0,0-33.379Z" transform="translate(0 40)" fill="none" stroke="#000" stroke-linecap="round" stroke-linejoin="round" stroke-miterlimit="10" stroke-width="1.5"/>
        </g>
        <g id="g924" transform="translate(50.792 37.744)">
          <path id="path926" d="M-27.2-49.135a5.742,5.742,0,0,1-3.4,1.156c-3.893,0-6.154-4.783-6.154-9.921,0-4.453,1.7-7.711,4.686-8.5" transform="translate(36.76 66.401)" fill="none" stroke="#000" stroke-linecap="round" stroke-linejoin="round" stroke-miterlimit="10" stroke-width="1.5"/>
        </g>
        <g id="g928" transform="translate(111.959 37.634)">
          <path id="path930" d="M0-49.448a5.743,5.743,0,0,0,3.405,1.156c3.893,0,6.154-4.783,6.154-9.921,0-4.705-1.9-8.076-5.206-8.611" transform="translate(0 66.824)" fill="none" stroke="#000" stroke-linecap="round" stroke-linejoin="round" stroke-miterlimit="10" stroke-width="1.5"/>
        </g>
        <g id="g932" transform="translate(60.35 39.86)">
          <path id="path934" d="M-146.869,0V9.954A25.765,25.765,0,0,1-172.635,35.72h-.077A25.765,25.765,0,0,1-198.478,9.954V.725" transform="translate(198.478)" fill="none" stroke="#000" stroke-linecap="round" stroke-linejoin="round" stroke-miterlimit="10" stroke-width="1.5"/>
        </g>
        <g id="g936" transform="translate(81.649 58.379)">
          <path id="path938" d="M-25.645,0c-1.369.382-2.938,1.4-4.506,1.4S-33.287.382-34.656,0" transform="translate(34.656)" fill="none" stroke="#000" stroke-linecap="round" stroke-linejoin="round" stroke-miterlimit="10" stroke-width="1.5"/>
        </g>
        <g id="g940" transform="translate(54.822 0)">
          <path id="path942" d="M-46.423-6.573a47.909,47.909,0,0,1,15.775-2.31C7.787-8.889.041,23.083-2.32,30.666a1.5,1.5,0,0,1-2.086.9C-9,29.379-22.592,21.781-28.444,6.162a.467.467,0,0,0-.864-.023c-2.117,4.783-11.575,23.675-29.722,25.843a1.635,1.635,0,0,1-1.757-1.158C-62.189,26.093-66.164,9.407-56-.767" transform="translate(62.736 8.883)" fill="none" stroke="#000" stroke-linecap="round" stroke-linejoin="round" stroke-miterlimit="10" stroke-width="1.5"/>
        </g>
        <g id="g944" transform="translate(75.963 41.81)">
          <path id="path946" d="M0,0V1.484" fill="none" stroke="#000" stroke-linecap="round" stroke-linejoin="round" stroke-miterlimit="10" stroke-width="1.5"/>
        </g>
        <g id="g948" transform="translate(96.346 41.81)">
          <path id="path950" d="M0,0V1.484" fill="none" stroke="#000" stroke-linecap="round" stroke-linejoin="round" stroke-miterlimit="10" stroke-width="1.5"/>
        </g>
        <g id="g952" transform="translate(45.938 93.609)">
          <path id="path954" d="M-35.519-45.626H-48v-9.1a6.934,6.934,0,0,1,6.934-6.934h5.547Z" transform="translate(48 61.659)" fill="none" stroke="#000" stroke-linecap="round" stroke-linejoin="round" stroke-miterlimit="10" stroke-width="1.5"/>
        </g>
        <g id="g956" transform="translate(113.891 93.609)">
          <path id="path958" d="M0-45.626H12.481v-9.1a6.934,6.934,0,0,0-6.934-6.934H0Z" transform="translate(0 61.659)" fill="none" stroke="#000" stroke-linecap="round" stroke-linejoin="round" stroke-miterlimit="10" stroke-width="1.5"/>
        </g>
        <path id="path960" d="M199.147-157.943H186.666v-29.732h12.481Z" transform="translate(-140.729 297.316)" fill="none" stroke="#000" stroke-linecap="round" stroke-linejoin="round" stroke-miterlimit="10" stroke-width="1.5"/>
        <path id="path962" d="M460.48-157.943H448v-29.732H460.48Z" transform="translate(-334.108 297.316)" fill="none" stroke="#000" stroke-linecap="round" stroke-linejoin="round" stroke-miterlimit="10" stroke-width="1.5"/>
        <g id="g964" transform="translate(107.722 65.512)">
          <path id="path966" d="M-43.616-71.624c-9.152-3.88-15.327-11.225-15.327-19.647a17.253,17.253,0,0,1,.91-5.522" transform="translate(58.943 96.793)" fill="none" stroke="#000" stroke-linecap="round" stroke-linejoin="round" stroke-miterlimit="10" stroke-width="1.5"/>
        </g>
        <g id="g968" transform="translate(152.813 65.093)">
          <path id="path970" d="M-40.686,0a17.3,17.3,0,0,1,1.057,5.941c0,8.431-6.187,15.782-15.354,19.659" transform="translate(54.983)" fill="none" stroke="#000" stroke-linecap="round" stroke-linejoin="round" stroke-miterlimit="10" stroke-width="1.5"/>
        </g>
        <g id="g972" transform="translate(114.064 139.373)">
          <path id="path974" d="M-78.615,0H-106.24" transform="translate(106.24)" fill="none" stroke="#000" stroke-linecap="round" stroke-linejoin="round" stroke-miterlimit="10" stroke-width="1.5"/>
        </g>
        <g id="g976" transform="translate(127.26 99.85)">
          <path id="path978" d="M0,0H34.648V39.524H25.488" fill="none" stroke="#000" stroke-linecap="round" stroke-linejoin="round" stroke-miterlimit="10" stroke-width="1.5"/>
        </g>
        <g id="g980" transform="translate(133.428 107.528)">
          <path id="path982" d="M-25.941-12.971A4.558,4.558,0,0,1-30.5-8.414a4.558,4.558,0,0,1-4.558-4.558A4.558,4.558,0,0,1-30.5-17.529,4.558,4.558,0,0,1-25.941-12.971Z" transform="translate(35.057 17.529)" fill="none" stroke="#000" stroke-linecap="round" stroke-linejoin="round" stroke-miterlimit="10" stroke-width="1.5"/>
        </g>
        <g id="g984" transform="translate(128.872 82.781)">
          <path id="path986" d="M0-22.48v-7.9" transform="translate(0 30.38)" fill="none" stroke="#000" stroke-linecap="round" stroke-linejoin="round" stroke-miterlimit="10" stroke-width="1.5"/>
        </g>
        <g id="g988" transform="translate(147.101 82.781)">
          <path id="path990" d="M0-22.48v-7.9" transform="translate(0 30.38)" fill="none" stroke="#000" stroke-linecap="round" stroke-linejoin="round" stroke-miterlimit="10" stroke-width="1.5"/>
        </g>
        <g id="g992" transform="translate(122.732 90.835)">
          <path id="path994" d="M0-7.893v-2.774" transform="translate(0 10.667)" fill="none" stroke="#000" stroke-linecap="round" stroke-linejoin="round" stroke-miterlimit="10" stroke-width="1.5"/>
        </g>
        <g id="g996" transform="translate(122.732 90.835)">
          <path id="path998" d="M0,0H9.53a5.725,5.725,0,0,1,5.725,5.725V9.014H4.529" fill="none" stroke="#000" stroke-linecap="round" stroke-linejoin="round" stroke-miterlimit="10" stroke-width="1.5"/>
        </g>
        <g id="g1000" transform="translate(137.986 90.835)">
          <path id="path1002" d="M0-25.652H15.255v-9.014H5.725A5.725,5.725,0,0,0,0-28.942Z" transform="translate(0 34.667)" fill="none" stroke="#000" stroke-linecap="round" stroke-linejoin="round" stroke-miterlimit="10" stroke-width="1.5"/>
        </g>
        <g id="g1004" transform="translate(161.243 49.828)">
          <path id="path1006" d="M0-44.579a5,5,0,0,0,2.66.784c3.454,0,5.46-4.257,5.46-8.829,0-4.078-1.6-7.029-4.391-7.62" transform="translate(0 60.244)" fill="none" stroke="#000" stroke-linecap="round" stroke-linejoin="round" stroke-miterlimit="10" stroke-width="1.5"/>
        </g>
        <g id="g1008" transform="translate(115.09 51.589)">
          <path id="path1010" d="M-130.314,0V9.208a22.758,22.758,0,0,1-22.757,22.757h-.277A22.758,22.758,0,0,1-176.106,9.208v-3.8" transform="translate(176.106)" fill="none" stroke="#000" stroke-linecap="round" stroke-linejoin="round" stroke-miterlimit="10" stroke-width="1.5"/>
        </g>
        <g id="g1012" transform="translate(133.989 68.247)">
          <path id="path1014" d="M-22.753,0c-1.215.34-2.606,1.248-4,1.248S-29.533.34-30.748,0" transform="translate(30.748)" fill="none" stroke="#000" stroke-linecap="round" stroke-linejoin="round" stroke-miterlimit="10" stroke-width="1.5"/>
        </g>
        <g id="g1016" transform="translate(117.792 16.295)">
          <path id="path1018" d="M0-16.395c4.324-3.452,10.93-5.759,20.865-5.761C54.966-22.161,48.094,6.29,46,13.039a1.332,1.332,0,0,1-1.85.8C40.068,11.893,29.314-5.043,27.822-5.043c-1.259,0-10.457,11.6-24.1,17" transform="translate(0 22.156)" fill="none" stroke="#000" stroke-linecap="round" stroke-linejoin="round" stroke-miterlimit="10" stroke-width="1.5"/>
        </g>
        <g id="g1020" transform="translate(128.944 53.502)">
          <path id="path1022" d="M0,0V1.32" fill="none" stroke="#000" stroke-linecap="round" stroke-linejoin="round" stroke-miterlimit="10" stroke-width="1.5"/>
        </g>
        <g id="g1024" transform="translate(147.029 53.502)">
          <path id="path1026" d="M0,0V1.32" fill="none" stroke="#000" stroke-linecap="round" stroke-linejoin="round" stroke-miterlimit="10" stroke-width="1.5"/>
        </g>
        <g id="g1028" transform="translate(161.909 99.85)">
          <path id="path1030" d="M0-38.32H10.4v-6.531a6.934,6.934,0,0,0-6.934-6.934H0Z" transform="translate(0 51.785)" fill="none" stroke="#000" stroke-linecap="round" stroke-linejoin="round" stroke-miterlimit="10" stroke-width="1.5"/>
        </g>
        <path id="path1032" d="M643.066-147.489h-10.4v-26.058h10.4Z" transform="translate(-470.756 286.863)" fill="none" stroke="#000" stroke-linecap="round" stroke-linejoin="round" stroke-miterlimit="10" stroke-width="1.5"/>
        <g id="g1034" transform="translate(108.268 63.944)">
          <path id="path1036" d="M-20.188-3.116A5.16,5.16,0,0,1-23.48-1.877a4.524,4.524,0,0,1-3.8-2.333" transform="translate(27.283 4.211)" fill="none" stroke="#000" stroke-linecap="round" stroke-linejoin="round" stroke-miterlimit="10" stroke-width="1.5"/>
        </g>
        <g id="g1038" transform="translate(10.401 99.85)">
          <path id="path1040" d="M-101.13-112.476h-35.537V-152h34.894" transform="translate(136.666 152)" fill="none" stroke="#000" stroke-linecap="round" stroke-linejoin="round" stroke-miterlimit="10" stroke-width="1.5"/>
        </g>
        <g id="g1042" transform="translate(29.765 107.528)">
          <path id="path1044" d="M-25.941-12.971A4.558,4.558,0,0,1-30.5-8.414a4.558,4.558,0,0,1-4.558-4.558A4.558,4.558,0,0,1-30.5-17.529,4.558,4.558,0,0,1-25.941-12.971Z" transform="translate(35.057 17.529)" fill="none" stroke="#000" stroke-linecap="round" stroke-linejoin="round" stroke-miterlimit="10" stroke-width="1.5"/>
        </g>
        <g id="g1046" transform="translate(25.209 82.155)">
          <path id="path1048" d="M0-23.129v-8.127" transform="translate(0 31.256)" fill="none" stroke="#000" stroke-linecap="round" stroke-linejoin="round" stroke-miterlimit="10" stroke-width="1.5"/>
        </g>
        <g id="g1050" transform="translate(43.438 82.155)">
          <path id="path1052" d="M0,0V8.127" fill="none" stroke="#000" stroke-linecap="round" stroke-linejoin="round" stroke-miterlimit="10" stroke-width="1.5"/>
        </g>
        <g id="g1054" transform="translate(19.068 90.835)">
          <path id="path1056" d="M-43.412-25.652H-58.667v-9.014h9.53a5.725,5.725,0,0,1,5.725,5.725Z" transform="translate(58.667 34.667)" fill="none" stroke="#000" stroke-linecap="round" stroke-linejoin="round" stroke-miterlimit="10" stroke-width="1.5"/>
        </g>
        <g id="g1058" transform="translate(34.323 90.835)">
          <path id="path1060" d="M-43.412-7.893v-2.774h-9.53a5.725,5.725,0,0,0-5.725,5.725v3.289H-47.7" transform="translate(58.667 10.667)" fill="none" stroke="#000" stroke-linecap="round" stroke-linejoin="round" stroke-miterlimit="10" stroke-width="1.5"/>
        </g>
        <g id="g1062" transform="translate(2.947 49.8)">
          <path id="path1064" d="M-24.636-43.584a5.133,5.133,0,0,1-3.2,1.162c-3.454,0-5.46-4.257-5.46-8.829,0-4.149,1.652-7.132,4.539-7.649" transform="translate(33.293 58.9)" fill="none" stroke="#000" stroke-linecap="round" stroke-linejoin="round" stroke-miterlimit="10" stroke-width="1.5"/>
        </g>
        <g id="g1066" transform="translate(11.427 52.355)">
          <path id="path1068" d="M-8.133-55.468a22.653,22.653,0,0,1-2.858-11.049V-74.96" transform="translate(10.991 74.96)" fill="none" stroke="#000" stroke-linecap="round" stroke-linejoin="round" stroke-miterlimit="10" stroke-width="1.5"/>
        </g>
        <g id="g1070" transform="translate(21.792 57.72)">
          <path id="path1072" d="M-100.819,0V3.077a22.758,22.758,0,0,1-22.757,22.757h-.277a22.654,22.654,0,0,1-12.393-3.667" transform="translate(136.246)" fill="none" stroke="#000" stroke-linecap="round" stroke-linejoin="round" stroke-miterlimit="10" stroke-width="1.5"/>
        </g>
        <g id="g1074" transform="translate(30.326 68.247)">
          <path id="path1076" d="M-22.753,0c-1.215.34-2.606,1.248-4,1.248S-29.533.34-30.748,0" transform="translate(30.748)" fill="none" stroke="#000" stroke-linecap="round" stroke-linejoin="round" stroke-miterlimit="10" stroke-width="1.5"/>
        </g>
        <g id="g1078" transform="translate(6.523 16.295)">
          <path id="path1080" d="M-123.824-76.832c-3.725-4.881-7.273-9.886-8.084-9.886-1.493,0-14.152,16.312-32.139,19.253a1.423,1.423,0,0,1-1.559-1.031c-1.828-6.185-8.582-35.329,26.741-35.335,8.794,0,14.863,1.89,18.992,4.813" transform="translate(167.336 103.83)" fill="none" stroke="#000" stroke-linecap="round" stroke-linejoin="round" stroke-miterlimit="10" stroke-width="1.5"/>
        </g>
        <g id="g1082" transform="translate(25.281 53.502)">
          <path id="path1084" d="M0,0V1.32" fill="none" stroke="#000" stroke-linecap="round" stroke-linejoin="round" stroke-miterlimit="10" stroke-width="1.5"/>
        </g>
        <g id="g1086" transform="translate(43.366 53.502)">
          <path id="path1088" d="M0,0V1.32" fill="none" stroke="#000" stroke-linecap="round" stroke-linejoin="round" stroke-miterlimit="10" stroke-width="1.5"/>
        </g>
        <g id="g1090" transform="translate(0 99.85)">
          <path id="path1092" d="M-29.6-38.32H-40v-6.531a6.934,6.934,0,0,1,6.934-6.934H-29.6Z" transform="translate(40 51.785)" fill="none" stroke="#000" stroke-linecap="round" stroke-linejoin="round" stroke-miterlimit="10" stroke-width="1.5"/>
        </g>
        <path id="path1094" d="M20.4-147.489H10v-26.058H20.4Z" transform="translate(-10 286.863)" fill="none" stroke="#000" stroke-linecap="round" stroke-linejoin="round" stroke-miterlimit="10" stroke-width="1.5"/>
        <g id="g1096" transform="translate(57.219 63.856)">
          <path id="path1098" d="M0-3.964A5.085,5.085,0,0,0,3.021-2.936,4.561,4.561,0,0,0,6.879-5.357" transform="translate(0 5.357)" fill="none" stroke="#000" stroke-linecap="round" stroke-linejoin="round" stroke-miterlimit="10" stroke-width="1.5"/>
        </g>
      </g>
    </g>
  </g>
</svg>
