<svg xmlns="http://www.w3.org/2000/svg" xmlns:xlink="http://www.w3.org/1999/xlink" width="113" height="113" viewBox="0 0 113 113">
  <defs>
    <filter id="Trazado_982547" x="0" y="0" width="113" height="113" filterUnits="userSpaceOnUse">
      <feOffset dy="3" input="SourceAlpha"/>
      <feGaussianBlur stdDeviation="3" result="blur"/>
      <feFlood flood-opacity="0.161"/>
      <feComposite operator="in" in2="blur"/>
      <feComposite in="SourceGraphic"/>
    </filter>
  </defs>
  <g id="Grupo_1207469" data-name="Grupo 1207469" transform="translate(-272 -10824.826)">
    <g id="Grupo_1204125" data-name="Grupo 1204125" transform="translate(0 6984.49)">
      <g id="Grupo_1203962" data-name="Grupo 1203962" transform="translate(0 1899.461)">
        <g id="Grupo_1203498" data-name="Grupo 1203498" transform="translate(0 -197.72)">
          <g id="Grupo_1202589" data-name="Grupo 1202589" transform="translate(281 2144.596)">
            <g id="Grupo_1172010" data-name="Grupo 1172010" transform="translate(0)">
              <g id="Grupo_1171046" data-name="Grupo 1171046">
                <g id="Grupo_1148525" data-name="Grupo 1148525">
                  <g transform="matrix(1, 0, 0, 1, -9, -6)" filter="url(#Trazado_982547)">
                    <g id="Trazado_982547-2" data-name="Trazado 982547" transform="translate(9 6)" fill="#edf3fc">
                      <path d="M 47.5 93.5 C 41.28937149047852 93.5 35.26533508300781 92.28397369384766 29.59518623352051 89.88570404052734 C 24.11771965026855 87.56893157958984 19.19813346862793 84.25196075439453 14.97309303283691 80.02691650390625 C 10.74804019927979 75.80186462402344 7.431066513061523 70.88229370117188 5.114293098449707 65.40481567382812 C 2.716026782989502 59.73468017578125 1.5 53.71062850952148 1.5 47.5 C 1.5 41.28937149047852 2.716026782989502 35.26533508300781 5.114293098449707 29.59518623352051 C 7.431066513061523 24.11771965026855 10.74804019927979 19.19813346862793 14.97309303283691 14.97309303283691 C 19.19813346862793 10.74804019927979 24.11771965026855 7.431066513061523 29.59518623352051 5.114293098449707 C 35.26533508300781 2.716026782989502 41.28937149047852 1.5 47.5 1.5 C 53.71062850952148 1.5 59.73468017578125 2.716026782989502 65.40481567382812 5.114293098449707 C 70.88229370117188 7.431066513061523 75.80186462402344 10.74804019927979 80.02691650390625 14.97309303283691 C 84.25196075439453 19.19813346862793 87.56893157958984 24.11771965026855 89.88570404052734 29.59518623352051 C 92.28397369384766 35.26533508300781 93.5 41.28937149047852 93.5 47.5 C 93.5 53.71062850952148 92.28397369384766 59.73468017578125 89.88570404052734 65.40481567382812 C 87.56893157958984 70.88229370117188 84.25196075439453 75.80186462402344 80.02691650390625 80.02691650390625 C 75.80186462402344 84.25196075439453 70.88229370117188 87.56893157958984 65.40481567382812 89.88570404052734 C 59.73468017578125 92.28397369384766 53.71062850952148 93.5 47.5 93.5 Z" stroke="none"/>
                      <path d="M 47.5 3 C 41.49121475219727 3 35.66376876831055 4.176155090332031 30.17950439453125 6.495796203613281 C 24.88084411621094 8.736953735351562 20.12152099609375 11.94598388671875 16.03375244140625 16.03375244140625 C 11.94598388671875 20.12152099609375 8.736953735351562 24.88084411621094 6.495796203613281 30.17950439453125 C 4.176155090332031 35.66376876831055 3 41.49121475219727 3 47.5 C 3 53.50878524780273 4.176155090332031 59.33623123168945 6.495796203613281 64.82049560546875 C 8.736953735351562 70.11915588378906 11.94598388671875 74.87847900390625 16.03375244140625 78.96624755859375 C 20.12152099609375 83.05401611328125 24.88084411621094 86.26304626464844 30.17950439453125 88.50419616699219 C 35.66376876831055 90.82384490966797 41.49121475219727 92 47.5 92 C 53.50878524780273 92 59.33623123168945 90.82384490966797 64.82049560546875 88.50419616699219 C 70.11915588378906 86.26304626464844 74.87847900390625 83.05401611328125 78.96624755859375 78.96624755859375 C 83.05401611328125 74.87847900390625 86.26304626464844 70.11915588378906 88.50419616699219 64.82049560546875 C 90.82384490966797 59.33623123168945 92 53.50878524780273 92 47.5 C 92 41.49121475219727 90.82384490966797 35.66376876831055 88.50419616699219 30.17950439453125 C 86.26304626464844 24.88084411621094 83.05401611328125 20.12152099609375 78.96624755859375 16.03375244140625 C 74.87847900390625 11.94598388671875 70.11915588378906 8.736953735351562 64.82049560546875 6.495796203613281 C 59.33623123168945 4.176155090332031 53.50878524780273 3 47.5 3 M 47.5 0 C 73.7335205078125 0 95 21.2664794921875 95 47.5 C 95 73.7335205078125 73.7335205078125 95 47.5 95 C 21.2664794921875 95 0 73.7335205078125 0 47.5 C 0 21.2664794921875 21.2664794921875 0 47.5 0 Z" stroke="none" fill="#5692e8"/>
                    </g>
                  </g>
                </g>
              </g>
            </g>
          </g>
        </g>
      </g>
    </g>
    <g id="inspiration_3505531" transform="translate(296.559 10846.326)">
      <g id="Grupo_1206792" data-name="Grupo 1206792">
        <g id="Grupo_1206776" data-name="Grupo 1206776">
          <path id="Trazado_1049647" data-name="Trazado 1049647" d="M40,56H52a6.009,6.009,0,0,1-6,6,6,6,0,0,1-6-6Z" fill="#aab2bd"/>
        </g>
        <g id="Grupo_1206777" data-name="Grupo 1206777">
          <path id="Trazado_1049648" data-name="Trazado 1049648" d="M52,52v4H40V52H52Z" fill="#aab2bd"/>
        </g>
        <g id="Grupo_1206778" data-name="Grupo 1206778">
          <path id="Trazado_1049649" data-name="Trazado 1049649" d="M45.23,2.02A16.049,16.049,0,0,0,32.61,9.3l6.5,3.25a1.7,1.7,0,0,1,.56.47l2.09-2.09,1.66,1.66c.28-.12.3-.12.58-.24V10h4v2.35c.28.12.3.12.58.24l1.66-1.66,2.83,2.83-1.66,1.66c.12.28.12.3.24.58H54v4H51.65c-.12.28-.12.3-.24.58l1.66,1.66-2.83,2.83-1.66-1.66c-.28.12-.3.12-.58.24V26H44V23.65c-.28-.12-.3-.13-.58-.24l-1.66,1.66-2.83-2.83,1.66-1.66c-.11-.28-.12-.3-.24-.58H38V16l-7.88,3.94a15.946,15.946,0,0,0,4.81,9.6A10.282,10.282,0,0,1,38,37.02V50a2.006,2.006,0,0,0,2,2H52a2.006,2.006,0,0,0,2-2V36.74a10.325,10.325,0,0,1,3.19-7.33A15.981,15.981,0,0,0,45.23,2.02Z" fill="#ffeaa7"/>
        </g>
        <g id="Grupo_1206779" data-name="Grupo 1206779">
          <path id="Trazado_1049650" data-name="Trazado 1049650" d="M54,16v4H51.65c-.12.28-.12.3-.24.58l1.66,1.66-2.83,2.83-1.66-1.66c-.28.12-.3.12-.58.24V26H44V23.65c-.28-.12-.3-.13-.58-.24l-1.66,1.66-2.83-2.83,1.66-1.66c-.11-.28-.12-.3-.24-.58H38V16l1.11-.55a1.624,1.624,0,0,0,.56-2.43l2.09-2.09,1.66,1.66c.28-.12.3-.12.58-.24V10h4v2.35c.28.12.3.12.58.24l1.66-1.66,2.83,2.83-1.66,1.66c.12.28.12.3.24.58Zm-6,2a2,2,0,1,0-2,2A2.006,2.006,0,0,0,48,18Z" fill="#fcd770"/>
        </g>
        <g id="Grupo_1206780" data-name="Grupo 1206780">
          <path id="Trazado_1049651" data-name="Trazado 1049651" d="M50,39a3,3,0,0,1-3,3H46V41a3,3,0,0,1,3-3h1Z" fill="#b4dd7f"/>
        </g>
        <g id="Grupo_1206781" data-name="Grupo 1206781">
          <path id="Trazado_1049652" data-name="Trazado 1049652" d="M41,30a5,5,0,0,1,5,5v1H45a5,5,0,0,1-5-5V30Z" fill="#b4dd7f"/>
        </g>
        <g id="Grupo_1206782" data-name="Grupo 1206782">
          <path id="Trazado_1049653" data-name="Trazado 1049653" d="M14,58H8V51.71A10.855,10.855,0,0,1,14,42,16.315,16.315,0,0,1,28,58.14V62H14Z" fill="#4fc1e9"/>
        </g>
        <g id="Grupo_1206783" data-name="Grupo 1206783">
          <path id="Trazado_1049654" data-name="Trazado 1049654" d="M12,20h6a4,4,0,0,0-4,4h-.67a3.335,3.335,0,0,0-2,6L14,32v7a15.75,15.75,0,0,0-8.53-6.84L5,32l1-4L2,27l.18-1.23a12.2,12.2,0,0,1,2.59-5.96A4.163,4.163,0,0,0,6,20h6Z" fill="#b27946"/>
        </g>
        <g id="Grupo_1206784" data-name="Grupo 1206784">
          <path id="Trazado_1049655" data-name="Trazado 1049655" d="M30,8v6H12V8Z" fill="#ff826e"/>
        </g>
        <g id="Grupo_1206785" data-name="Grupo 1206785">
          <path id="Trazado_1049656" data-name="Trazado 1049656" d="M30,14v6H12V14H30Z" fill="#b4dd7f"/>
        </g>
        <g id="Grupo_1206786" data-name="Grupo 1206786">
          <path id="Trazado_1049657" data-name="Trazado 1049657" d="M12,14v6H8V8h4Z" fill="#ffeaa7"/>
        </g>
        <g id="Grupo_1206787" data-name="Grupo 1206787">
          <path id="Trazado_1049658" data-name="Trazado 1049658" d="M8,8V20H6a4.163,4.163,0,0,1-1.23-.19A4,4,0,0,1,2,16V12A4,4,0,0,1,6,8Z" fill="#aab2bd"/>
        </g>
        <g id="Grupo_1206788" data-name="Grupo 1206788">
          <path id="Trazado_1049659" data-name="Trazado 1049659" d="M30,20V8l2.61,1.3,6.5,3.25a1.7,1.7,0,0,1,.56.47,1.624,1.624,0,0,1-.56,2.43L38,16l-7.88,3.94Z" fill="#aab2bd"/>
        </g>
        <g id="Grupo_1206789" data-name="Grupo 1206789">
          <path id="Trazado_1049660" data-name="Trazado 1049660" d="M8,58h6v4H8Z" fill="#f0d0b4"/>
        </g>
        <g id="Grupo_1206790" data-name="Grupo 1206790">
          <path id="Trazado_1049661" data-name="Trazado 1049661" d="M28,36.49A3.508,3.508,0,0,1,24.49,40a3.9,3.9,0,0,1-.96-.13L20,38.86v5.25A16.266,16.266,0,0,0,14,42V32l-2.67-2a3.335,3.335,0,0,1,2-6H14a4,4,0,0,1,4-4H28v2.39A11.943,11.943,0,0,0,30,29l-2,1v2H22a4,4,0,0,0,4,4h2Z" fill="#f0d0b4"/>
        </g>
        <g id="Grupo_1206791" data-name="Grupo 1206791">
          <path id="Trazado_1049662" data-name="Trazado 1049662" d="M28,32v4H26a4,4,0,0,1-4-4Z" fill="#ff826e"/>
        </g>
      </g>
      <g id="Grupo_1206793" data-name="Grupo 1206793">
        <path id="Trazado_1049663" data-name="Trazado 1049663" d="M43,18a3,3,0,1,0,3-3A3,3,0,0,0,43,18Zm4,0a1,1,0,1,1-1-1A1,1,0,0,1,47,18Z"/>
        <path id="Trazado_1049664" data-name="Trazado 1049664" d="M57.735,5.7A16.875,16.875,0,0,0,45.186,1.019a17.065,17.065,0,0,0-12.9,7L30.236,7H6a5.006,5.006,0,0,0-5,5v4a4.992,4.992,0,0,0,2.27,4.179A13.239,13.239,0,0,0,1.186,25.63l-.3,2.121,3.9.976-.981,3.928,1.347.449A14.759,14.759,0,0,1,13,39.3v2.107a11.781,11.781,0,0,0-6,10.3V63H29V58.143a17.378,17.378,0,0,0-8-14.556v-3.4l2.255.644A4.51,4.51,0,0,0,29,36.491V30.618l2.46-1.23-.628-.942A10.883,10.883,0,0,1,29,22.4V21h.28a17,17,0,0,0,4.962,9.261A9.349,9.349,0,0,1,37,37.023V50a3,3,0,0,0,2,2.816V56a7,7,0,0,0,14,0V52.816A3,3,0,0,0,55,50V36.737a9.236,9.236,0,0,1,2.893-6.607A16.978,16.978,0,0,0,57.735,5.7Zm-8.92,8.069,1.427-1.427,1.415,1.415-1.428,1.427L50.982,17H53v2H50.982l-.753,1.815,1.428,1.427-1.415,1.415L48.815,22.23,47,22.982V25H45V22.98l-1.816-.75-1.426,1.427-1.415-1.414,1.427-1.426L41.018,19H39V16.618l.553-.276a2.592,2.592,0,0,0,1.323-3.118l.881-.881,1.427,1.427L45,13.018V11h2v2.018ZM41,55V53H51v2ZM39,14a.615.615,0,0,1-.342.553L37,15.382V12.618l1.658.829A.615.615,0,0,1,39,14Zm-4,2.382-4,2V9.618l4,2ZM13,19V15H29v4Zm16-6H13V9H29ZM9,19V9h2V19ZM3,12A3,3,0,0,1,6,9H7V19H6a3,3,0,0,1-3-3ZM6.193,31.35l1.02-4.077L3.118,26.249l.048-.335a11.226,11.226,0,0,1,2.045-4.993A5.011,5.011,0,0,0,6,21h8.024a4.963,4.963,0,0,0-.924,2.006A4.333,4.333,0,0,0,10.733,30.8L13,32.5v3.473A16.749,16.749,0,0,0,6.193,31.35ZM9,59h4v2H9Zm18-.857V61H15V53H13v4H9V51.708a9.8,9.8,0,0,1,5.171-8.67A15.384,15.384,0,0,1,27,58.143ZM26,35a3.006,3.006,0,0,1-2.829-2H27v2Zm2.584-6.41L27,29.382V31H21v1a5.006,5.006,0,0,0,5,5h.948a2.513,2.513,0,0,1-2.457,2,2.482,2.482,0,0,1-.689-.1l-6.527-1.865-.549,1.924,2.274.65v2.865a17.1,17.1,0,0,0-4-1.3V31.5l-3.066-2.3a2.333,2.333,0,0,1,1.4-4.2H15V24a3,3,0,0,1,3-3h9v1.4A12.863,12.863,0,0,0,28.584,28.59Zm7.041.225a14.99,14.99,0,0,1-4.4-8.309L37,17.618V21h1.757l-1.242,1.243,4.243,4.243L43,25.243V27h2v3.54A5.969,5.969,0,0,0,41,29H39v2a6.006,6.006,0,0,0,6,6V51H40a1,1,0,0,1-1-1V37.023a11.36,11.36,0,0,0-3.375-8.208ZM45,35a4,4,0,0,1-4-4A4,4,0,0,1,45,35Zm1,26a5.009,5.009,0,0,1-4.9-4h9.8A5.009,5.009,0,0,1,46,61ZM56.494,28.7A11.225,11.225,0,0,0,53,36.737V50a1,1,0,0,1-1,1H47V43a4,4,0,0,0,4-4V37H49a3.959,3.959,0,0,0-2,.556V27h2V25.243l1.242,1.242,4.243-4.243L53.242,21H55V15H53.242l1.243-1.243L50.242,9.514,49,10.757V9H43v1.757L41.758,9.515l-2.169,2.168c-.013-.007-.023-.018-.036-.025L34.12,8.942A15.037,15.037,0,0,1,45.281,3.017,14.988,14.988,0,0,1,56.494,28.7ZM47,41a2,2,0,0,1,2-2A2,2,0,0,1,47,41Z"/>
        <path id="Trazado_1049665" data-name="Trazado 1049665" d="M23,24a1,1,0,0,1-2,0V23H19v1a3,3,0,0,0,6,0V23H23Z"/>
      </g>
    </g>
  </g>
</svg>
