<svg xmlns="http://www.w3.org/2000/svg" xmlns:xlink="http://www.w3.org/1999/xlink" width="113" height="113" viewBox="0 0 113 113">
  <defs>
    <filter id="Trazado_982547" x="0" y="0" width="113" height="113" filterUnits="userSpaceOnUse">
      <feOffset dy="3" input="SourceAlpha"/>
      <feGaussianBlur stdDeviation="3" result="blur"/>
      <feFlood flood-opacity="0.161"/>
      <feComposite operator="in" in2="blur"/>
      <feComposite in="SourceGraphic"/>
    </filter>
  </defs>
  <g id="Grupo_1207693" data-name="Grupo 1207693" transform="translate(-586.06 -5944.421)">
    <g id="Grupo_1207470" data-name="Grupo 1207470" transform="translate(0 -4880.405)">
      <g id="Grupo_1204126" data-name="Grupo 1204126" transform="translate(0 6984.49)">
        <g id="Grupo_1203959" data-name="Grupo 1203959" transform="translate(0 1899.461)">
          <g id="Grupo_1203497" data-name="Grupo 1203497" transform="translate(595.061 1946.875)">
            <g id="Grupo_1172010" data-name="Grupo 1172010" transform="translate(0)">
              <g id="Grupo_1171046" data-name="Grupo 1171046">
                <g id="Grupo_1148525" data-name="Grupo 1148525">
                  <g transform="matrix(1, 0, 0, 1, -9, -6)" filter="url(#Trazado_982547)">
                    <g id="Trazado_982547-2" data-name="Trazado 982547" transform="translate(9 6)" fill="#edf3fc">
                      <path d="M 47.5 93.5 C 41.28937149047852 93.5 35.26533508300781 92.28397369384766 29.59518623352051 89.88570404052734 C 24.11771965026855 87.56893157958984 19.19813346862793 84.25196075439453 14.97309303283691 80.02691650390625 C 10.74804019927979 75.80186462402344 7.431066513061523 70.88229370117188 5.114293098449707 65.40481567382812 C 2.716026782989502 59.73468017578125 1.5 53.71062850952148 1.5 47.5 C 1.5 41.28937149047852 2.716026782989502 35.26533508300781 5.114293098449707 29.59518623352051 C 7.431066513061523 24.11771965026855 10.74804019927979 19.19813346862793 14.97309303283691 14.97309303283691 C 19.19813346862793 10.74804019927979 24.11771965026855 7.431066513061523 29.59518623352051 5.114293098449707 C 35.26533508300781 2.716026782989502 41.28937149047852 1.5 47.5 1.5 C 53.71062850952148 1.5 59.73468017578125 2.716026782989502 65.40481567382812 5.114293098449707 C 70.88229370117188 7.431066513061523 75.80186462402344 10.74804019927979 80.02691650390625 14.97309303283691 C 84.25196075439453 19.19813346862793 87.56893157958984 24.11771965026855 89.88570404052734 29.59518623352051 C 92.28397369384766 35.26533508300781 93.5 41.28937149047852 93.5 47.5 C 93.5 53.71062850952148 92.28397369384766 59.73468017578125 89.88570404052734 65.40481567382812 C 87.56893157958984 70.88229370117188 84.25196075439453 75.80186462402344 80.02691650390625 80.02691650390625 C 75.80186462402344 84.25196075439453 70.88229370117188 87.56893157958984 65.40481567382812 89.88570404052734 C 59.73468017578125 92.28397369384766 53.71062850952148 93.5 47.5 93.5 Z" stroke="none"/>
                      <path d="M 47.5 3 C 41.49121475219727 3 35.66376876831055 4.176155090332031 30.17950439453125 6.495796203613281 C 24.88084411621094 8.736953735351562 20.12152099609375 11.94598388671875 16.03375244140625 16.03375244140625 C 11.94598388671875 20.12152099609375 8.736953735351562 24.88084411621094 6.495796203613281 30.17950439453125 C 4.176155090332031 35.66376876831055 3 41.49121475219727 3 47.5 C 3 53.50878524780273 4.176155090332031 59.33623123168945 6.495796203613281 64.82049560546875 C 8.736953735351562 70.11915588378906 11.94598388671875 74.87847900390625 16.03375244140625 78.96624755859375 C 20.12152099609375 83.05401611328125 24.88084411621094 86.26304626464844 30.17950439453125 88.50419616699219 C 35.66376876831055 90.82384490966797 41.49121475219727 92 47.5 92 C 53.50878524780273 92 59.33623123168945 90.82384490966797 64.82049560546875 88.50419616699219 C 70.11915588378906 86.26304626464844 74.87847900390625 83.05401611328125 78.96624755859375 78.96624755859375 C 83.05401611328125 74.87847900390625 86.26304626464844 70.11915588378906 88.50419616699219 64.82049560546875 C 90.82384490966797 59.33623123168945 92 53.50878524780273 92 47.5 C 92 41.49121475219727 90.82384490966797 35.66376876831055 88.50419616699219 30.17950439453125 C 86.26304626464844 24.88084411621094 83.05401611328125 20.12152099609375 78.96624755859375 16.03375244140625 C 74.87847900390625 11.94598388671875 70.11915588378906 8.736953735351562 64.82049560546875 6.495796203613281 C 59.33623123168945 4.176155090332031 53.50878524780273 3 47.5 3 M 47.5 0 C 73.7335205078125 0 95 21.2664794921875 95 47.5 C 95 73.7335205078125 73.7335205078125 95 47.5 95 C 21.2664794921875 95 0 73.7335205078125 0 47.5 C 0 21.2664794921875 21.2664794921875 0 47.5 0 Z" stroke="none" fill="#5692e8"/>
                    </g>
                  </g>
                </g>
              </g>
            </g>
          </g>
        </g>
      </g>
    </g>
    <g id="reaction_12056973" transform="translate(607.056 5962.65)">
      <g id="Grupo_1207692" data-name="Grupo 1207692" transform="translate(4.868 4.869)">
        <path id="Trazado_1051458" data-name="Trazado 1051458" d="M19.085,102.18a8.076,8.076,0,0,1,2.82,15.644v5.352l-3.651-4.888a8.076,8.076,0,0,1,.831-16.108Z" transform="translate(-11.01 -90.864)" fill="#f23353" fill-rule="evenodd"/>
        <path id="Trazado_1051459" data-name="Trazado 1051459" d="M27.232,102.18a8.078,8.078,0,0,1,7.073,11.975,8.076,8.076,0,0,1-12.991-9.393A8.053,8.053,0,0,1,27.232,102.18Z" transform="translate(-19.157 -90.864)" fill="#ff5471" fill-rule="evenodd"/>
        <path id="Trazado_1051460" data-name="Trazado 1051460" d="M378.932,102.18a8.076,8.076,0,0,0-2.82,15.644v5.352l3.651-4.888a8.076,8.076,0,0,0-.831-16.108Z" transform="translate(-326.203 -90.864)" fill="#99d100" fill-rule="evenodd"/>
        <path id="Trazado_1051461" data-name="Trazado 1051461" d="M378.932,102.18a8.078,8.078,0,0,0-7.073,11.975,8.076,8.076,0,0,0,12.991-9.393A8.053,8.053,0,0,0,378.932,102.18Z" transform="translate(-326.203 -90.864)" fill="#a8e304" fill-rule="evenodd"/>
        <path id="Trazado_1051462" data-name="Trazado 1051462" d="M168.754,10.992h18.037a2.072,2.072,0,0,1,2.066,2.066V31.095a2.072,2.072,0,0,1-2.066,2.066h-5.954l-3.064,8.234-3.064-8.234h-5.954a2.072,2.072,0,0,1-2.066-2.066V13.058a2.072,2.072,0,0,1,2.066-2.066Z" transform="translate(-147.37 -10.992)" fill="#2a92fa" fill-rule="evenodd"/>
        <path id="Trazado_1051463" data-name="Trazado 1051463" d="M168.754,10.992h15.8a2.072,2.072,0,0,1,2.066,2.066V31.095a2.072,2.072,0,0,1-2.066,2.066H178.6l-1.948,5.233-1.948-5.233h-5.954a2.072,2.072,0,0,1-2.066-2.066V13.058a2.072,2.072,0,0,1,2.066-2.066Z" transform="translate(-147.37 -10.992)" fill="#4eb1fc" fill-rule="evenodd"/>
        <path id="Trazado_1051464" data-name="Trazado 1051464" d="M208.006,46.661h7.666v7.666L213.5,52.15l-7.827,7.827-3.312-3.312,7.827-7.827Z" transform="translate(-178.612 -42.235)" fill="#b6dbff" fill-rule="evenodd"/>
        <path id="Trazado_1051465" data-name="Trazado 1051465" d="M208.006,46.661h6.753v6.753L213.5,52.15h0l-.912-.912-7.827,7.827-2.4-2.4,7.827-7.827Z" transform="translate(-178.612 -42.235)" fill="#f3f3ff" fill-rule="evenodd"/>
        <path id="Trazado_1051466" data-name="Trazado 1051466" d="M171.047,380.033a12.088,12.088,0,0,1,12.037,10.989v4H159.01v-4A12.088,12.088,0,0,1,171.047,380.033Z" transform="translate(-140.645 -334.239)" fill="#2a92fa" fill-rule="evenodd"/>
        <path id="Trazado_1051467" data-name="Trazado 1051467" d="M180.131,395.091H159.01v-4a12.088,12.088,0,0,1,11.572-10.979,12.513,12.513,0,0,1,9.549,10.979Z" transform="translate(-140.645 -334.307)" fill="#4eb1fc" fill-rule="evenodd"/>
      </g>
      <circle id="Elipse_13422" data-name="Elipse 13422" cx="5.756" cy="5.756" r="5.756" transform="translate(29.464 50.569) rotate(-89.542)" fill="#fdb0a0"/>
      <path id="Trazado_1051468" data-name="Trazado 1051468" d="M214.225,299.155a5.758,5.758,0,0,1,0-11.282,5.758,5.758,0,0,1,0,11.282Z" transform="translate(-180.108 -248.646)" fill="#ffcec0" fill-rule="evenodd"/>
      <path id="Trazado_1051469" data-name="Trazado 1051469" d="M239.885,380.087l-.97,9.7,2.129,3.048,2.129-3.048-.97-9.7q-.576-.055-1.167-.056t-1.151.054Z" transform="translate(-205.766 -329.37)" fill="#f23353" fill-rule="evenodd"/>
      <path id="Trazado_1051470" data-name="Trazado 1051470" d="M239.885,380.1l-.97,9.7,1.426,2.041,1.426-2.041-.827-8.268-.148-1.484q-.458.009-.907.052Z" transform="translate(-205.766 -329.388)" fill="#ff5471" fill-rule="evenodd"/>
      <path id="Trazado_1051471" data-name="Trazado 1051471" d="M361.38,377.763a9.284,9.284,0,0,1,9.245,8.44H352.135A9.284,9.284,0,0,1,361.38,377.763Z" transform="translate(-304.936 -327.382)" fill="#7cb5ef" fill-rule="evenodd"/>
      <path id="Trazado_1051472" data-name="Trazado 1051472" d="M368.049,386.486H352.135a9.285,9.285,0,0,1,8.379-8.4A9.552,9.552,0,0,1,368.049,386.486Z" transform="translate(-304.936 -327.665)" fill="#b6dbff" fill-rule="evenodd"/>
      <circle id="Elipse_13423" data-name="Elipse 13423" cx="4.421" cy="4.421" r="4.421" transform="matrix(0.987, -0.16, 0.16, 0.987, 51.36, 42.28)" fill="#fdb0a0"/>
      <path id="Trazado_1051473" data-name="Trazado 1051473" d="M394.532,315.657a4.422,4.422,0,1,1,3.526-4.331A4.423,4.423,0,0,1,394.532,315.657Z" transform="translate(-338.984 -265.396)" fill="#ffcec0" fill-rule="evenodd"/>
      <path id="Trazado_1051474" data-name="Trazado 1051474" d="M20.13,377.763a9.284,9.284,0,0,1,9.245,8.44H10.885A9.284,9.284,0,0,1,20.13,377.763Z" transform="translate(-6.032 -327.382)" fill="#7cb5ef" fill-rule="evenodd"/>
      <path id="Trazado_1051475" data-name="Trazado 1051475" d="M26.8,386.486H10.885a9.285,9.285,0,0,1,8.379-8.4A9.552,9.552,0,0,1,26.8,386.486Z" transform="translate(-6.032 -327.665)" fill="#b6dbff" fill-rule="evenodd"/>
      <circle id="Elipse_13424" data-name="Elipse 13424" cx="4.421" cy="4.421" r="4.421" transform="matrix(0.987, -0.161, 0.161, 0.987, 9.032, 42.276)" fill="#fdb0a0"/>
      <path id="Trazado_1051476" data-name="Trazado 1051476" d="M53.282,315.657a4.422,4.422,0,0,1,0-8.661,4.422,4.422,0,0,1,0,8.661Z" transform="translate(-40.08 -265.396)" fill="#ffcec0" fill-rule="evenodd"/>
      <path id="Trazado_1051477" data-name="Trazado 1051477" d="M37.053,12.086a.869.869,0,0,0,0-1.229l-.694-.694h4.7v4.7l-.694-.694a.869.869,0,0,0-1.229,0l-7.213,7.213L29.841,19.3l7.212-7.212ZM32.91,24.827A.869.869,0,1,0,34.139,23.6l-.986-.988,6.6-6.6,1.561,1.562a.87.87,0,0,0,1.484-.614V9.3a.869.869,0,0,0-.868-.869H34.262a.869.869,0,0,0-.615,1.483l1.563,1.562-6.6,6.6-.987-.987A.869.869,0,0,0,26.4,18.312l6.514,6.515Zm20.406-.563a.869.869,0,0,1,1.505-.869l1.2,2.075,4.491-4.491a.869.869,0,1,1,1.229,1.228L56.447,27.5a.866.866,0,0,1-.614.254.879.879,0,0,1-.113-.007.865.865,0,0,1-.639-.427l-1.765-3.055ZM25.054,6.934V24.972a1.2,1.2,0,0,0,1.2,1.2h5.954a.87.87,0,0,1,.814.566l2.25,6.047,2.251-6.047a.869.869,0,0,1,.815-.566h5.953a1.2,1.2,0,0,0,1.2-1.2V6.934a1.2,1.2,0,0,0-1.2-1.2H26.252A1.2,1.2,0,0,0,25.054,6.934Zm1.2,20.971H31.6l2.854,7.669a.868.868,0,0,0,1.628,0l2.854-7.669h5.351a2.937,2.937,0,0,0,2.935-2.934V6.934A2.937,2.937,0,0,0,44.288,4H26.252a2.937,2.937,0,0,0-2.935,2.933V24.972a2.937,2.937,0,0,0,2.935,2.934ZM9.264,26.689l2.451-2.451L9.264,21.788a.869.869,0,0,1,1.229-1.228l2.451,2.451,2.451-2.451a.868.868,0,0,1,1.227,1.228l-2.45,2.451,2.45,2.451a.868.868,0,1,1-1.227,1.228l-2.451-2.451-2.451,2.451a.869.869,0,0,1-1.229-1.228Zm3.679-9.637A7.207,7.207,0,0,0,12.2,31.428a.873.873,0,0,1,.608.345l2.086,2.793V31.829a.869.869,0,0,1,.566-.814,7.209,7.209,0,0,0-2.517-13.963ZM11.636,33.11l3.431,4.59a.868.868,0,0,0,1.564-.52V32.41a8.944,8.944,0,1,0-4.995.7ZM57.6,17.053A7.208,7.208,0,0,0,55.08,31.015a.868.868,0,0,1,.565.814v2.738l2.087-2.793a.868.868,0,0,1,.607-.345A7.207,7.207,0,0,0,57.6,17.052ZM53.908,32.41v4.77a.869.869,0,0,0,.594.825.879.879,0,0,0,.274.043.869.869,0,0,0,.7-.349l3.43-4.59a8.943,8.943,0,1,0-4.995-.7ZM48.217,57.938a8.4,8.4,0,0,1,16.451,0Zm8.226-15.545A3.545,3.545,0,1,1,52.9,45.938,3.549,3.549,0,0,1,56.443,42.393ZM46.456,64.8H24.083v-3.1a11.161,11.161,0,0,1,9.059-9.979l-.862,8.617a.874.874,0,0,0,.153.585l2.133,3.053a.868.868,0,0,0,1.424,0l2.133-3.053a.866.866,0,0,0,.151-.585l-.861-8.614a11.162,11.162,0,0,1,9.044,9.977v3.1ZM30.373,44.856a4.9,4.9,0,1,1,4.9,4.9A4.9,4.9,0,0,1,30.373,44.856ZM36.514,60.2l-.866-8.659c-.127,0-.253-.009-.379-.009s-.242,0-.362.007l-.867,8.66,1.236,1.768ZM5.871,57.938a8.4,8.4,0,0,1,16.45,0H5.871ZM14.1,42.393a3.545,3.545,0,1,1-3.545,3.545A3.549,3.549,0,0,1,14.1,42.393Zm49.2,9.791a10.111,10.111,0,0,0-3.56-2.122,5.282,5.282,0,1,0-6.59,0,10.145,10.145,0,0,0-6.4,6.648A12.98,12.98,0,0,0,39,50.339a6.635,6.635,0,1,0-7.462,0A12.976,12.976,0,0,0,23.8,56.709a10.152,10.152,0,0,0-6.406-6.648,5.282,5.282,0,1,0-6.59,0A10.147,10.147,0,0,0,4,58.729a.866.866,0,0,0,.865.946h17.8a12.935,12.935,0,0,0-.32,1.914c0,.026,0,.052,0,.078v4.007a.869.869,0,0,0,.868.869H47.325a.869.869,0,0,0,.869-.869V61.667c0-.026,0-.052,0-.078a13.005,13.005,0,0,0-.321-1.914h17.8a.866.866,0,0,0,.865-.946A10.1,10.1,0,0,0,63.3,52.184Z" fill-rule="evenodd"/>
    </g>
  </g>
</svg>
