<svg xmlns="http://www.w3.org/2000/svg" xmlns:xlink="http://www.w3.org/1999/xlink" width="113" height="113" viewBox="0 0 113 113">
  <defs>
    <filter id="Trazado_982547" x="0" y="0.001" width="113" height="113" filterUnits="userSpaceOnUse">
      <feOffset dy="3" input="SourceAlpha"/>
      <feGaussianBlur stdDeviation="3" result="blur"/>
      <feFlood flood-opacity="0.161"/>
      <feComposite operator="in" in2="blur"/>
      <feComposite in="SourceGraphic"/>
    </filter>
  </defs>
  <g id="Grupo_1207695" data-name="Grupo 1207695" transform="translate(-902 -5943.999)">
    <g id="Grupo_1207471" data-name="Grupo 1207471" transform="translate(0 -4880.49)">
      <g id="Grupo_1204127" data-name="Grupo 1204127" transform="translate(0 6984.49)">
        <g id="Grupo_1203960" data-name="Grupo 1203960" transform="translate(0.44 1899.125)">
          <g id="Grupo_1203499" data-name="Grupo 1203499" transform="translate(0 -197.72)">
            <g id="Grupo_1202591" data-name="Grupo 1202591" transform="translate(910.561 2144.596)">
              <g id="Grupo_1172010" data-name="Grupo 1172010" transform="translate(0)">
                <g id="Grupo_1171046" data-name="Grupo 1171046">
                  <g id="Grupo_1148525" data-name="Grupo 1148525">
                    <g transform="matrix(1, 0, 0, 1, -9, -6)" filter="url(#Trazado_982547)">
                      <g id="Trazado_982547-2" data-name="Trazado 982547" transform="translate(9 6)" fill="#edf3fc">
                        <path d="M 47.5 93.5 C 41.28937149047852 93.5 35.26533508300781 92.28397369384766 29.59518623352051 89.88570404052734 C 24.11771965026855 87.56893157958984 19.19813346862793 84.25196075439453 14.97309303283691 80.02691650390625 C 10.74804019927979 75.80186462402344 7.431066513061523 70.88229370117188 5.114293098449707 65.40481567382812 C 2.716026782989502 59.73468017578125 1.5 53.71062850952148 1.5 47.5 C 1.5 41.28937149047852 2.716026782989502 35.26533508300781 5.114293098449707 29.59518623352051 C 7.431066513061523 24.11771965026855 10.74804019927979 19.19813346862793 14.97309303283691 14.97309303283691 C 19.19813346862793 10.74804019927979 24.11771965026855 7.431066513061523 29.59518623352051 5.114293098449707 C 35.26533508300781 2.716026782989502 41.28937149047852 1.5 47.5 1.5 C 53.71062850952148 1.5 59.73468017578125 2.716026782989502 65.40481567382812 5.114293098449707 C 70.88229370117188 7.431066513061523 75.80186462402344 10.74804019927979 80.02691650390625 14.97309303283691 C 84.25196075439453 19.19813346862793 87.56893157958984 24.11771965026855 89.88570404052734 29.59518623352051 C 92.28397369384766 35.26533508300781 93.5 41.28937149047852 93.5 47.5 C 93.5 53.71062850952148 92.28397369384766 59.73468017578125 89.88570404052734 65.40481567382812 C 87.56893157958984 70.88229370117188 84.25196075439453 75.80186462402344 80.02691650390625 80.02691650390625 C 75.80186462402344 84.25196075439453 70.88229370117188 87.56893157958984 65.40481567382812 89.88570404052734 C 59.73468017578125 92.28397369384766 53.71062850952148 93.5 47.5 93.5 Z" stroke="none"/>
                        <path d="M 47.5 3 C 41.49121475219727 3 35.66376876831055 4.176155090332031 30.17950439453125 6.495796203613281 C 24.88084411621094 8.736953735351562 20.12152099609375 11.94598388671875 16.03375244140625 16.03375244140625 C 11.94598388671875 20.12152099609375 8.736953735351562 24.88084411621094 6.495796203613281 30.17950439453125 C 4.176155090332031 35.66376876831055 3 41.49121475219727 3 47.5 C 3 53.50878524780273 4.176155090332031 59.33623123168945 6.495796203613281 64.82049560546875 C 8.736953735351562 70.11915588378906 11.94598388671875 74.87847900390625 16.03375244140625 78.96624755859375 C 20.12152099609375 83.05401611328125 24.88084411621094 86.26304626464844 30.17950439453125 88.50419616699219 C 35.66376876831055 90.82384490966797 41.49121475219727 92 47.5 92 C 53.50878524780273 92 59.33623123168945 90.82384490966797 64.82049560546875 88.50419616699219 C 70.11915588378906 86.26304626464844 74.87847900390625 83.05401611328125 78.96624755859375 78.96624755859375 C 83.05401611328125 74.87847900390625 86.26304626464844 70.11915588378906 88.50419616699219 64.82049560546875 C 90.82384490966797 59.33623123168945 92 53.50878524780273 92 47.5 C 92 41.49121475219727 90.82384490966797 35.66376876831055 88.50419616699219 30.17950439453125 C 86.26304626464844 24.88084411621094 83.05401611328125 20.12152099609375 78.96624755859375 16.03375244140625 C 74.87847900390625 11.94598388671875 70.11915588378906 8.736953735351562 64.82049560546875 6.495796203613281 C 59.33623123168945 4.176155090332031 53.50878524780273 3 47.5 3 M 47.5 0 C 73.7335205078125 0 95 21.2664794921875 95 47.5 C 95 73.7335205078125 73.7335205078125 95 47.5 95 C 21.2664794921875 95 0 73.7335205078125 0 47.5 C 0 21.2664794921875 21.2664794921875 0 47.5 0 Z" stroke="none" fill="#5692e8"/>
                      </g>
                    </g>
                  </g>
                </g>
              </g>
            </g>
          </g>
        </g>
      </g>
    </g>
    <g id="client_4176880_1_" data-name="client_4176880 (1)" transform="translate(924 5963)">
      <path id="Trazado_1051478" data-name="Trazado 1051478" d="M49.066,26.284H46.924L42.64,22H33v4.284h9.64v4.284h3.213v4.284H42.64v4.284H38.355v4.284H42.64l4.284-2.142h2.142Z" transform="translate(2.275 1.493)" fill="#f7d2b7"/>
      <path id="Trazado_1051479" data-name="Trazado 1051479" d="M16,26.284h2.142L22.427,22H31v4.284H43.848v4.284h3.213v4.284H43.848v4.284H39.564v4.284H22.427L18.142,41.28H16Z" transform="translate(1.066 1.493)" fill="#fbe1ca"/>
      <path id="Trazado_1051480" data-name="Trazado 1051480" d="M52.365,42a21.428,21.428,0,0,1-37.111,0H6.948A28.726,28.726,0,0,0,9.33,46.68L6.545,49.464l9.088,9.088,2.785-2.785a28.735,28.735,0,0,0,8.965,3.716v3.938H40.236V59.483A28.735,28.735,0,0,0,49.2,55.769l2.785,2.785,9.088-9.088-2.785-2.785A28.726,28.726,0,0,0,60.671,42Z" transform="translate(0.394 2.914)" fill="#686868"/>
      <path id="Trazado_1051481" data-name="Trazado 1051481" d="M61.453,25.564a28.763,28.763,0,0,0-3.14-6.822L61.1,15.957,52.01,6.867,49.226,9.652A28.735,28.735,0,0,0,40.26,5.938V2H27.407V5.938a28.735,28.735,0,0,0-8.964,3.715L15.658,6.868l-9.09,9.087L9.352,18.74a28.763,28.763,0,0,0-3.139,6.824h7.981a21.431,21.431,0,0,1,39.279,0Z" transform="translate(0.371 0.071)" fill="#939393"/>
      <g id="Grupo_1207694" data-name="Grupo 1207694" transform="translate(25.635 26.706)">
        <path id="Trazado_1051482" data-name="Trazado 1051482" d="M26,37H38.853v2.142H26Z" transform="translate(-23.858 -24.147)" fill="#f2b9a1"/>
        <path id="Trazado_1051483" data-name="Trazado 1051483" d="M26,33H43.137v2.142H26Z" transform="translate(-23.858 -24.431)" fill="#f2b9a1"/>
        <path id="Trazado_1051484" data-name="Trazado 1051484" d="M26,29H43.137v2.142H26Z" transform="translate(-23.858 -24.716)" fill="#f2b9a1"/>
        <path id="Trazado_1051485" data-name="Trazado 1051485" d="M24,25h6.427v2.142H24Z" transform="translate(-24 -25)" fill="#f2b9a1"/>
      </g>
      <path id="Trazado_1051486" data-name="Trazado 1051486" d="M48,24H63V43.28H48Z" transform="translate(3.341 1.635)" fill="#4c6cb5"/>
      <path id="Trazado_1051487" data-name="Trazado 1051487" d="M59.782,37.924V24H48V40.066h9.64A2.142,2.142,0,0,0,59.782,37.924Z" transform="translate(3.341 1.635)" fill="#5e87ca"/>
      <path id="Trazado_1051488" data-name="Trazado 1051488" d="M2,24H17V43.28H2Z" transform="translate(0.071 1.635)" fill="#f0ae42"/>
      <path id="Trazado_1051489" data-name="Trazado 1051489" d="M13.782,37.924V24H2V40.066h9.64A2.142,2.142,0,0,0,13.782,37.924Z" transform="translate(0.071 1.635)" fill="#f9d266"/>
      <path id="Trazado_1051490" data-name="Trazado 1051490" d="M66.336,24.564H62.587a29.845,29.845,0,0,0-2.552-5.589l2.19-2.191a1.071,1.071,0,0,0,0-1.515L53.138,6.181a1.071,1.071,0,0,0-1.515,0l-2.19,2.19a29.733,29.733,0,0,0-7.732-3.2v-3.1A1.071,1.071,0,0,0,40.63,1H27.777a1.071,1.071,0,0,0-1.071,1.071v3.1a29.733,29.733,0,0,0-7.732,3.2l-2.19-2.19a1.071,1.071,0,0,0-1.515,0L6.181,15.269a1.071,1.071,0,0,0,0,1.515l2.19,2.191A29.845,29.845,0,0,0,5.82,24.564H2.071A1.071,1.071,0,0,0,1,25.635v19.28a1.071,1.071,0,0,0,1.071,1.071H6.647a29.906,29.906,0,0,0,1.724,3.447l-2.19,2.191a1.071,1.071,0,0,0,0,1.515l9.088,9.088a1.071,1.071,0,0,0,1.515,0l2.19-2.19a29.719,29.719,0,0,0,7.732,3.2v3.1a1.071,1.071,0,0,0,1.071,1.071H40.63A1.071,1.071,0,0,0,41.7,66.336v-3.1a29.718,29.718,0,0,0,7.732-3.2l2.19,2.19a1.071,1.071,0,0,0,1.515,0l9.088-9.088a1.071,1.071,0,0,0,0-1.515l-2.19-2.191a29.908,29.908,0,0,0,1.724-3.447h4.576a1.071,1.071,0,0,0,1.071-1.071V25.635A1.071,1.071,0,0,0,66.336,24.564ZM10.63,19.384a1.071,1.071,0,0,0-.148-1.328l-2.03-2.03,7.574-7.574,2.03,2.03a1.071,1.071,0,0,0,1.328.149,27.623,27.623,0,0,1,8.631-3.577,1.071,1.071,0,0,0,.833-1.044V3.142H39.559V6.009a1.071,1.071,0,0,0,.833,1.044,27.623,27.623,0,0,1,8.631,3.577,1.071,1.071,0,0,0,1.328-.149l2.03-2.03,7.574,7.574-2.035,2.03a1.071,1.071,0,0,0-.148,1.328,27.722,27.722,0,0,1,2.548,5.18H54.515a22.475,22.475,0,0,0-40.622,0H8.087a27.722,27.722,0,0,1,2.543-5.18Zm7.507,9.464h1.071a1.071,1.071,0,0,0,.757-.314l3.971-3.971H30.99v2.142H25.635v2.142H43.843V30.99H27.777v2.142h19.28v2.142H27.777v2.142H43.843v2.142H27.777V41.7H39.559v2.142H23.746l-4.058-2.035a1.071,1.071,0,0,0-.479-.107H18.137ZM50.27,41.7H49.2a1.071,1.071,0,0,0-.479.107l-4.058,2.035H41.7V41.7h3.213a1.071,1.071,0,0,0,1.071-1.071V37.417h2.142A1.071,1.071,0,0,0,49.2,36.346V32.061a1.071,1.071,0,0,0-1.071-1.071H45.986V27.777a1.071,1.071,0,0,0-1.071-1.071H36.346V24.564h8.125l3.971,3.971a1.071,1.071,0,0,0,.757.314H50.27ZM18.137,44.914V43.843h.818l4.058,2.035a1.071,1.071,0,0,0,.479.107H44.914a1.071,1.071,0,0,0,.479-.107l4.058-2.035h.818v1.071a1.061,1.061,0,0,0,.6.951,20.332,20.332,0,0,1-33.336,0,1.061,1.061,0,0,0,.6-.951Zm33.2-20.351a1.071,1.071,0,0,0-1.071,1.071v1.071h-.628l-3.971-3.971a1.071,1.071,0,0,0-.757-.314h-9.64A1.071,1.071,0,0,0,34.2,23.493v3.213H33.133V23.493a1.071,1.071,0,0,0-1.071-1.071H23.493a1.071,1.071,0,0,0-.757.314l-3.971,3.971h-.628V25.635a1.071,1.071,0,0,0-1.071-1.071h-.785a20.351,20.351,0,0,1,35.845,0Zm-48.2,2.142H16V43.843H3.142ZM57.925,50.351l2.035,2.03-7.574,7.574-2.03-2.035a1.071,1.071,0,0,0-1.328-.149A27.623,27.623,0,0,1,40.4,61.348a1.071,1.071,0,0,0-.833,1.044v2.873H28.848V62.4a1.071,1.071,0,0,0-.833-1.044,27.623,27.623,0,0,1-8.631-3.577,1.071,1.071,0,0,0-1.328.149l-2.03,2.035L8.453,52.381l2.03-2.03a1.071,1.071,0,0,0,.148-1.328A27.732,27.732,0,0,1,9,45.986h6.053a22.472,22.472,0,0,0,38.3,0h6.053a27.732,27.732,0,0,1-1.628,3.038,1.071,1.071,0,0,0,.148,1.328Zm7.34-6.508H52.412V26.706H65.265Z" transform="translate(0 0)"/>
    </g>
  </g>
</svg>
