<svg xmlns="http://www.w3.org/2000/svg" xmlns:xlink="http://www.w3.org/1999/xlink" width="113" height="113" viewBox="0 0 113 113">
  <defs>
    <filter id="Trazado_982547" x="0" y="0" width="113" height="113" filterUnits="userSpaceOnUse">
      <feOffset dy="3" input="SourceAlpha"/>
      <feGaussianBlur stdDeviation="3" result="blur"/>
      <feFlood flood-opacity="0.161"/>
      <feComposite operator="in" in2="blur"/>
      <feComposite in="SourceGraphic"/>
    </filter>
  </defs>
  <g id="Grupo_1207599" data-name="Grupo 1207599" transform="translate(-586.06 -2077.78)">
    <g id="Grupo_1207255" data-name="Grupo 1207255" transform="translate(0 -8747.046)">
      <g id="Grupo_1204126" data-name="Grupo 1204126" transform="translate(0 6984.49)">
        <g id="Grupo_1203959" data-name="Grupo 1203959" transform="translate(0 1899.461)">
          <g id="Grupo_1203497" data-name="Grupo 1203497" transform="translate(595.061 1946.875)">
            <g id="Grupo_1172010" data-name="Grupo 1172010" transform="translate(0)">
              <g id="Grupo_1171046" data-name="Grupo 1171046">
                <g id="Grupo_1148525" data-name="Grupo 1148525">
                  <g transform="matrix(1, 0, 0, 1, -9, -6)" filter="url(#Trazado_982547)">
                    <g id="Trazado_982547-2" data-name="Trazado 982547" transform="translate(9 6)" fill="#edf3fc">
                      <path d="M 47.5 93.5 C 41.28937149047852 93.5 35.26533508300781 92.28397369384766 29.59518623352051 89.88570404052734 C 24.11771965026855 87.56893157958984 19.19813346862793 84.25196075439453 14.97309303283691 80.02691650390625 C 10.74804019927979 75.80186462402344 7.431066513061523 70.88229370117188 5.114293098449707 65.40481567382812 C 2.716026782989502 59.73468017578125 1.5 53.71062850952148 1.5 47.5 C 1.5 41.28937149047852 2.716026782989502 35.26533508300781 5.114293098449707 29.59518623352051 C 7.431066513061523 24.11771965026855 10.74804019927979 19.19813346862793 14.97309303283691 14.97309303283691 C 19.19813346862793 10.74804019927979 24.11771965026855 7.431066513061523 29.59518623352051 5.114293098449707 C 35.26533508300781 2.716026782989502 41.28937149047852 1.5 47.5 1.5 C 53.71062850952148 1.5 59.73468017578125 2.716026782989502 65.40481567382812 5.114293098449707 C 70.88229370117188 7.431066513061523 75.80186462402344 10.74804019927979 80.02691650390625 14.97309303283691 C 84.25196075439453 19.19813346862793 87.56893157958984 24.11771965026855 89.88570404052734 29.59518623352051 C 92.28397369384766 35.26533508300781 93.5 41.28937149047852 93.5 47.5 C 93.5 53.71062850952148 92.28397369384766 59.73468017578125 89.88570404052734 65.40481567382812 C 87.56893157958984 70.88229370117188 84.25196075439453 75.80186462402344 80.02691650390625 80.02691650390625 C 75.80186462402344 84.25196075439453 70.88229370117188 87.56893157958984 65.40481567382812 89.88570404052734 C 59.73468017578125 92.28397369384766 53.71062850952148 93.5 47.5 93.5 Z" stroke="none"/>
                      <path d="M 47.5 3 C 41.49121475219727 3 35.66376876831055 4.176155090332031 30.17950439453125 6.495796203613281 C 24.88084411621094 8.736953735351562 20.12152099609375 11.94598388671875 16.03375244140625 16.03375244140625 C 11.94598388671875 20.12152099609375 8.736953735351562 24.88084411621094 6.495796203613281 30.17950439453125 C 4.176155090332031 35.66376876831055 3 41.49121475219727 3 47.5 C 3 53.50878524780273 4.176155090332031 59.33623123168945 6.495796203613281 64.82049560546875 C 8.736953735351562 70.11915588378906 11.94598388671875 74.87847900390625 16.03375244140625 78.96624755859375 C 20.12152099609375 83.05401611328125 24.88084411621094 86.26304626464844 30.17950439453125 88.50419616699219 C 35.66376876831055 90.82384490966797 41.49121475219727 92 47.5 92 C 53.50878524780273 92 59.33623123168945 90.82384490966797 64.82049560546875 88.50419616699219 C 70.11915588378906 86.26304626464844 74.87847900390625 83.05401611328125 78.96624755859375 78.96624755859375 C 83.05401611328125 74.87847900390625 86.26304626464844 70.11915588378906 88.50419616699219 64.82049560546875 C 90.82384490966797 59.33623123168945 92 53.50878524780273 92 47.5 C 92 41.49121475219727 90.82384490966797 35.66376876831055 88.50419616699219 30.17950439453125 C 86.26304626464844 24.88084411621094 83.05401611328125 20.12152099609375 78.96624755859375 16.03375244140625 C 74.87847900390625 11.94598388671875 70.11915588378906 8.736953735351562 64.82049560546875 6.495796203613281 C 59.33623123168945 4.176155090332031 53.50878524780273 3 47.5 3 M 47.5 0 C 73.7335205078125 0 95 21.2664794921875 95 47.5 C 95 73.7335205078125 73.7335205078125 95 47.5 95 C 21.2664794921875 95 0 73.7335205078125 0 47.5 C 0 21.2664794921875 21.2664794921875 0 47.5 0 Z" stroke="none" fill="#5692e8"/>
                    </g>
                  </g>
                </g>
              </g>
            </g>
          </g>
        </g>
      </g>
    </g>
    <g id="student-book-online-wifi-learning" transform="translate(611.235 2100.481)">
      <circle id="Elipse_13403" data-name="Elipse 13403" cx="1.92" cy="1.92" r="1.92" transform="translate(48.079 14.48)" fill="#ff3051"/>
      <path id="Trazado_1051134" data-name="Trazado 1051134" d="M53.88,16.92A1.92,1.92,0,0,1,51,18.581a1.92,1.92,0,0,0,0-3.322,1.92,1.92,0,0,1,2.88,1.661Z" transform="translate(-1.961 -0.52)" fill="#cd2a00"/>
      <path id="Trazado_1051135" data-name="Trazado 1051135" d="M47.643,27.84v1.92A3.84,3.84,0,0,1,43.8,33.6H39.07a13.284,13.284,0,0,0,.893-4.8V24H43.8A3.84,3.84,0,0,1,47.643,27.84Z" transform="translate(-1.483 -0.88)" fill="#a78966"/>
      <path id="Trazado_1051136" data-name="Trazado 1051136" d="M46.36,45.52H31V41.747A13.452,13.452,0,0,0,38.747,34H42.52v5.76Z" transform="translate(-1.16 -1.281)" fill="#ffcd00"/>
      <path id="Trazado_1051137" data-name="Trazado 1051137" d="M46.68,45.52H42.84L39,39.76v-5.6A1.171,1.171,0,0,0,39.067,34H42.84v5.76Z" transform="translate(-1.481 -1.281)" fill="#ebbf00"/>
      <path id="Trazado_1051138" data-name="Trazado 1051138" d="M42.559,20.28v2.88H38.72V22.2a13.44,13.44,0,0,0-26.88,0v.96H8V20.28a17.28,17.28,0,0,1,34.559,0Z" transform="translate(-0.24 -0.04)" fill="#e0e0e2"/>
      <path id="Trazado_1051139" data-name="Trazado 1051139" d="M38.88,23.88v4.8a13.284,13.284,0,0,1-.893,4.8,13.434,13.434,0,0,1-25.094,0A13.284,13.284,0,0,1,12,28.68v-4.8h7.334a9.535,9.535,0,0,0,4.291-1.018L27.36,21l3.734,1.862a9.535,9.535,0,0,0,4.291,1.018Z" transform="translate(-0.4 -0.76)" fill="#ffc477"/>
      <path id="Trazado_1051140" data-name="Trazado 1051140" d="M38.88,22.44v.96H35.385a9.535,9.535,0,0,1-4.291-1.018L27.36,20.52l-3.734,1.862A9.535,9.535,0,0,1,19.334,23.4H12v-.96a13.44,13.44,0,0,1,26.88,0Z" transform="translate(-0.4 -0.28)" fill="#ffcd00"/>
      <path id="Trazado_1051141" data-name="Trazado 1051141" d="M35.639,49.643V60.52H3v-9.6L20.28,49v.96a4.8,4.8,0,1,0,9.6,0V49Z" transform="translate(-0.04 -1.881)" fill="#ea348b"/>
      <path id="Trazado_1051142" data-name="Trazado 1051142" d="M30.6,48.723v.96a4.8,4.8,0,1,1-9.6,0V42.07a13.35,13.35,0,0,0,9.6,0Z" transform="translate(-0.76 -1.603)" fill="#ffc477"/>
      <path id="Trazado_1051143" data-name="Trazado 1051143" d="M20.36,41.747V45.52H5l3.84-5.76V34h3.773A13.452,13.452,0,0,0,20.36,41.747Z" transform="translate(-0.12 -1.281)" fill="#ffcd00"/>
      <path id="Trazado_1051144" data-name="Trazado 1051144" d="M12.573,33.6H7.84A3.84,3.84,0,0,1,4,29.76V27.84A3.84,3.84,0,0,1,7.84,24h3.84v4.8a13.284,13.284,0,0,0,.893,4.8Z" transform="translate(-0.08 -0.88)" fill="#a78966"/>
      <path id="Trazado_1051145" data-name="Trazado 1051145" d="M47.68,27.84v1.92a3.84,3.84,0,0,1-3.84,3.84H40a3.84,3.84,0,0,0,3.84-3.84V27.84A3.84,3.84,0,0,0,40,24h3.84A3.84,3.84,0,0,1,47.68,27.84Z" transform="translate(-1.521 -0.88)" fill="#806749"/>
      <path id="Trazado_1051146" data-name="Trazado 1051146" d="M39.36,23.88v4.8a13.284,13.284,0,0,1-.893,4.8,13.452,13.452,0,0,1-7.747,7.747,13.284,13.284,0,0,1-4.8.893A12.735,12.735,0,0,1,24,41.976a12.576,12.576,0,0,0,2.88-.749,13.452,13.452,0,0,0,7.747-7.747,13.284,13.284,0,0,0,.893-4.8v-4.8H32.025a9.535,9.535,0,0,1-4.291-1.018l-1.814-.9L27.84,21l3.734,1.862a9.535,9.535,0,0,0,4.291,1.018Z" transform="translate(-0.88 -0.76)" fill="#ffa733"/>
      <path id="Trazado_1051147" data-name="Trazado 1051147" d="M39.36,22.44v.96H35.865c-.115,0-.23,0-.346-.01v-.95A13.465,13.465,0,0,0,24,9.134,14.016,14.016,0,0,1,25.92,9,13.454,13.454,0,0,1,39.36,22.44Z" transform="translate(-0.88 -0.28)" fill="#ebbf00"/>
      <path id="Trazado_1051148" data-name="Trazado 1051148" d="M37,46H60.04V60.4H37Z" transform="translate(-1.401 -1.761)" fill="#a78966"/>
      <path id="Trazado_1051149" data-name="Trazado 1051149" d="M57,46h3.84V60.4H57Z" transform="translate(-2.201 -1.761)" fill="#957856"/>
      <path id="Trazado_1051150" data-name="Trazado 1051150" d="M56.68,43V56.44L49,58.36V43.96Z" transform="translate(-1.881 -1.641)" fill="#fee9ab"/>
      <path id="Trazado_1051151" data-name="Trazado 1051151" d="M56.68,43V56.44L49,58.36V57.4l3.84-.96V43.48Z" transform="translate(-1.881 -1.641)" fill="#ffde55"/>
      <path id="Trazado_1051152" data-name="Trazado 1051152" d="M48.68,43.96v14.4L41,56.44V43Z" transform="translate(-1.561 -1.641)" fill="#fee9ab"/>
      <path id="Trazado_1051153" data-name="Trazado 1051153" d="M22.92,35H21c0,1.642,2.063,2.88,4.8,2.88s4.8-1.238,4.8-2.88H28.68c0,.239-1.021.96-2.88.96S22.92,35.239,22.92,35Z" transform="translate(-0.76 -1.321)"/>
      <path id="Trazado_1051154" data-name="Trazado 1051154" d="M51.576,3.92A12.43,12.43,0,0,1,60.4,7.577l1.356-1.36a14.4,14.4,0,0,0-20.363,0l1.355,1.36A12.43,12.43,0,0,1,51.576,3.92Z" transform="translate(-1.576)"/>
      <path id="Trazado_1051155" data-name="Trazado 1051155" d="M59.155,9.094a10.554,10.554,0,0,0-14.932,0l1.357,1.357a8.64,8.64,0,0,1,12.217,0Z" transform="translate(-1.69 -0.16)"/>
      <path id="Trazado_1051156" data-name="Trazado 1051156" d="M56.554,11.974a6.707,6.707,0,0,0-9.5,0l1.363,1.352a4.788,4.788,0,0,1,6.777,0Z" transform="translate(-1.803 -0.32)"/>
      <path id="Trazado_1051157" data-name="Trazado 1051157" d="M49,16.88A2.88,2.88,0,1,0,51.88,14,2.88,2.88,0,0,0,49,16.88Zm3.84,0a.96.96,0,1,1-.96-.96A.96.96,0,0,1,52.84,16.88Z" transform="translate(-1.881 -0.48)"/>
      <path id="Trazado_1051158" data-name="Trazado 1051158" d="M58.639,43.279h-2.88v-1.92a.942.942,0,0,0-.326-.72.929.929,0,0,0-.749-.23l-7.565.941-2.938-.365-1.862-2.794V33.679a4.8,4.8,0,0,0,4.8-4.8V26.96a4.816,4.816,0,0,0-3.84-4.7V20.24a18.24,18.24,0,1,0-36.479,0v2.016a4.816,4.816,0,0,0-3.84,4.7v1.92a4.8,4.8,0,0,0,4.8,4.8v4.512l-3.677,5.52a.924.924,0,0,0-.048.979.945.945,0,0,0,.845.509h14.4v1.056L2.854,48.089a.949.949,0,0,0-.854.95v9.6a.96.96,0,0,0,.96.96H58.639a.96.96,0,0,0,.96-.96v-14.4a.96.96,0,0,0-.96-.96Zm-10.56-.115,5.76-.72V54.05l-5.76,1.44Zm-1.92,0V55.49L40.4,54.05V42.444Zm-.96-16.2v1.92a2.889,2.889,0,0,1-2.88,2.88H38.9a14.112,14.112,0,0,0,.538-3.84V24.08h2.88a2.889,2.889,0,0,1,2.88,2.88ZM8.72,20.24a16.32,16.32,0,0,1,32.639,0v1.92h-1.92a14.4,14.4,0,1,0-28.8,0H8.72ZM25.04,40.4A12.491,12.491,0,0,1,12.56,27.92V24.08h6.374a10.61,10.61,0,0,0,4.723-1.114l3.3-1.651,3.3,1.651a10.61,10.61,0,0,0,4.723,1.114h2.534v3.84A12.491,12.491,0,0,1,25.04,40.4Zm3.84,1.382v6.3a3.84,3.84,0,1,1-7.68,0v-6.3A13.983,13.983,0,0,0,28.88,41.782ZM34.985,22.16a8.674,8.674,0,0,1-3.859-.912l-3.734-1.862a.918.918,0,0,0-.864,0l-3.734,1.862a8.674,8.674,0,0,1-3.859.912H12.56a12.48,12.48,0,1,1,24.96,0ZM4.88,28.88V26.96a2.889,2.889,0,0,1,2.88-2.88h2.88v3.84a14.112,14.112,0,0,0,.538,3.84H7.76a2.889,2.889,0,0,1-2.88-2.88Zm1.8,14.4,2.842-4.272a.928.928,0,0,0,.163-.528v-4.8h2.17a14.468,14.468,0,0,0,7.43,7.43v2.17Zm27.964,14.4H3.92V49.9l15.369-1.709a5.751,5.751,0,1,0,11.5,0l3.849.422Zm0-10.992-3.84-.422V45.2h3.84ZM30.8,43.279V41.11a14.468,14.468,0,0,0,7.43-7.43H40.4v4.8a.928.928,0,0,0,.163.528l1.1,1.661-2.112-.259a.929.929,0,0,0-.749.23.942.942,0,0,0-.326.72v1.92Zm26.88,14.4H36.559V45.2h1.92v9.6a.96.96,0,0,0,.73.931l7.68,1.92a.936.936,0,0,0,.461,0l7.68-1.92a.96.96,0,0,0,.73-.931V45.2h1.92Z" transform="translate(0 0)"/>
      <path id="Trazado_1051159" data-name="Trazado 1051159" d="M19.84,28.92a1.92,1.92,0,0,1,1.92,1.92h1.92a3.84,3.84,0,0,0-7.68,0h1.92A1.92,1.92,0,0,1,19.84,28.92Z" transform="translate(-0.56 -1)"/>
      <path id="Trazado_1051160" data-name="Trazado 1051160" d="M31.84,28.92a1.92,1.92,0,0,1,1.92,1.92h1.92a3.84,3.84,0,0,0-7.68,0h1.92A1.92,1.92,0,0,1,31.84,28.92Z" transform="translate(-1.04 -1)"/>
    </g>
  </g>
</svg>
