<svg xmlns="http://www.w3.org/2000/svg" xmlns:xlink="http://www.w3.org/1999/xlink" width="113" height="113" viewBox="0 0 113 113">
  <defs>
    <filter id="Trazado_982547" x="0" y="0" width="113" height="113" filterUnits="userSpaceOnUse">
      <feOffset dy="3" input="SourceAlpha"/>
      <feGaussianBlur stdDeviation="3" result="blur"/>
      <feFlood flood-opacity="0.161"/>
      <feComposite operator="in" in2="blur"/>
      <feComposite in="SourceGraphic"/>
    </filter>
  </defs>
  <g id="Grupo_1207601" data-name="Grupo 1207601" transform="translate(-902 -2077.444)">
    <g id="Grupo_1207256" data-name="Grupo 1207256" transform="translate(0 -8747.046)">
      <g id="Grupo_1204127" data-name="Grupo 1204127" transform="translate(0 6984.49)">
        <g id="Grupo_1203960" data-name="Grupo 1203960" transform="translate(0.44 1899.125)">
          <g id="Grupo_1203499" data-name="Grupo 1203499" transform="translate(0 -197.72)">
            <g id="Grupo_1202591" data-name="Grupo 1202591" transform="translate(910.561 2144.596)">
              <g id="Grupo_1172010" data-name="Grupo 1172010" transform="translate(0)">
                <g id="Grupo_1171046" data-name="Grupo 1171046">
                  <g id="Grupo_1148525" data-name="Grupo 1148525">
                    <g transform="matrix(1, 0, 0, 1, -9, -6)" filter="url(#Trazado_982547)">
                      <g id="Trazado_982547-2" data-name="Trazado 982547" transform="translate(9 6)" fill="#edf3fc">
                        <path d="M 47.5 93.5 C 41.28937149047852 93.5 35.26533508300781 92.28397369384766 29.59518623352051 89.88570404052734 C 24.11771965026855 87.56893157958984 19.19813346862793 84.25196075439453 14.97309303283691 80.02691650390625 C 10.74804019927979 75.80186462402344 7.431066513061523 70.88229370117188 5.114293098449707 65.40481567382812 C 2.716026782989502 59.73468017578125 1.5 53.71062850952148 1.5 47.5 C 1.5 41.28937149047852 2.716026782989502 35.26533508300781 5.114293098449707 29.59518623352051 C 7.431066513061523 24.11771965026855 10.74804019927979 19.19813346862793 14.97309303283691 14.97309303283691 C 19.19813346862793 10.74804019927979 24.11771965026855 7.431066513061523 29.59518623352051 5.114293098449707 C 35.26533508300781 2.716026782989502 41.28937149047852 1.5 47.5 1.5 C 53.71062850952148 1.5 59.73468017578125 2.716026782989502 65.40481567382812 5.114293098449707 C 70.88229370117188 7.431066513061523 75.80186462402344 10.74804019927979 80.02691650390625 14.97309303283691 C 84.25196075439453 19.19813346862793 87.56893157958984 24.11771965026855 89.88570404052734 29.59518623352051 C 92.28397369384766 35.26533508300781 93.5 41.28937149047852 93.5 47.5 C 93.5 53.71062850952148 92.28397369384766 59.73468017578125 89.88570404052734 65.40481567382812 C 87.56893157958984 70.88229370117188 84.25196075439453 75.80186462402344 80.02691650390625 80.02691650390625 C 75.80186462402344 84.25196075439453 70.88229370117188 87.56893157958984 65.40481567382812 89.88570404052734 C 59.73468017578125 92.28397369384766 53.71062850952148 93.5 47.5 93.5 Z" stroke="none"/>
                        <path d="M 47.5 3 C 41.49121475219727 3 35.66376876831055 4.176155090332031 30.17950439453125 6.495796203613281 C 24.88084411621094 8.736953735351562 20.12152099609375 11.94598388671875 16.03375244140625 16.03375244140625 C 11.94598388671875 20.12152099609375 8.736953735351562 24.88084411621094 6.495796203613281 30.17950439453125 C 4.176155090332031 35.66376876831055 3 41.49121475219727 3 47.5 C 3 53.50878524780273 4.176155090332031 59.33623123168945 6.495796203613281 64.82049560546875 C 8.736953735351562 70.11915588378906 11.94598388671875 74.87847900390625 16.03375244140625 78.96624755859375 C 20.12152099609375 83.05401611328125 24.88084411621094 86.26304626464844 30.17950439453125 88.50419616699219 C 35.66376876831055 90.82384490966797 41.49121475219727 92 47.5 92 C 53.50878524780273 92 59.33623123168945 90.82384490966797 64.82049560546875 88.50419616699219 C 70.11915588378906 86.26304626464844 74.87847900390625 83.05401611328125 78.96624755859375 78.96624755859375 C 83.05401611328125 74.87847900390625 86.26304626464844 70.11915588378906 88.50419616699219 64.82049560546875 C 90.82384490966797 59.33623123168945 92 53.50878524780273 92 47.5 C 92 41.49121475219727 90.82384490966797 35.66376876831055 88.50419616699219 30.17950439453125 C 86.26304626464844 24.88084411621094 83.05401611328125 20.12152099609375 78.96624755859375 16.03375244140625 C 74.87847900390625 11.94598388671875 70.11915588378906 8.736953735351562 64.82049560546875 6.495796203613281 C 59.33623123168945 4.176155090332031 53.50878524780273 3 47.5 3 M 47.5 0 C 73.7335205078125 0 95 21.2664794921875 95 47.5 C 95 73.7335205078125 73.7335205078125 95 47.5 95 C 21.2664794921875 95 0 73.7335205078125 0 47.5 C 0 21.2664794921875 21.2664794921875 0 47.5 0 Z" stroke="none" fill="#5692e8"/>
                      </g>
                    </g>
                  </g>
                </g>
              </g>
            </g>
          </g>
        </g>
      </g>
    </g>
    <g id="collaboration_17394451" transform="translate(898.414 2076.815)">
      <g id="Grupo_1207600" data-name="Grupo 1207600" transform="translate(28.323 23.473)">
        <path id="Trazado_1051161" data-name="Trazado 1051161" d="M227.333,29.55H245.4a1.825,1.825,0,0,1,1.823,1.823V47.524a1.828,1.828,0,0,1-1.823,1.823H227.333a1.83,1.83,0,0,1-1.823-1.823V31.373A1.828,1.828,0,0,1,227.333,29.55Z" transform="translate(-200.321 -29.55)" fill="#365f8e" fill-rule="evenodd"/>
        <path id="Trazado_1051162" data-name="Trazado 1051162" d="M227.333,29.55h12.113a15.276,15.276,0,0,1-.183,2.025C238.12,38.8,232.048,44.7,225.51,45.1V31.373A1.828,1.828,0,0,1,227.333,29.55Z" transform="translate(-200.321 -29.55)" fill="#4376b1" fill-rule="evenodd"/>
        <path id="Trazado_1051163" data-name="Trazado 1051163" d="M219.19,179.76h14.874a2.1,2.1,0,0,1,2.1,2.1v13.406a2.105,2.105,0,0,1-2.1,2.1H219.19a2.105,2.105,0,0,1-2.1-2.1V181.856A2.1,2.1,0,0,1,219.19,179.76Z" transform="translate(-193.011 -159.962)" fill="#0e8843" fill-rule="evenodd"/>
        <path id="Trazado_1051164" data-name="Trazado 1051164" d="M246.12,179.76h13.148a2.1,2.1,0,0,1,2.1,2.1v11.474a9.736,9.736,0,0,1-1.977.2c-6.172,0-12.046-5.488-13.115-12.255A13.71,13.71,0,0,1,246.12,179.76Z" transform="translate(-218.214 -159.962)" fill="#0ba74a" fill-rule="evenodd"/>
        <path id="Trazado_1051165" data-name="Trazado 1051165" d="M202.621,313.27h16.212a1.491,1.491,0,0,1,1.491,1.487v17.452a1.492,1.492,0,0,1-1.491,1.491H202.621a1.494,1.494,0,0,1-1.491-1.491V314.757A1.494,1.494,0,0,1,202.621,313.27Z" transform="translate(-179.154 -275.874)" fill="#4f1752" fill-rule="evenodd"/>
        <path id="Trazado_1051166" data-name="Trazado 1051166" d="M202.612,313.27h14.317a8.9,8.9,0,0,1-.688,5.317c-2.35,5.548-8.956,10.107-15.121,10.585V314.757A1.5,1.5,0,0,1,202.612,313.27Z" transform="translate(-179.145 -275.874)" fill="#612164" fill-rule="evenodd"/>
        <path id="Trazado_1051167" data-name="Trazado 1051167" d="M327.07,221.43a4.872,4.872,0,0,1,4.857,4.861v24.861a2.568,2.568,0,0,1-4.857,1.165,2.57,2.57,0,0,1-4.861-1.165V226.291c0-.063,0-.127,0-.187H311.587a2.289,2.289,0,0,1,0-4.578C316.747,221.526,321.928,221.43,327.07,221.43Z" transform="translate(-273.067 -196.139)" fill="#b62825" fill-rule="evenodd"/>
        <path id="Trazado_1051168" data-name="Trazado 1051168" d="M410.009,141.77a5.179,5.179,0,1,1-5.179,5.179A5.178,5.178,0,0,1,410.009,141.77Z" transform="translate(-356.005 -126.979)" fill="#f9b5b2" fill-rule="evenodd"/>
        <path id="Trazado_1051169" data-name="Trazado 1051169" d="M409,152.668a5.179,5.179,0,1,1,4.166-5.077A5.177,5.177,0,0,1,409,152.668Z" transform="translate(-356.005 -127.621)" fill="#fac4c1" fill-rule="evenodd"/>
        <path id="Trazado_1051170" data-name="Trazado 1051170" d="M50,316.618c2.3,2.305,1.864,2.118,4.517,6.655l4.655-1.106a2.3,2.3,0,1,1,1.517,4.352l-7.2,2.175a2.3,2.3,0,0,1-2.745-1.008L48.995,324.9l-2.152,4.05c1.939,2.22,5.059,8.586.22,8.582l-10.349,0a2.314,2.314,0,0,1,0-4.629h5.313c-4.539-7.954-2.328-4.737,1.7-14.605C44.674,315.96,47.809,315.355,50,316.618Z" transform="translate(-34.4 -278.221)" fill="#cdce2a" fill-rule="evenodd"/>
        <path id="Trazado_1051171" data-name="Trazado 1051171" d="M70.517,329.151c1.169,1.293,1.3,1.886,3.437,5.533l4.655-1.106a2.3,2.3,0,1,1,1.517,4.352l-7.2,2.175a2.3,2.3,0,0,1-2.746-1.008l-1.749-2.788-2.152,4.05c1.939,2.22,5.059,8.586.22,8.582l-9.636,0a2.311,2.311,0,0,1,2.238-2.9h5.313c-4.539-7.954-2.328-4.737,1.7-14.605a4.106,4.106,0,0,1,4.4-2.293Z" transform="translate(-53.839 -289.633)" fill="#f7ec13" fill-rule="evenodd"/>
        <path id="Trazado_1051172" data-name="Trazado 1051172" d="M131.93,257.74a4.388,4.388,0,1,1-4.39,4.386A4.386,4.386,0,0,1,131.93,257.74Z" transform="translate(-115.264 -227.663)" fill="#f9b5b2" fill-rule="evenodd"/>
        <path id="Trazado_1051173" data-name="Trazado 1051173" d="M147.274,267.034a4.389,4.389,0,0,1-4.629,7.129,4.387,4.387,0,0,1,3.236-7.353A4.425,4.425,0,0,1,147.274,267.034Z" transform="translate(-127.375 -235.538)" fill="#fac4c1" fill-rule="evenodd"/>
        <path id="Trazado_1051174" data-name="Trazado 1051174" d="M323.25,221.54a4.88,4.88,0,0,1,4.48,4.846v24.861a2.535,2.535,0,0,1-.463,1.464,2.189,2.189,0,0,1-.179-.3,2.57,2.57,0,0,1-4.861-1.165V226.386c0-.063,0-.127,0-.187H311.607a2.289,2.289,0,0,1,0-4.578C315.482,221.622,319.375,221.57,323.25,221.54Z" transform="translate(-273.084 -196.235)" fill="#e02e27" fill-rule="evenodd"/>
      </g>
      <path id="Trazado_1051175" data-name="Trazado 1051175" d="M81.4,79.407V64.844a.923.923,0,0,1,1.845,0V79.407a1.588,1.588,0,0,0,.5.482,1.653,1.653,0,0,0,2.508-1.406V76.831h0V66.859h0V53.624a3.956,3.956,0,0,0-3.934-3.938c-2.945,0-5.332.022-7.722.045-1.024.011-2.047.018-3.045.03-.026,0-.057,0-.082,0s-.049,0-.071,0c-1.644.014-3.209.022-4.562.022a1.365,1.365,0,0,0,0,2.73H77.47v0h.045a.68.68,0,0,1,.09,0h3.018a.923.923,0,1,1,0,1.845H78.389c-.015,8.04,0,16.084,0,24.124a1.658,1.658,0,0,0,1.648,1.649,1.671,1.671,0,0,0,.859-.239A1.716,1.716,0,0,0,81.4,79.407ZM44.989,52.627a5.311,5.311,0,0,1,1.3,10.461,18.57,18.57,0,0,1,1.458,2.362c.314.56.695,1.244,1.143,2.018l.489-.116v-5a2.421,2.421,0,0,1,2.343-2.411,3.007,3.007,0,0,1-.236-1.173V45.367a3.022,3.022,0,0,1,1.458-2.582,2.7,2.7,0,0,1-.351-1.338V25.3a2.747,2.747,0,0,1,2.745-2.746H73.4A2.741,2.741,0,0,1,76.15,25.3V41.447A2.747,2.747,0,0,1,73.4,44.192H72.16a3.009,3.009,0,0,1,.239,1.173v2.548l2.189-.022c1.192-.011,2.383-.022,3.531-.03-.037-.034-.075-.071-.108-.1a6.1,6.1,0,1,1,7.372.963,5.642,5.642,0,0,1,1.024.819,5.751,5.751,0,0,1,1.7,4.083V66.859h0v9.972h0v1.652a3.488,3.488,0,0,1-5.313,2.979,3.134,3.134,0,0,1-.467-.348,3.3,3.3,0,0,1-.474.348,3.5,3.5,0,0,1-5.31-2.979V54.36H72.4v4.413a3.03,3.03,0,0,1-2.092,2.869,2.384,2.384,0,0,1,.108.713V79.808A2.412,2.412,0,0,1,68,82.221H51.789a2.419,2.419,0,0,1-2.415-2.413V74.315l-1.719.519a3.218,3.218,0,0,1-3.77-1.408l-.9-1.438L41.862,74.1a15.107,15.107,0,0,1,2.234,4.24,6.39,6.39,0,0,1,.344,2.709A2.789,2.789,0,0,1,42.912,83.3a4.244,4.244,0,0,1-1.928.4l-10.349,0v0A3.233,3.233,0,0,1,27.4,80.473h0v0a3.24,3.24,0,0,1,3.236-3.236h3.733c-2.6-4.641-2.358-5.044-.576-8.048a40.9,40.9,0,0,0,3-5.977,4.485,4.485,0,0,1,2.163-2.32,5.257,5.257,0,0,1,1.342-.467,5.309,5.309,0,0,1,4.7-7.795Zm-1.12,10.5a5.25,5.25,0,0,1-2.112-.975,3.8,3.8,0,0,0-1.973.377A2.649,2.649,0,0,0,38.5,63.9a42.29,42.29,0,0,1-3.12,6.225c-1.42,2.4-1.505,2.541,1.334,7.517a.9.9,0,0,1,.161.515.925.925,0,0,1-.923.923H30.636a1.391,1.391,0,0,0-1.391,1.391v0h0a1.4,1.4,0,0,0,1.394,1.391v0l10.349,0a2.437,2.437,0,0,0,1.091-.206,1.038,1.038,0,0,0,.542-.848,4.668,4.668,0,0,0-.269-1.916,12.916,12.916,0,0,0-2.23-4.035.929.929,0,0,1-.169-1.091l1.9-3.572-1.637-2.544a.921.921,0,0,1,1.551-.994L43.657,69.6c.011.018.026.037.037.057l.094.149.034.053a.357.357,0,0,1,.026.041l1.595,2.544v0l.015.022a1.391,1.391,0,0,0,1.613.621l.079-.026,2.832-.855a.986.986,0,0,1,.1-.03l4.211-1.271a.3.3,0,0,1,.071-.022,1.393,1.393,0,0,0,.815-1.694.946.946,0,0,1-.037-.108,1.38,1.38,0,0,0-1.7-.815.808.808,0,0,1-.138.045l-2.765.654a.261.261,0,0,1-.059.014l-1.835.438v0a.921.921,0,0,1-1.006-.43c-.725-1.244-1.165-2.025-1.505-2.637a12.08,12.08,0,0,0-2.27-3.221Zm3.572-7.645a3.475,3.475,0,1,0,1.012,2.452A3.458,3.458,0,0,0,47.441,55.484Zm3.78,11.429,1.644-.393A3.232,3.232,0,0,1,56.9,68.53v0a3.226,3.226,0,0,1-1.988,4.106l-.037.011v0l-3.654,1.1V79.8a.569.569,0,0,0,.568.568H68a.563.563,0,0,0,.568-.568V62.355A.563.563,0,0,0,68,61.791H51.789a.56.56,0,0,0-.4.165.567.567,0,0,0-.169.4ZM85.334,40.431a4.253,4.253,0,1,0,1.248,3.012,4.242,4.242,0,0,0-1.248-3.012ZM70.553,54.36h-3.71a3.211,3.211,0,0,1,0-6.423c1.334,0,2.552,0,3.71-.012v-2.56a1.181,1.181,0,0,0-1.177-1.173H54.5a1.161,1.161,0,0,0-.829.344,1.181,1.181,0,0,0-.348.829V58.771a1.162,1.162,0,0,0,.348.825,1.174,1.174,0,0,0,.829.348H69.376a1.182,1.182,0,0,0,1.177-1.173ZM73.4,24.4H55.335a.9.9,0,0,0-.635.265.888.888,0,0,0-.265.635V41.447a.9.9,0,0,0,.9.9H73.4a.9.9,0,0,0,.9-.9V25.3a.9.9,0,0,0-.9-.9Z" transform="translate(0 0)"/>
    </g>
  </g>
</svg>
